<?xml version="1.0" encoding="utf-8"?>
<!-- Generator: Adobe Illustrator 21.1.0, SVG Export Plug-In . SVG Version: 6.00 Build 0)  -->
<svg version="1.1" xmlns="http://www.w3.org/2000/svg" xmlns:xlink="http://www.w3.org/1999/xlink" x="0px" y="0px"
	 viewBox="0 0 768 150" style="enable-background:new 0 0 768 150;" xml:space="preserve">
<style type="text/css">
	.st0{display:none;}
	.st1{display:inline;}
	.st2{opacity:0.24;fill:#7AB629;}
	.st3{fill:none;stroke:#7AB629;stroke-miterlimit:10;}
	.st4{fill:#E6332A;}
	.st5{fill:#95C11F;}
	.st6{fill:#698219;}
	.st7{fill:#FCEA10;}
	.st8{fill:#BE1622;}
	.st9{fill:#3AAA35;}
	.st10{fill:#FF8122;}
	.st11{fill:#FFFFFF;}
	.st12{fill:#7AB929;}
	.st13{fill:#575756;}
	.st14{clip-path:url(#SVGID_2_);}
	.st15{fill:none;stroke:#1D1D1B;stroke-linecap:round;stroke-linejoin:round;stroke-miterlimit:10;}
	.st16{fill:none;stroke:#000000;stroke-linecap:round;stroke-linejoin:round;stroke-miterlimit:10;}
	.st17{fill:none;stroke:#000000;stroke-miterlimit:10;}
	.st18{fill:none;stroke:#000000;stroke-width:0.9921;stroke-linecap:round;stroke-linejoin:round;stroke-miterlimit:10;}
	.st19{fill:none;stroke:#000000;stroke-width:0.9921;stroke-miterlimit:10;}
	.st20{fill:#12100B;}
	.st21{fill:none;stroke:#15130F;stroke-linecap:round;stroke-linejoin:round;stroke-miterlimit:10;}
	.st22{fill:#1D1D1B;}
	.st23{clip-path:url(#SVGID_4_);}
</style>
<g id="Layer_4" class="st0">
</g>
<g id="bg" class="st0">
</g>
<g id="shop_now">
	<g>
		<rect id="XMLID_473_" x="508.6" y="50" class="st10" width="205" height="50"/>
		<g id="XMLID_472_">
			<path class="st11" d="M561,70.3c-0.9-1.1-1.9-1.3-2.4-1.3c-1.5,0-2,1-2,1.7c0,0.4,0.1,0.7,0.5,1c0.4,0.3,0.8,0.5,1.8,0.8
				c1.1,0.4,2.2,0.8,3,1.5c0.7,0.6,1.3,1.6,1.3,3.1c0,2.9-2.1,4.8-5.1,4.8c-2.7,0-4.3-1.7-5.1-2.8l1.9-1.8c0.7,1.4,2,2,3.1,2
				c1.3,0,2.3-0.8,2.3-2c0-0.5-0.2-0.9-0.6-1.3c-0.5-0.5-1.4-0.8-2.3-1.1c-0.8-0.3-1.7-0.6-2.4-1.3c-0.5-0.4-1.2-1.2-1.2-2.7
				c0-2.2,1.5-4.3,4.7-4.3c0.9,0,2.7,0.2,4.2,1.7L561,70.3z"/>
			<path class="st11" d="M568.4,72.7h6.2V67h2.9v14.7h-2.9v-6.6h-6.2v6.6h-2.9V67h2.9V72.7z"/>
			<path class="st11" d="M595.7,74.3c0,4.5-3.2,7.7-7.8,7.7s-7.8-3.2-7.8-7.7s3.2-7.7,7.8-7.7S595.7,69.9,595.7,74.3z M592.8,74.3
				c0-3-2-5.1-4.9-5.1s-4.9,2.1-4.9,5.1s2,5.1,4.9,5.1S592.8,77.3,592.8,74.3z"/>
			<path class="st11" d="M602.6,67c1.6,0,2.8,0.2,3.9,1.1c1.2,1.1,1.5,2.5,1.5,3.6c0,0.6-0.1,2.2-1.2,3.3c-0.8,0.8-2,1.3-3.7,1.3
				h-1.8v5.5h-2.9V67H602.6z M601.2,73.8h1.2c0.5,0,1.3,0,1.9-0.5c0.5-0.4,0.8-1.1,0.8-1.7c0-0.8-0.4-1.4-0.8-1.7
				c-0.6-0.4-1.3-0.5-2-0.5h-1V73.8z"/>
			<path class="st11" d="M615.2,81.7V67h2l8.9,9.8V67h2.9v14.7h-2l-8.9-9.8v9.8H615.2z"/>
			<path class="st11" d="M647.3,74.3c0,4.5-3.2,7.7-7.8,7.7s-7.8-3.2-7.8-7.7s3.2-7.7,7.8-7.7S647.3,69.9,647.3,74.3z M644.3,74.3
				c0-3-2-5.1-4.9-5.1s-4.9,2.1-4.9,5.1s2,5.1,4.9,5.1S644.3,77.3,644.3,74.3z"/>
			<path class="st11" d="M655.8,81.7h-2.2L648.5,67h3l3.3,10l3.6-10.2h1.6l3.4,10.2l3.5-10h3l-5.4,14.7h-2.2l-3.2-9.3L655.8,81.7z"
				/>
		</g>
	</g>
</g>
<g id="tekst">
	<g>
		<g>
			<path class="st12" d="M59.7,85.8v6.8h5.8v6.1h-5.8V112h-6.4V79.9h12.8v5.9H59.7z"/>
			<path class="st12" d="M81.7,112l-5.6-14.8V112h-6.4V79.9h6.9c2.4,0,5,0.2,7,1.5c2.6,1.7,3.8,4.8,3.8,7.8c0,3.7-1.4,6.3-4.6,8.2
				l5.6,14.6H81.7z M76.1,93.7c0.3,0,0.7,0,1.1,0c2.7,0,4.1-1.9,4.1-4.5s-1.2-4.4-3.9-4.4h-1.2V93.7z"/>
			<path class="st12" d="M91.8,112V79.9h12.8v6h-6.4v6.9h5.6v6.1h-5.6v7.2h6.5v5.9H91.8z"/>
			<path class="st12" d="M109,112V79.9h12.8v6h-6.4v6.9h5.6v6.1h-5.6v7.2h6.5v5.9H109z"/>
			<path class="st12" d="M150.5,87.2c-1.3-1.1-2.8-2.1-4.6-2.1c-1.9,0-3.2,1.3-3.2,3.1c0,5.5,9.6,5.4,9.6,14.4
				c0,5.5-3.3,9.9-9.1,9.9c-2,0-3.9-0.5-5.5-1.6v-6.1c1.4,1,2.9,1.7,4.7,1.7c2.2,0,3.8-1.3,3.8-3.6c0-0.6-0.1-1.1-0.3-1.6
				c-0.6-1.2-2.4-2.3-3.4-3c-3.6-2.5-5.9-4.8-5.9-9.5c0-5.1,2.9-9.5,8.4-9.5c2.2,0,3.8,0.5,5.6,1.5V87.2z"/>
			<path class="st12" d="M168.7,112V97.8h-6.4V112h-6.4V79.9h6.4v11.9h6.4V79.9h6.4V112H168.7z"/>
			<path class="st12" d="M180,112V79.9h6.4V112H180z"/>
			<path class="st12" d="M199,79.9c2,0,3.6,0,5.4,1.1c3,1.7,4.4,5.2,4.4,8.5c0,6.7-4.8,9.9-11.1,9.4V112h-6.4V79.9H199z M198,93.5
				c2.9,0,4.4-1,4.4-4.1c0-2.6-0.9-4.3-3.7-4.3h-1.1v8.4H198z"/>
			<path class="st12" d="M219.5,79.9c2,0,3.6,0,5.4,1.1c3,1.7,4.4,5.2,4.4,8.5c0,6.7-4.8,9.9-11.1,9.4V112h-6.4V79.9H219.5z
				 M218.5,93.5c2.9,0,4.4-1,4.4-4.1c0-2.6-0.9-4.3-3.7-4.3h-1.1v8.4H218.5z"/>
			<path class="st12" d="M232.2,112V79.9h6.4V112H232.2z"/>
			<path class="st12" d="M257.4,112l-7.9-19.4c0.2,1.2,0.3,2.5,0.3,3.7V112h-6.4V79.9h6l7.9,19.4c-0.3-1.4-0.5-2.9-0.5-4.3V79.9h6.5
				V112H257.4z"/>
			<path class="st12" d="M289,94.1c0,0.8,0,1.6,0,2.5c0,2.3-0.1,4.6-0.6,6.8c-1.1,5-4.3,9.1-9.7,9.1c-8.7,0-11.4-9.3-11.4-16.5
				c0-7.4,2.4-16.7,11.4-16.7c4.9,0,8.1,3.1,9.4,7.6l-6.2,2.4c-0.3-1.9-0.8-4.4-3.2-4.4c-4.3,0-4.7,7.9-4.7,11
				c0,3.2,0.1,10.8,4.7,10.8c3.5,0,3.9-4.3,3.9-6.9h-4v-5.7H289z"/>
			<path class="st12" d="M323.5,108c-1.9,2.6-5.1,4.5-8.4,4.5s-6.5-1.9-8.4-4.5c-2.5-3.4-2.9-8-2.9-12c0-4.1,0.4-8.6,2.9-12.1
				c1.9-2.7,5.1-4.5,8.4-4.5c3.3,0,6.5,1.8,8.4,4.5c2.5,3.4,2.9,8,2.9,12.1C326.4,100.1,325.9,104.5,323.5,108z M315.1,85.2
				c-4.2,0-4.5,7.7-4.5,10.6s0.3,10.6,4.5,10.6s4.5-7.7,4.5-10.6S319.3,85.2,315.1,85.2z"/>
			<path class="st12" d="M341.5,112h-5.2L327,79.9h6.8l3.4,12.4c0.8,2.8,1.3,5.8,1.6,8.7c0.2-2.9,0.6-5.9,1.4-8.7l3.5-12.4h6.6
				L341.5,112z"/>
			<path class="st12" d="M353,112V79.9h12.8v6h-6.4v6.9h5.6v6.1h-5.6v7.2h6.5v5.9H353z"/>
			<path class="st12" d="M382.1,112l-5.6-14.8V112h-6.4V79.9h6.9c2.4,0,5,0.2,7,1.5c2.6,1.7,3.8,4.8,3.8,7.8c0,3.7-1.4,6.3-4.6,8.2
				l5.6,14.6H382.1z M376.5,93.7c0.3,0,0.7,0,1.1,0c2.7,0,4.1-1.9,4.1-4.5s-1.2-4.4-3.9-4.4h-1.2V93.7z"/>
			<path class="st12" d="M410.8,90.6c1.5,0.1,3.1,0.3,4.5,1c3.8,1.7,5.1,5.7,5.1,9.6c0,6.8-3.5,11.3-10.6,11.3
				c-2.2,0-4.2-0.6-6.2-1.5l1.1-5.5c1.2,0.9,2.5,1.5,3.9,1.5c3.4,0,5-2.8,5-5.9c0-4-2.7-5.7-6.4-5.7c-0.8,0-1.7,0.1-2.5,0.2
				l2.5-15.8h12.3v5.5h-7.8L410.8,90.6z"/>
			<path class="st12" d="M432.2,112.5c-7.8,0-8.9-11-8.9-16.8c0-5.8,1.4-16.3,9.1-16.3c7.6,0,8.9,10.8,8.9,16.4
				C441.3,101.7,440.1,112.5,432.2,112.5z M435.2,94.7c0-2,0-9.6-2.9-9.6c-2.8,0-2.8,7.4-2.8,9.3v3.4c0,1.9,0.1,8.9,2.8,8.9
				c2.8,0,2.9-7.2,2.9-9.1V94.7z"/>
			<path class="st12" d="M448,112.6c-2.2,0-4-1.9-4-4.1c0-2.2,1.8-4,4-4s4,1.8,4,4C452,110.7,450.2,112.6,448,112.6z"/>
			<path class="st12" d="M453.9,98.3v-5.2h8.1v5.2H453.9z"/>
		</g>
	</g>
	<g>
		<g>
			<path class="st13" d="M87.9,41.1c1.1,0.2,1.6,0.3,1.7,0.4c0.2,0.2,0.2,0.3,0.2,0.5l0.3,0.2c0.4,0.2,0.5,0.8,0.2,1.7
				c0,0.2-0.2,0.4-0.4,0.4s-0.8,0-1.8,0c-1.7-0.2-4-0.2-6.7,0.2c-1.3,0.1-2.1,0.3-2.4,0.6c-0.4,0.5-1.1,1.9-2,4
				c-0.9,2.2-1.3,3.3-1.4,3.4c0.8,0.2,3.1,0.2,6.9-0.2c1-0.2,1.7-0.3,2.1-0.2c0.5,0.1,0.7,0.4,0.8,1.2c0.1,0.7-0.1,1.2-0.6,1.5
				c-0.5,0.3-1.4,0.5-2.7,0.6c-1.3,0.1-2.7,0.2-4.1,0.2c-1.5,0-2.5,0-3.2-0.1c-0.2,0.2-0.4,0.4-0.4,0.7c-0.5,0.9-1.1,2.4-2,4.6
				c-0.8,2.2-1.3,3.5-1.3,4c-0.2,0.5-0.4,1-0.4,1.5c-0.1,0.5-0.2,0.8-0.3,0.8c-0.1,0.4-0.3,0.6-0.7,0.6c-0.4,0-0.7-0.1-0.9-0.4
				c-1.2-0.5-1.6-1.4-1.2-2.7c0.2-0.9,0.6-2.3,1.2-4c0.6-1.7,1-2.9,1.3-3.6s0.6-1.2,0.7-1.8c0.2-0.6,0.3-0.9,0.3-1
				c-0.1-0.3-0.1-0.5,0-0.6c0-0.1,0.2-0.3,0.3-0.5c0.4-0.3,0.8-0.9,1.2-1.8l2-5.6c0.2-0.8,0.3-1.3,0.2-1.3c0,0-0.4,0-1.2,0.1
				c-0.7,0.1-1.1,0.1-1.2,0.1c-0.7,0.1-1-0.1-1-0.5c0.1-0.5,0.2-0.9,0.5-1.3s0.6-0.6,0.9-0.7l1.5-0.4c0.7-0.2,1.4-0.1,2.1,0
				c0.3-0.2,0.5-0.4,0.5-0.5c0.2-0.8,0.7-1.3,1.4-1.4c0.7-0.2,1.2,0,1.4,0.6c0.1,0.2,0.1,0.4,0.1,0.6c0,0.2,0,0.3,0.2,0.3
				c0.3,0,1.1-0.1,2.3-0.4c1.9-0.2,3-0.2,3.5,0c0.2-0.1,0.5-0.1,0.8-0.1C87.5,41.2,87.8,41.2,87.9,41.1z"/>
			<path class="st13" d="M89.3,53.9c1.3-1.1,2.5-1.8,3.5-2c1.6-0.4,2.7-0.2,3.3,0.4c1,0.4,1.6,1.4,1.8,2.8c0.2,2.2-0.5,4.4-2.2,6.8
				c-1,1.4-2.3,2.6-4,3.6c-0.7,0.5-1.9,0.8-3.6,0.9c-0.4,0-1-0.2-1.5-0.7c-1.2-1.2-1.7-2.3-1.5-3.2l0.1-0.9
				c-0.1-0.1-0.2-0.2-0.1-0.3c0.1-0.1,0.1-0.1,0.1-0.2c0.2,0,0.2-0.1,0.2-0.4c-0.1-0.2,0-0.7,0.3-1.4s0.5-1.4,0.9-2
				C87.5,55.8,88.4,54.7,89.3,53.9z M93.8,59c0-0.1,0.1-0.3,0.2-0.6c0.1-0.3,0.2-0.5,0.3-0.7c0.1-0.2,0.1-0.6,0.2-1.2
				c0-0.6-0.1-1-0.3-1.2c-0.3-0.1-0.5-0.2-0.7-0.1c-0.2,0.1-0.5,0.2-0.9,0.5c-2,1.7-3.2,3.5-3.6,5.4c-0.1,0.7,0,1.1,0.2,1.5
				c0.2,0.3,0.6,0.4,1.1,0.3s1-0.4,1.4-0.8c0.4-0.4,0.7-0.7,0.8-0.8c0.1-0.1,0.2-0.2,0.3-0.4c0.1-0.1,0.2-0.3,0.3-0.5
				c0.1-0.2,0.2-0.3,0.2-0.4c0.1-0.1,0.1-0.3,0.2-0.5C93.7,59.3,93.7,59.1,93.8,59z"/>
			<path class="st13" d="M102.3,53.9c1.3-1.1,2.5-1.8,3.5-2c1.6-0.4,2.7-0.2,3.3,0.4c1,0.4,1.6,1.4,1.8,2.8c0.2,2.2-0.5,4.4-2.2,6.8
				c-1,1.4-2.3,2.6-4,3.6c-0.7,0.5-1.9,0.8-3.6,0.9c-0.4,0-1-0.2-1.5-0.7c-1.2-1.2-1.7-2.3-1.5-3.2l0.1-0.9C98,61.4,98,61.3,98,61.2
				c0.1-0.1,0.1-0.1,0.1-0.2c0.2,0,0.2-0.1,0.2-0.4c-0.1-0.2,0-0.7,0.3-1.4c0.2-0.7,0.5-1.4,0.9-2C100.4,55.8,101.3,54.7,102.3,53.9
				z M106.7,59c0-0.1,0.1-0.3,0.2-0.6c0.1-0.3,0.2-0.5,0.3-0.7c0.1-0.2,0.1-0.6,0.2-1.2c0-0.6-0.1-1-0.3-1.2
				c-0.3-0.1-0.5-0.2-0.7-0.1c-0.2,0.1-0.5,0.2-0.9,0.5c-2,1.7-3.2,3.5-3.6,5.4c-0.1,0.7,0,1.1,0.2,1.5s0.6,0.4,1.1,0.3
				c0.5-0.2,1-0.4,1.4-0.8s0.7-0.7,0.8-0.8c0.1-0.1,0.2-0.2,0.3-0.4c0.1-0.1,0.2-0.3,0.3-0.5c0.1-0.2,0.2-0.3,0.2-0.4
				c0.1-0.1,0.1-0.3,0.2-0.5C106.6,59.3,106.7,59.1,106.7,59z"/>
			<path class="st13" d="M123.3,67c-0.2,0.1-0.4,0.2-0.6,0.3c-0.2,0-0.4,0.1-0.7,0.1c-0.3,0.1-0.6,0-0.9-0.3
				c-0.3-0.2-0.5-0.5-0.7-0.8c-0.2-0.6-0.4-1.9-0.4-3.8l-1.6,1.4c-1.6,1.5-3.2,2.3-4.6,2.3c-0.4-0.1-0.9-0.4-1.6-1.1
				c-0.6-0.6-1-1.2-1.2-1.6c-0.3-0.8-0.2-2,0.4-3.7c0.5-1.7,1.3-3.1,2.2-4.2c0.8-1.3,1.9-2.1,3.2-2.4c1.3-0.4,2.4-0.3,3.4,0.3
				c0.8,0.4,1.3,0.3,1.4-0.2c0-0.1,0.4-1.2,1.1-3.4c0.7-2.1,1.6-4.5,2.8-7c0.5-1.1,1.1-1.6,1.6-1.6c0.3,0,0.7,0.1,1.1,0.3
				c0.4,0.2,0.7,0.5,0.9,1c0.2,0.4,0.1,0.9-0.2,1.4c-0.7,1.2-1.5,3.1-2.5,5.7c-1,2.7-1.7,4.7-2.1,6.3s-0.7,3.4-0.8,5.6
				c-0.1,2.2-0.1,3.5,0.1,3.8c0.1,0.4,0.1,0.7,0.1,1C123.7,66.7,123.6,66.9,123.3,67z M114.6,62.8c0.2,0.1,0.6,0,1.2-0.2
				c0.5-0.2,1.2-0.6,2-1.2c0.8-0.6,1.3-1.1,1.7-1.5s0.6-1,0.8-1.7c0.2-0.7,0-1.3-0.6-1.8c-0.7-0.6-1.6-0.4-2.6,0.5
				c-1.3,1.2-2.2,2.9-2.7,5.2C114.2,62.5,114.3,62.7,114.6,62.8z"/>
			<path class="st13" d="M136.2,53.5l-0.1-0.9c0-0.4,0.2-0.7,0.6-1s0.9-0.4,1.4-0.4c0.6,0,1,0.2,1.4,0.7c0.3,0.5,0.5,1,0.5,1.4
				s-0.1,0.9-0.3,1.3l-1.4,3.4c0,0.1,0,0.1,0.1,0.1c0.1,0.1,0.4-0.2,1-0.7c0.6-0.6,1.5-1.3,2.7-2.1c1.2-0.8,2-1.3,2.6-1.5
				c0.4,0,0.8,0.2,1.3,0.7c0.5,0.5,0.8,1,0.8,1.6c-0.4,1.8-0.7,2.8-0.8,3c0.5-0.6,1.4-1.3,2.6-2.2c1.2-0.8,2.1-1.3,2.7-1.3
				c0.8,0,1.4,0.4,1.7,1.2c0.3,0.8,0.5,1.8,0.6,3s0.2,2.1,0.4,2.5c0,0.2,0.2,0.3,0.4,0.4c0.3,0.1,0.5,0.2,0.8,0.4
				c0.2,0.2,0.4,0.5,0.4,0.9c0,1-0.9,1.6-2.6,1.6c-0.8,0-1.4-0.4-2-1.2c-0.6-0.8-0.8-1.7-0.8-2.8c0-0.4,0-0.9,0.1-1.3
				c0.1-0.4,0.1-0.7,0.1-0.8s0-0.1-0.1-0.1c-0.7,0-2.2,1.2-4.4,3.7c-0.1,0.1-0.1,0.1-0.2,0.2c-0.2,0.2-0.5,0.4-0.8,0.7
				c-0.8,0.7-1.3,1.1-1.6,1.1s-0.6-0.1-0.7-0.2l-0.4-0.4c-0.3-0.2-0.5-0.6-0.5-1v-0.2l0.9-2.6c0.7-1.4,1-2.2,1-2.4s0-0.2,0-0.2
				c-0.4,0-1.1,0.6-2.2,1.8c-1.1,1.3-1.9,2.1-2.3,2.5c-0.4,0.4-0.8,0.9-1.2,1.3c-0.4,0.5-0.8,0.9-1.1,1.3c-0.3,0.4-0.5,0.5-0.5,0.5
				c-0.6,0-1.1-0.2-1.5-0.7c-0.5-0.4-0.7-0.9-0.7-1.4c0-0.5,0-0.9,0.1-1.3c0.1-0.4,0.2-1,0.4-1.7c0.2-0.8,0.3-1.3,0.4-1.5
				c0.1-0.3,0.1-0.5,0.2-0.8c0.1-0.3,0.1-0.4,0.1-0.5c0-0.1,0.1-0.2,0.2-0.5s0.2-0.6,0.4-0.9c0.1-0.3,0.4-0.9,0.7-1.6
				C136.2,54.3,136.2,53.9,136.2,53.5z"/>
			<path class="st13" d="M154.9,64.7c0-0.2-0.2-0.6-0.5-1c-0.4-0.4,0.4-2.4,2.4-6.1c0.2-0.2,0.4-0.4,0.6-0.8
				c0.2-0.4,0.4-0.6,0.5-0.7c0-0.1,0-0.2,0.1-0.3c0.1-0.1,0.2-0.1,0.3-0.1l0.3-0.6c0.1-0.2,0.6-0.8,1.5-1.7c0.9-0.9,1.6-1.5,2.2-1.8
				c0.5-0.3,1.1-0.5,1.7-0.5c0.6,0,1.1,0.2,1.5,0.5c0.1,0.1,0.2,0.2,0.5,0.4c0.5,0.4,1.6,1.4,3.3,2.9l-0.7,2
				c-0.6,1.7-0.4,3.3,0.5,4.8c0.3,0.5,0.7,0.9,1.3,1s0.9,0.4,0.9,0.9c0,1.1-0.4,1.7-1.1,1.8c-2,0.3-3.6-0.5-4.6-2.5
				c-0.4-0.5-0.6-1.1-0.7-1.7c-0.2,0.3-0.5,0.6-0.9,1c-3.5,3.6-6.2,4.8-8.1,3.6c-0.1-0.2-0.3-0.4-0.7-0.6
				C155.1,64.9,154.9,64.8,154.9,64.7z M164.1,54.5c-1,0-2.6,1.9-4.8,5.6c-0.4,0.6-0.7,1.4-1.1,2.5c0.4,0.1,1.2-0.4,2.4-1.4
				c0.2-0.2,0.6-0.5,1-0.8c0.4-0.3,0.7-0.6,0.9-0.7c0.2-0.2,0.4-0.4,0.7-0.6c0.5-0.5,0.9-1,1.3-1.6l0.9-1.4
				C165,55,164.5,54.5,164.1,54.5z"/>
			<path class="st13" d="M172.1,52.4c-0.1-0.2-0.2-0.3-0.2-0.5c0-0.2,0.1-0.4,0.3-0.8c0.2-0.4,0.4-0.6,0.6-0.6c0.2,0,0.6,0,1.2,0
				c0.6,0,1-0.1,1.2-0.1c0.2-0.1,0.4-0.2,0.5-0.5c0.1-0.3,0.4-0.8,0.8-1.4c0.9-1.8,1.6-2.8,1.9-3.1c0.4-0.3,0.8-0.5,1.3-0.5
				c0.5-0.1,0.9,0.1,1.4,0.4c0.4,0.5,0.4,1.1,0,1.6c-0.2,0.3-0.4,0.7-0.7,1.2s-0.6,0.9-0.7,1.2c-0.4,0.6-0.5,1-0.2,1
				c0.3,0.1,1.1,0,2.3-0.2c1.2-0.2,1.9,0.3,2.1,1.3c0.1,0.6,0,1-0.2,1.1c-0.2,0.1-0.8,0.2-1.8,0.2c-0.8,0.1-1.6,0.2-2.4,0.2
				c-0.7,0-1.2,0-1.3,0.1c-0.3,0.1-0.6,0.3-0.7,0.7c-0.1,0.1-0.2,0.2-0.3,0.4c-0.2,0.3-0.5,0.9-1,1.8c-0.7,2-1.2,4-1.6,6.1
				c-0.1,0.5-0.1,0.9,0.1,1.1c0.1,0.2,0.5,0.4,1.3,0.4c1.3,0.1,2.6-0.2,4.1-1.1l1.1-0.6c0.2-0.3,0.5-0.1,0.9,0.5
				c0.1,0.2,0.2,0.3,0.2,0.5c0,1-0.5,1.8-1.6,2.5c-1.1,0.7-2.2,1.1-3.4,1.3c-1.2,0.2-2.1,0.2-2.7,0.1c-0.6-0.1-1.2-0.5-1.7-1.1
				s-0.8-1.1-1-1.5l-0.2-0.3c-0.2-0.1-0.2-0.8-0.2-2c0.1-1.2,0.1-2.1,0.3-2.6c0.2-0.6,0.6-1.9,1.3-3.9l1.1-2.3l-1.6-0.4
				C172.4,52.6,172.2,52.5,172.1,52.4z"/>
			<path class="st13" d="M183.8,52.4c-0.1-0.2-0.2-0.3-0.2-0.5c0-0.2,0.1-0.4,0.3-0.8c0.2-0.4,0.4-0.6,0.6-0.6c0.2,0,0.6,0,1.2,0
				c0.6,0,1-0.1,1.2-0.1c0.2-0.1,0.4-0.2,0.5-0.5c0.1-0.3,0.4-0.8,0.8-1.4c0.9-1.8,1.6-2.8,1.9-3.1c0.4-0.3,0.8-0.5,1.3-0.5
				c0.5-0.1,0.9,0.1,1.4,0.4c0.4,0.5,0.4,1.1,0,1.6c-0.2,0.3-0.4,0.7-0.7,1.2s-0.6,0.9-0.7,1.2c-0.4,0.6-0.5,1-0.2,1
				c0.3,0.1,1.1,0,2.3-0.2c1.2-0.2,1.9,0.3,2.1,1.3c0.1,0.6,0,1-0.2,1.1c-0.2,0.1-0.8,0.2-1.8,0.2c-0.8,0.1-1.6,0.2-2.4,0.2
				c-0.7,0-1.2,0-1.3,0.1c-0.3,0.1-0.6,0.3-0.7,0.7c-0.1,0.1-0.2,0.2-0.3,0.4c-0.2,0.3-0.5,0.9-1,1.8c-0.7,2-1.2,4-1.6,6.1
				c-0.1,0.5-0.1,0.9,0.1,1.1c0.1,0.2,0.5,0.4,1.3,0.4c1.3,0.1,2.6-0.2,4.1-1.1l1.1-0.6c0.2-0.3,0.5-0.1,0.9,0.5
				c0.1,0.2,0.2,0.3,0.2,0.5c0,1-0.5,1.8-1.6,2.5c-1.1,0.7-2.2,1.1-3.4,1.3c-1.2,0.2-2.1,0.2-2.7,0.1c-0.6-0.1-1.2-0.5-1.7-1.1
				s-0.8-1.1-1-1.5l-0.2-0.3c-0.2-0.1-0.2-0.8-0.2-2c0.1-1.2,0.1-2.1,0.3-2.6c0.2-0.6,0.6-1.9,1.3-3.9l1.1-2.3l-1.6-0.4
				C184.1,52.6,184,52.5,183.8,52.4z"/>
			<path class="st13" d="M202.7,51.1c1.5,0,2.7,0.4,3.4,1.1c0.7,0.7,1.1,1.4,1.1,2.1v0.3c0,0.5-0.4,1.4-1.1,2.7
				c-0.4,0.7-0.9,1.2-1.7,1.7c-0.8,0.5-1.5,0.8-2.3,0.8s-1.5,0-2.2-0.1c-0.7-0.1-1.1-0.2-1.3-0.2c-0.2,0-0.3,0.1-0.4,0.3
				c-0.2,0.3-0.3,0.8-0.3,1.6c0.1,0.7,0.3,1.2,0.6,1.5c0.3,0.3,0.7,0.4,1.2,0.4c0.5,0,0.9-0.1,1.3-0.3c0.4-0.2,0.9-0.5,1.5-1
				c0.6-0.5,1-0.7,1.3-0.7s0.6,0.2,0.9,0.5s0.5,0.6,0.5,0.9c-0.1,0.6-0.7,1.4-1.8,2.4s-2.4,1.5-3.9,1.5c-1.4,0-2.6-0.4-3.5-1.3
				c-0.9-0.8-1.4-2-1.4-3.6c0-0.6,0-1.2,0.1-1.9s0.3-1.5,0.7-2.5c0.4-1,1-2.1,1.9-3.2s1.8-1.9,2.8-2.4
				C201.1,51.4,202,51.1,202.7,51.1z M202.4,54c-0.3,0-0.8,0.3-1.5,0.8c-0.6,0.6-1.2,1.2-1.7,1.9c0.1,0.3,0.5,0.5,1.3,0.5
				c0.8,0,1.3-0.1,1.5-0.2s0.6-0.4,1.1-1c0.5-0.5,0.8-0.9,0.8-1.1c0-0.6-0.4-0.9-1.3-1H202.4z"/>
			<path class="st13" d="M211.5,51c0.6,0,1,0.1,1.2,0.3c0.6,0.5,0.2,2.1-1.2,4.8c-0.4,0.9-0.6,1.3-0.4,1.3c0.3-0.5,1-1.2,2.1-2
				s1.8-1.4,2.1-1.5c0.3-0.1,0.6-0.3,0.9-0.4c0.3-0.1,0.5-0.2,0.6-0.2c0.6-0.3,1.2-0.4,2-0.3c0.7,0.1,1.2,0.3,1.3,0.7
				c0,0.3,0.2,0.5,0.5,0.6l0.2,0.2c0,0.2-0.2,0.5-0.5,0.8c-0.4,0.3-0.7,0.5-1.1,0.5c-0.4,0-0.9,0.2-1.4,0.4s-1,0.5-1.5,0.8
				c-0.5,0.3-0.9,0.5-1.1,0.6c-0.2,0.1-0.6,0.3-1,0.6c-0.7,0.5-1.4,1.1-2,1.8c-0.7,0.7-1.1,1.2-1.2,1.4c-0.2,0.2-0.4,0.7-0.6,1.4
				c-0.2,0.8-0.3,1.2-0.3,1.4c-0.1,0.4-0.3,0.8-0.6,1.2s-0.6,0.6-0.8,0.7c-0.3,0.1-0.6-0.1-1.1-0.5c-0.8-0.6-1.2-1.2-1.1-1.9
				c0.1-0.7,0.4-2,0.8-3.9c0.1-0.7,0.5-2.1,1.2-4.2c0.7-2.1,1.4-3.5,1.9-4.2C210.5,51.2,211,51,211.5,51z"/>
			<path class="st13" d="M227.5,50.4c0.4-0.2,0.9-0.3,1.5-0.3c0.6,0,1,0.1,1.2,0.2c0.2-0.1,0.3-0.1,0.3-0.1c0.3,0,0.7,0.3,1.2,0.8
				c0.5,0.5,0.8,0.9,0.9,1.3c0,1.9-0.2,2.9-0.5,2.9c-0.1,0-0.2,0.1-0.2,0.2c0,0.4-0.3,0.8-1,1.2c-0.6,0.4-1.2,0.7-1.7,0.7
				c-0.3-0.1-0.6-0.3-0.9-0.5c-0.3-0.3-0.4-0.6-0.4-0.8c0,0,0.3-0.4,0.8-1c0.5-0.6,0.8-1.2,0.8-1.7c0-0.2-0.2-0.3-0.7-0.3
				c-1.4,0.7-2.5,1.3-3.1,1.8c-0.2,0.3-0.3,0.5-0.5,0.5c0,0,0,0-0.1,0s-0.2,0.1-0.5,0.4s-0.5,0.6-0.8,1c-0.3,0.4-0.4,0.8-0.5,1.2
				l-0.1,0.1V58c0,0.1,0,0.2,0,0.3c0,0.4,0.6,1,1.7,1.9c1.1,0.8,1.9,1.4,2.3,1.9c0.4,0.4,0.7,0.8,0.8,1.2c0.2,0.5,0.4,0.9,0.4,1.3
				c0,0.9-0.5,1.6-1.4,2.1c-0.9,0.5-2,0.7-3.3,0.7s-2.4-0.3-3.3-0.8c-0.9-0.5-1.4-1-1.4-1.4c0-0.4,0.1-0.6,0.4-0.7
				c0.3-0.2,0.6-0.3,1.1-0.2c0.5,0.1,1.2,0.2,2,0.3c0.5,0,1-0.1,1.5-0.2c0.5-0.1,0.7-0.2,0.7-0.3c0-0.1-0.1-0.2-0.3-0.4
				c-0.2-0.2-0.4-0.3-0.7-0.3c0-0.1-0.5-0.5-1.5-1.3c-1-0.8-1.5-1.3-1.5-1.5c0,0,0-0.1,0-0.1v-0.2c-0.2,0-0.4-0.2-0.5-0.7
				c-0.2-0.5-0.2-1-0.2-1.4c0-1.4,0.8-2.8,2.4-4.4C224.2,51.9,225.9,50.9,227.5,50.4z"/>
			<path class="st13" d="M232.8,61.2c0.5-0.3,0.9-0.5,1.1-0.5c0.3,0,0.6,0.1,1.1,0.3c0.9,0.5,1.3,1.2,1.2,1.8
				c-0.1,0.7-0.7,1.3-1.7,1.8c-1,0.4-1.9,0.3-2.6-0.2C230.9,63.4,231.2,62.3,232.8,61.2z"/>
			<path class="st13" d="M267.3,43.8c0,0.4-0.2,0.8-0.7,1.3c-0.5,0.4-0.9,0.6-1.3,0.6s-0.6-0.1-0.8-0.2c-1-1.4-2-2.1-3.2-2.1
				s-2.3,0.5-3.4,1.5c-1.1,1-2,2.3-2.8,3.8s-1.5,3.2-2.1,5.1c-1.1,3.4-1.8,6.5-2,9.4c0,0.8,0.1,1.4,0.4,1.8c0.2,0.4,0.7,0.6,1.5,0.6
				c0.8,0,1.9-0.4,3.2-1.2c1.3-0.8,2.5-1.8,3.3-3.2c1.1-2.1,1.7-3.5,1.7-4.3c0-0.4-0.2-0.6-0.6-0.6c-1.3,0-2.2-0.1-2.8-0.2
				s-1-0.4-1.1-0.7c-0.3-0.1-0.5-0.4-0.5-0.9c0-1.1,1.2-1.6,3.5-1.6c1.6,0.1,2.9,0.3,3.7,0.9s1.3,1.6,1.3,3.2c0,0.5,0,0.9-0.1,1.3
				c-0.4,1.7-1.1,3.3-2.1,4.8s-2.2,2.6-3.4,3.5c-2.6,1.8-5,2.7-7.1,2.7c-1.1,0-2.2-0.5-3-1.6c-0.9-1.1-1.3-2.4-1.3-4.2
				c0-3.4,0.5-6.7,1.6-9.8c2.2-6.6,4.8-10.8,7.8-12.7c1.1-0.7,2.5-1.1,4.1-1.1c0.4,0,0.9,0,1.4,0.1c1.1,0.3,2.2,0.8,3.2,1.5
				S267.3,43,267.3,43.8z"/>
			<path class="st13" d="M270.3,51c0.6,0,1,0.1,1.2,0.3c0.6,0.5,0.2,2.1-1.2,4.8c-0.4,0.9-0.6,1.3-0.4,1.3c0.3-0.5,1-1.2,2.1-2
				s1.8-1.4,2.1-1.5c0.3-0.1,0.6-0.3,0.9-0.4c0.3-0.1,0.5-0.2,0.6-0.2c0.6-0.3,1.2-0.4,2-0.3c0.7,0.1,1.2,0.3,1.3,0.7
				c0,0.3,0.2,0.5,0.5,0.6l0.2,0.2c0,0.2-0.2,0.5-0.5,0.8c-0.4,0.3-0.7,0.5-1.1,0.5c-0.4,0-0.9,0.2-1.4,0.4s-1,0.5-1.5,0.8
				c-0.5,0.3-0.9,0.5-1.1,0.6c-0.2,0.1-0.6,0.3-1,0.6c-0.7,0.5-1.4,1.1-2,1.8c-0.7,0.7-1.1,1.2-1.2,1.4c-0.2,0.2-0.4,0.7-0.6,1.4
				c-0.2,0.8-0.3,1.2-0.3,1.4c-0.1,0.4-0.3,0.8-0.6,1.2s-0.6,0.6-0.8,0.7c-0.3,0.1-0.6-0.1-1.1-0.5c-0.8-0.6-1.2-1.2-1.1-1.9
				c0.1-0.7,0.4-2,0.8-3.9c0.1-0.7,0.5-2.1,1.2-4.2c0.7-2.1,1.4-3.5,1.9-4.2C269.3,51.2,269.7,51,270.3,51z"/>
			<path class="st13" d="M282.2,53.9c1.3-1.1,2.5-1.8,3.5-2c1.6-0.4,2.7-0.2,3.3,0.4c1,0.4,1.6,1.4,1.8,2.8c0.2,2.2-0.5,4.4-2.2,6.8
				c-1,1.4-2.3,2.6-4,3.6c-0.7,0.5-1.9,0.8-3.6,0.9c-0.4,0-1-0.2-1.5-0.7c-1.2-1.2-1.7-2.3-1.5-3.2l0.1-0.9
				c-0.1-0.1-0.2-0.2-0.1-0.3c0.1-0.1,0.1-0.1,0.1-0.2c0.2,0,0.2-0.1,0.2-0.4c-0.1-0.2,0-0.7,0.3-1.4c0.2-0.7,0.5-1.4,0.9-2
				C280.3,55.8,281.2,54.7,282.2,53.9z M286.6,59c0-0.1,0.1-0.3,0.2-0.6c0.1-0.3,0.2-0.5,0.3-0.7c0.1-0.2,0.1-0.6,0.2-1.2
				c0-0.6-0.1-1-0.3-1.2c-0.3-0.1-0.5-0.2-0.7-0.1c-0.2,0.1-0.5,0.2-0.9,0.5c-2,1.7-3.2,3.5-3.6,5.4c-0.1,0.7,0,1.1,0.2,1.5
				s0.6,0.4,1.1,0.3c0.5-0.2,1-0.4,1.4-0.8s0.7-0.7,0.8-0.8c0.1-0.1,0.2-0.2,0.3-0.4c0.1-0.1,0.2-0.3,0.3-0.5
				c0.1-0.2,0.2-0.3,0.2-0.4c0.1-0.1,0.1-0.3,0.2-0.5C286.5,59.3,286.6,59.1,286.6,59z"/>
			<path class="st13" d="M301.7,60.6c0,0.6,0.1,0.9,0.4,1c0.1,0,0.2,0,0.5,0c0.2,0,0.5-0.1,0.8-0.3c0.3-0.2,0.7-0.6,1.2-1.1
				c0.5-0.5,1.2-1.4,2-2.6c0.8-1.2,1.2-1.9,1.2-2.1s0.1-0.4,0.4-0.7c0.8-1.1,1.5-1.3,2.3-0.5c0.3,0.3,0.4,0.9,0.4,1.8
				c-0.5,2-1,3.2-1.3,3.6c-0.5,0.4-0.9,0.9-1.3,1.4c-0.7,0.9-1.3,1.4-1.6,1.7s-0.5,0.4-0.6,0.5c-0.8,0.8-1.8,1.4-2.9,1.7
				c-1.1,0.3-1.9,0.3-2.5-0.2c-0.8-0.4-1.2-1.1-1.2-2.1l-0.2-0.8c-0.4,0-0.7,0.3-1,0.8c-0.3,0.5-0.9,1.1-1.9,1.8c-1,0.7-1.7,1-2.2,1
				c-0.6,0-1.2-0.6-1.7-1.9c-0.5-1.2-0.8-2.5-0.6-3.7c0-0.9,0.1-1.7,0.3-2.5c0.2-0.8,0.3-1.3,0.3-1.4c0.2-1.6,0.5-2.7,1-3.4
				c0.4-0.6,1-0.9,1.6-0.8s1,0.4,1.1,1c0.2,0.2,0.3,0.8,0.2,1.6c-0.1,0.8-0.2,1.4-0.4,1.7c-0.1,0.1-0.2,0.8-0.3,2
				c-0.1,1.2-0.2,1.9-0.3,2.2c-0.1,0.8,0,1.1,0.4,0.9c0.4-0.2,1-0.8,1.7-1.8c0.7-1,1.2-1.8,1.5-2.3s0.6-1.3,0.9-2.2
				c0.3-1,0.6-1.6,0.9-1.9c0.3-0.3,0.6-0.4,1.1-0.4c0.4,0,0.8,0.2,1.2,0.4c0.8,0.8,0.8,1.8,0.2,3C302.1,57.6,301.7,59.2,301.7,60.6z
				"/>
			<path class="st13" d="M312.3,71.8c0.3-0.4,0.7-0.5,1.1-0.5c0.4,0,0.7,0.1,0.9,0.2c1,0.7,1.9,0.9,2.8,0.8c0.9-0.2,1.8-0.9,2.8-2.2
				c1.1-1.7,1.9-3.1,2.5-4.2c-0.5-0.3-1.1-0.8-1.6-1.6s-0.7-1.3-0.6-1.5v-0.4c-0.3,0-0.5-0.8-0.6-2.4c-0.1-1.6-0.1-2.8,0-3.4
				s0.2-1.9,0.3-3.6c0-0.7,0.2-1.2,0.7-1.5c0.9-0.4,1.6-0.2,2.1,0.6c0.5,0.8,0.6,2.2,0.5,4.1c-0.2,3.5,0,5.7,0.7,6.6
				c0.2-0.6,0.4-1,0.6-1.2c0.4-0.8,0.6-1.2,0.6-1.3c0-0.1,0.1-0.3,0.2-0.5c0.1-0.2,0.4-0.7,0.8-1.5c0.7-2,1.1-3.1,1.3-3.3
				c0.2-0.3,0.3-0.5,0.4-0.7c0.1-0.2,0.2-0.3,0.2-0.4c0.1-0.1,0.1-0.2,0.2-0.4c0.1-0.1,0.1-0.3,0.2-0.3c0.1-0.1,0.1-0.2,0.2-0.2
				c0.1-0.1,0.2-0.2,0.4-0.3c0.4-0.3,0.9-0.3,1.4,0c0.4,0.4,0.7,0.7,0.8,0.9c0.4,0.6,0.2,1.6-0.5,2.8c-0.5,1.4-0.9,2.3-1.3,2.7
				c-0.9,2-1.6,3.7-2.3,5c-0.7,1.4-1.2,2.5-1.5,3.3c-1.7,2.7-2.8,4.4-3.5,5.2c-1.7,1.6-3,2.4-3.9,2.6c-1.4,0.3-2.6,0.2-3.9-0.1
				c-1.2-0.4-1.9-0.9-2.1-1.6C311.9,72.5,312,72.1,312.3,71.8z"/>
			<path class="st13" d="M334.5,53.9c1.3-1.1,2.5-1.8,3.5-2c1.6-0.4,2.7-0.2,3.3,0.4c1,0.4,1.6,1.4,1.8,2.8c0.2,2.2-0.5,4.4-2.2,6.8
				c-1,1.4-2.3,2.6-4,3.6c-0.7,0.5-1.9,0.8-3.6,0.9c-0.4,0-1-0.2-1.5-0.7c-1.2-1.2-1.7-2.3-1.5-3.2l0.1-0.9
				c-0.1-0.1-0.2-0.2-0.1-0.3c0.1-0.1,0.1-0.1,0.1-0.2c0.2,0,0.2-0.1,0.2-0.4c-0.1-0.2,0-0.7,0.3-1.4c0.2-0.7,0.5-1.4,0.9-2
				C332.6,55.8,333.5,54.7,334.5,53.9z M338.9,59c0-0.1,0.1-0.3,0.2-0.6c0.1-0.3,0.2-0.5,0.3-0.7c0.1-0.2,0.1-0.6,0.2-1.2
				c0-0.6-0.1-1-0.3-1.2c-0.3-0.1-0.5-0.2-0.7-0.1c-0.2,0.1-0.5,0.2-0.9,0.5c-2,1.7-3.2,3.5-3.6,5.4c-0.1,0.7,0,1.1,0.2,1.5
				s0.6,0.4,1.1,0.3c0.5-0.2,1-0.4,1.4-0.8s0.7-0.7,0.8-0.8c0.1-0.1,0.2-0.2,0.3-0.4c0.1-0.1,0.2-0.3,0.3-0.5
				c0.1-0.2,0.2-0.3,0.2-0.4c0.1-0.1,0.1-0.3,0.2-0.5C338.8,59.3,338.9,59.1,338.9,59z"/>
			<path class="st13" d="M351.6,63.2v-0.6c-0.3,0.7-0.5,1.1-0.9,1.3c-0.6,0.6-1.2,1-1.8,1.3c-1.7,1.1-3.1,1-4-0.2
				c-1-0.9-1.4-1.9-1.2-3.2c0.1-1.8,0.6-3.9,1.7-6.2c1.1-2.3,1.7-3.5,1.8-3.6c0.4-0.2,0.9-0.1,1.5,0c0.6,0.2,0.9,0.4,0.9,0.8
				c0.2,0.3,0.1,0.8,0,1.5c-0.2,0.7-0.5,1.5-0.9,2.4c-1,2.6-1.6,4.1-1.6,4.7c0,0.6,0.1,0.9,0.4,1c0.3,0.2,0.6,0.2,1,0
				c0.4-0.2,0.9-0.7,1.6-1.5c0.7-0.9,1.3-1.9,1.8-3.1s0.8-2.3,0.9-3.2c-0.1-0.3,0-0.6,0.2-0.9s0.5-0.6,0.8-0.8
				c0.1-0.2,0.2-0.3,0.4-0.4c0.2-0.1,0.3-0.1,0.4,0l0.6,0c0.1,0,0.2,0.1,0.4,0.4c0.2,0.2,0.3,0.4,0.4,0.5c0.7,0.6,0.5,2.2-0.5,4.8
				c-1.5,3.1-1.6,5.2-0.5,6.2c0.4,0.3,0.6,1,0.5,2c-0.1,0.4-0.5,0.6-1.2,0.6c-0.7,0-1.2-0.1-1.6-0.4c-0.4-0.3-0.7-1.2-1.1-2.7
				C351.7,63.8,351.6,63.5,351.6,63.2z"/>
			<path class="st13" d="M361.7,51c0.6,0,1,0.1,1.2,0.3c0.6,0.5,0.2,2.1-1.2,4.8c-0.4,0.9-0.6,1.3-0.4,1.3c0.3-0.5,1-1.2,2.1-2
				c1.1-0.9,1.8-1.4,2.1-1.5c0.3-0.1,0.6-0.3,0.9-0.4c0.3-0.1,0.5-0.2,0.6-0.2c0.6-0.3,1.2-0.4,2-0.3c0.7,0.1,1.2,0.3,1.3,0.7
				c0,0.3,0.2,0.5,0.5,0.6l0.2,0.2c0,0.2-0.2,0.5-0.5,0.8s-0.7,0.5-1.1,0.5c-0.4,0-0.9,0.2-1.4,0.4c-0.5,0.2-1,0.5-1.5,0.8
				c-0.5,0.3-0.9,0.5-1.1,0.6c-0.2,0.1-0.6,0.3-1,0.6c-0.7,0.5-1.4,1.1-2,1.8c-0.7,0.7-1.1,1.2-1.2,1.4c-0.2,0.2-0.4,0.7-0.6,1.4
				c-0.2,0.8-0.3,1.2-0.3,1.4c-0.1,0.4-0.3,0.8-0.6,1.2c-0.3,0.4-0.6,0.6-0.8,0.7s-0.6-0.1-1.1-0.5c-0.8-0.6-1.2-1.2-1.1-1.9
				c0.1-0.7,0.4-2,0.8-3.9c0.1-0.7,0.5-2.1,1.2-4.2s1.4-3.5,1.9-4.2C360.7,51.2,361.1,51,361.7,51z"/>
			<path class="st13" d="M381.8,53.9c1.3-1.1,2.5-1.8,3.5-2c1.6-0.4,2.7-0.2,3.3,0.4c1,0.4,1.6,1.4,1.8,2.8c0.2,2.2-0.5,4.4-2.2,6.8
				c-1,1.4-2.3,2.6-4,3.6c-0.7,0.5-1.9,0.8-3.6,0.9c-0.4,0-1-0.2-1.5-0.7c-1.2-1.2-1.7-2.3-1.5-3.2l0.1-0.9
				c-0.1-0.1-0.2-0.2-0.1-0.3c0.1-0.1,0.1-0.1,0.1-0.2c0.2,0,0.2-0.1,0.2-0.4c-0.1-0.2,0-0.7,0.3-1.4s0.5-1.4,0.9-2
				C379.9,55.8,380.8,54.7,381.8,53.9z M386.2,59c0-0.1,0.1-0.3,0.2-0.6c0.1-0.3,0.2-0.5,0.3-0.7c0.1-0.2,0.1-0.6,0.2-1.2
				c0-0.6-0.1-1-0.3-1.2c-0.3-0.1-0.5-0.2-0.7-0.1c-0.2,0.1-0.5,0.2-0.9,0.5c-2,1.7-3.2,3.5-3.6,5.4c-0.1,0.7,0,1.1,0.2,1.5
				c0.2,0.3,0.6,0.4,1.1,0.3s1-0.4,1.4-0.8c0.4-0.4,0.7-0.7,0.8-0.8c0.1-0.1,0.2-0.2,0.3-0.4c0.1-0.1,0.2-0.3,0.3-0.5
				c0.1-0.2,0.2-0.3,0.2-0.4c0.1-0.1,0.1-0.3,0.2-0.5C386.1,59.3,386.2,59.1,386.2,59z"/>
			<path class="st13" d="M401.3,60.6c0,0.6,0.1,0.9,0.4,1c0.1,0,0.2,0,0.5,0s0.5-0.1,0.8-0.3c0.3-0.2,0.7-0.6,1.2-1.1s1.2-1.4,2-2.6
				c0.8-1.2,1.2-1.9,1.2-2.1s0.1-0.4,0.4-0.7c0.8-1.1,1.5-1.3,2.3-0.5c0.3,0.3,0.4,0.9,0.4,1.8c-0.5,2-1,3.2-1.3,3.6
				c-0.5,0.4-0.9,0.9-1.3,1.4c-0.7,0.9-1.3,1.4-1.6,1.7c-0.3,0.3-0.5,0.4-0.6,0.5c-0.8,0.8-1.8,1.4-2.9,1.7
				c-1.1,0.3-1.9,0.3-2.5-0.2c-0.8-0.4-1.2-1.1-1.2-2.1l-0.2-0.8c-0.4,0-0.7,0.3-1,0.8s-0.9,1.1-1.9,1.8c-1,0.7-1.7,1-2.2,1
				c-0.6,0-1.2-0.6-1.7-1.9s-0.8-2.5-0.6-3.7c0-0.9,0.1-1.7,0.3-2.5c0.2-0.8,0.3-1.3,0.3-1.4c0.2-1.6,0.5-2.7,1-3.4
				c0.4-0.6,1-0.9,1.6-0.8c0.6,0.1,1,0.4,1.1,1c0.2,0.2,0.3,0.8,0.2,1.6c-0.1,0.8-0.2,1.4-0.4,1.7c-0.1,0.1-0.2,0.8-0.3,2
				s-0.2,1.9-0.3,2.2c-0.1,0.8,0,1.1,0.4,0.9c0.4-0.2,1-0.8,1.7-1.8c0.7-1,1.2-1.8,1.5-2.3c0.3-0.5,0.6-1.3,0.9-2.2
				c0.3-1,0.6-1.6,0.9-1.9c0.3-0.3,0.6-0.4,1.1-0.4c0.4,0,0.8,0.2,1.2,0.4c0.8,0.8,0.8,1.8,0.2,3C401.8,57.6,401.3,59.2,401.3,60.6z
				"/>
			<path class="st13" d="M420.8,62.9l0.2-2.7v-0.6c-0.1-0.5-0.2-0.8-0.5-0.8c-0.5,0-1.3,0.5-2.6,1.4c-2.3,1.6-4,3.2-5.2,4.7
				c-0.2,0.3-0.4,0.4-0.6,0.5s-0.4,0-0.6,0c-0.3,0-0.6-0.3-1.1-0.8c-0.5-0.5-0.8-0.9-0.9-1.3c0-1,0.5-2.6,1.6-4.6
				c0.1-0.4,0.5-1.3,1.1-2.7c0.6-1.4,0.9-2.5,1-3.2l0,0c0-0.3,0.1-0.4,0.4-0.4c0.1-0.1,0.3-0.1,0.8-0.1c0.5,0,1,0.2,1.4,0.5
				s0.7,0.9,0.7,1.5s-0.3,1.7-1,3c-0.7,1.4-1,2.1-1,2.1c0.4-0.3,1.2-0.9,2.4-1.8c2.7-2.2,4.3-3.2,5-3.2c0.3,0,0.8,0.2,1.4,0.6
				c0.6,0.4,1,0.7,1.1,1l-0.2,1.8l0.1,2.2c0,0.8-0.1,1.4-0.2,1.8l0.1,0.2c-0.1,0.1,0,0.5,0.3,1.2c0.3,0.7,0.5,1.1,0.5,1.3
				c0,0.2-0.2,0.4-0.6,0.8c-0.4,0.4-0.7,0.6-1.1,0.6C421.6,65.7,420.8,64.7,420.8,62.9z"/>
			<path class="st13" d="M427.3,61.2c0.5-0.3,0.9-0.5,1.1-0.5c0.3,0,0.6,0.1,1.1,0.3c0.9,0.5,1.3,1.2,1.2,1.8s-0.7,1.3-1.7,1.8
				c-1,0.4-1.9,0.3-2.6-0.2C425.4,63.4,425.7,62.3,427.3,61.2z"/>
		</g>
	</g>
</g>
</svg>
