<?xml version="1.0" encoding="utf-8"?>
<!-- Generator: Adobe Illustrator 21.1.0, SVG Export Plug-In . SVG Version: 6.00 Build 0)  -->
<svg version="1.1" xmlns="http://www.w3.org/2000/svg" xmlns:xlink="http://www.w3.org/1999/xlink" x="0px" y="0px"
	 viewBox="0 0 1200 150" style="enable-background:new 0 0 1200 150;" xml:space="preserve">
<style type="text/css">
	.st0{display:none;}
	.st1{display:inline;}
	.st2{opacity:0.24;fill:#7AB629;}
	.st3{fill:none;stroke:#7AB629;stroke-miterlimit:10;}
	.st4{fill:#E6332A;}
	.st5{fill:#95C11F;}
	.st6{fill:#698219;}
	.st7{fill:#FCEA10;}
	.st8{fill:#BE1622;}
	.st9{fill:#3AAA35;}
	.st10{fill:#FF8122;}
	.st11{fill:#FFFFFF;}
	.st12{fill:#7AB929;}
	.st13{fill:#575756;}
	.st14{clip-path:url(#SVGID_2_);}
	.st15{fill:none;stroke:#1D1D1B;stroke-linecap:round;stroke-linejoin:round;stroke-miterlimit:10;}
	.st16{fill:none;stroke:#000000;stroke-linecap:round;stroke-linejoin:round;stroke-miterlimit:10;}
	.st17{fill:none;stroke:#000000;stroke-miterlimit:10;}
	.st18{fill:none;stroke:#000000;stroke-width:0.9921;stroke-linecap:round;stroke-linejoin:round;stroke-miterlimit:10;}
	.st19{fill:none;stroke:#000000;stroke-width:0.9921;stroke-miterlimit:10;}
	.st20{fill:#12100B;}
	.st21{fill:none;stroke:#15130F;stroke-linecap:round;stroke-linejoin:round;stroke-miterlimit:10;}
	.st22{fill:#1D1D1B;}
	.st23{clip-path:url(#SVGID_4_);}
</style>
<g id="Layer_4" class="st0">
	<g class="st1">
		<rect x="15" y="-4.9" class="st2" width="70" height="188"/>
		<rect y="-48.1" class="st3" width="100" height="268.6"/>
		<rect x="115" y="-4.9" class="st2" width="70" height="188"/>
		<rect x="100" y="-48.1" class="st3" width="100" height="268.6"/>
		<rect x="215" y="-4.9" class="st2" width="70" height="188"/>
		<rect x="200" y="-48.1" class="st3" width="100" height="268.6"/>
		<rect x="315" y="-4.9" class="st2" width="70" height="188"/>
		<rect x="300" y="-48.1" class="st3" width="100" height="268.6"/>
		<rect x="415" y="-4.9" class="st2" width="70" height="188"/>
		<rect x="400" y="-48.1" class="st3" width="100" height="268.6"/>
		<rect x="515" y="-4.9" class="st2" width="70" height="188"/>
		<rect x="500" y="-48.1" class="st3" width="100" height="268.6"/>
		<rect x="615" y="-4.9" class="st2" width="70" height="188"/>
		<rect x="600" y="-48.1" class="st3" width="100" height="268.6"/>
		<rect x="715" y="-4.9" class="st2" width="70" height="188"/>
		<rect x="700" y="-48.1" class="st3" width="100" height="268.6"/>
		<rect x="815" y="-4.9" class="st2" width="70" height="188"/>
		<rect x="800" y="-48.1" class="st3" width="100" height="268.6"/>
		<rect x="915" y="-4.9" class="st2" width="70" height="188"/>
		<rect x="900" y="-48.1" class="st3" width="100" height="268.6"/>
		<rect x="1015" y="-4.9" class="st2" width="70" height="188"/>
		<rect x="1000" y="-48.1" class="st3" width="100" height="268.6"/>
		<rect x="1115" y="-4.9" class="st2" width="70" height="188"/>
		<rect x="1100" y="-48.1" class="st3" width="100" height="268.6"/>
	</g>
</g>
<g id="bg" class="st0">
	<g class="st1">
		<g>
			<path class="st4" d="M503.3,75.2c1.8,6.7,13.2,8.9,16,1.9c1.2-3-3.6-4.3-4.8-1.3c-0.4,1-2.8,0.6-3.6,0.4
				c-1.3-0.3-2.4-0.9-2.8-2.3C507.3,70.8,502.4,72.1,503.3,75.2L503.3,75.2z"/>
		</g>
	</g>
	<g class="st1">
		<g>
			<path class="st4" d="M510.9,60.4c0.2,0.9,0.6,2,0.6,2.1c0,1-0.5,1.7-0.4,2.8c0.1,1.7,1.5,2.7,3.2,2.4c1.9-0.3,3.3-1.1,4.9-2.3
				c-1.4-0.6-2.8-1.2-4.3-1.8c0.2,5.1,3.6,8.1,6.3,11.9c1.1-1.1,2.3-2.3,3.4-3.4c-2.8-1.6-6.2-4.5-9.5-2.8c-2.4,1.3-0.8,5.5,1.9,4.6
				c1.8-0.6,2.7-1.5,3.3-3.3c0.5-1.4-0.8-3.3-2.4-3.2c-0.9,0.1-1.5,0.2-2.3,0.5c1.1,0.8,2.1,1.6,3.2,2.4c0.1-1.5-0.1-2.8-0.4-4.2
				c-0.5-2.4-4.3-2.4-4.8,0c-0.2,0.9-0.1,3-0.8,3.1c-0.9,0.1-3.2-2.1-4-2.6c-0.8,1.4-1.7,2.9-2.5,4.3c0.1,0.1,1.4,2.2,1.9,2.9
				c0.7,1,1.5,2.2,2.5,2.9c0.9,0.6,1.8,0.6,2.8,0.7c1.4,0.2,3.2,0.8,4.6,0.7c4.8-0.4,4-7.1-0.3-7.5c-1.7-0.2-2.7,1.7-2.4,3.2
				c1.1,4.9,7.7,4.6,10.1,1.1c1.5-2.2-1.4-4.6-3.4-3.4c-0.7,0.4-1.4,0.7-2.1,1c0.6,1.5,1.3,3,1.9,4.6c2.7-1.7,3.6-3.2,2.5-6.5
				c-1.2-3.6-3.7-5.7-5.7-8.7c-1.3,1-2.6,2-3.9,3c3.4,3.3,4.5,8.1,8,11.4c0.4-1.4,0.7-2.8,1.1-4.2c-0.1,0-0.2,0-0.3,0.1
				c-1.4,0.3-2,1.8-1.7,3.1c0.1,0.8,0.6,1.5,0.9,2.2c0.7-1.3,1.4-2.5,2.2-3.8c-4,0-8.4-0.5-12.1,1.1c-2.9,1.3-0.4,5.6,2.5,4.3
				c2.6-1.1,6.8-0.5,9.5-0.5c2,0,3-2.1,2.2-3.8c-0.2-0.3-0.3-0.6-0.4-1c-0.6,1-1.2,2.1-1.7,3.1c0.1,0,0.2,0,0.3-0.1
				c1.8-0.4,2.5-2.9,1.1-4.2c-3.5-3.2-4.6-8.1-8-11.4c-2-1.9-5.6,0.6-3.9,3c1.9,2.9,5.6,5.4,5.5,9.3c0.2-0.6,0.5-1.2,0.7-1.8
				c-0.4,0.3-0.8,0.5-1.2,0.8c-2.3,1.4-0.8,5.7,1.9,4.6c1.1-0.5,2.2-0.9,3.3-1.5c-1.1-1.1-2.3-2.3-3.4-3.4c-0.3,0-0.7,0.1-1,0.1
				c-0.8,1.1-1.6,2.1-2.4,3.2c0.2,0,0.4,0,0.5,0c-0.6-0.2-1.2-0.5-1.8-0.7c0-0.1-0.1-0.2-0.1-0.3c0.6-0.6,1.2-1.2,1.7-1.7
				c-0.8,0.3-2.8-0.1-3.7-0.4c-0.4-0.2-0.7-0.2-0.9,0.1c-0.5-0.5-0.9-1.1-1.3-1.6c-1.1-1.4-1.7-3.6-3.5-4.4
				c-2.9-1.2-5.4,2.8-2.5,4.3c2.6,1.4,4.9,4.2,8.1,3.3c1.3-0.4,2.5-1.3,3.2-2.4c1-1.5,0.5-2.7,0.8-4.4c-1.6,0-3.2,0-4.8,0
				c0.3,1,0.3,1.9,0.2,2.9c-0.1,1.5,1.7,3,3.2,2.4c0.3-0.1,0.6-0.2,1-0.3c-0.8-1.1-1.6-2.1-2.4-3.2c0.1,0,0.1-0.1,0.2-0.1
				c0.6,1.5,1.3,3,1.9,4.6c0,0,4,2.5,4.4,2.8c2,1.1,5-1.3,3.4-3.4c-2.1-2.9-5.5-5.6-5.7-9.4c-0.1-2.3-2.6-3.1-4.3-1.8
				c-0.8,0.6-1.7,1-2.7,1c1.1,0.8,2.1,1.6,3.2,2.4c-0.1-0.8,0.4-1.6,0.4-2.4c0-1.2-0.4-2.6-0.7-3.8C514.9,56,510.1,57.3,510.9,60.4
				L510.9,60.4z"/>
		</g>
	</g>
	<g class="st1">
		<g>
			<path class="st5" d="M501,65.8c-0.5,1.3-1.5,1.8-2.8,2c-2.3,0.4-2.2,3.5-0.6,4.6c2.6,1.8,6.3-0.7,7.8-2.8c0.6-0.8,0.4-2.4-0.4-3
				c-0.1,0-0.1-0.1-0.2-0.1c-1.5-1.2-3.5-0.8-4.2,1.1c-0.1,0.3-0.9,3.4-0.9,3.4c0.6-0.1,1.3-0.2,1.9-0.3c-0.1,0-0.2-0.1-0.3-0.1
				c0.4,1.4,0.7,2.8,1.1,4.2c0.8-0.7,1.5-1.5,2.1-2.3c0.6-0.8,1-1.9,1.6-2.6c-1.3-0.2-2.6-0.3-3.9-0.5c1.1,1.7,2.1,3.5,3.2,5.2
				c1.3,2.1,4.7,1.3,4.7-1.3c0-3.1-1.6-5.8-2.1-8.8c-0.1,0.6-0.2,1.3-0.3,1.9c-1.1,0-1.4,0.2-0.8,0.6c0.3,0.3,0.6,0.6,0.8,1
				c1.2-1.2,2.4-2.4,3.5-3.5c-0.5-0.4-1.8-1.4-1.9-2.1c-0.2,0.6-0.5,1.2-0.7,1.8c0.2-0.2,0.4-0.3,0.6-0.5c-0.8-1.4-1.7-2.9-2.5-4.3
				c-0.3,0.3-0.6,0.5-1,0.6c0.6,0.2,1.2,0.5,1.8,0.7c0.2,1.4,0.4,1.6,0.7,0.6c0.1-0.4,0.1-0.9,0.1-1.3c0.1-2.7-3.3-3.1-4.7-1.3
				c-0.5,0.6-0.9,1.3-1.3,2c1.6,0.4,3.1,0.8,4.7,1.3c0-0.6,0-1.2,0.1-1.9c0.2-2.8-4.2-3.4-4.9-0.7c-0.3,1.1-0.4,2.2-0.3,3.4
				c0,0.5,0.2,1,0.3,1.5c0.2,0.9,0.4,0.7,0.4-0.6c-2.5,2,1.1,5.5,3.5,3.5c2.3-1.9,0.3-4.2,0.8-6.5c-1.6-0.2-3.3-0.4-4.9-0.7
				c-0.1,0.6-0.1,1.2-0.1,1.9c0,2.5,3.4,3.4,4.7,1.3c0.4-0.7,0.8-1.3,1.3-2c-1.6-0.4-3.1-0.8-4.7-1.3c0,1.7-0.9,2.9,0.7,4.3
				c1.6,1.4,3.8,0.6,5.3-0.6c2.5-1.9,0.2-6.2-2.5-4.3c-1.5,1.1-2.7,2-2.2,4c0.4,1.8,1.8,3.5,3.2,4.7c2.5,2,5.6-1,3.5-3.5
				c-1.8-2.2-4.8-4.1-7.3-1.5c-2.6,2.7,1,7.3,1,10.4c1.6-0.4,3.1-0.8,4.7-1.3c-1.1-1.7-2.1-3.5-3.2-5.2c-0.8-1.3-2.8-1.7-3.9-0.5
				c-1.4,1.5-2.1,3.4-3.7,4.9c-1.4,1.3-0.7,3.7,1.1,4.2c3.8,1.1,4.6-3.9,5.5-6.5c-1.4,0.4-2.8,0.7-4.2,1.1c0.1,0,0.1,0.1,0.2,0.1
				c-0.1-1-0.3-2-0.4-3c-0.4,0.2-0.8,0.4-1.2,0.7c-0.6,0.3-0.5,0.4,0.2,0.3c-0.2,1.5-0.4,3-0.6,4.6c3.1-0.5,5.3-2.6,6.3-5.5
				C507,64.1,502.1,62.8,501,65.8L501,65.8z"/>
		</g>
	</g>
	<g class="st1">
		<g>
			<path class="st5" d="M497.7,65.1c0.5,0.4,1.1,0.8,1.7,1.1c0.6,0.3,1.2,0.4,1.9,0.3c0.6-0.2,1.2-0.6,1.5-1.1
				c0.6-1.1,0.4-2.8-0.9-3.4c-0.2-0.1-0.4-0.2-0.6-0.3c-0.1-0.1-0.7-0.5-0.1-0.1c-0.5-0.4-1-0.7-1.8-0.7c-0.6,0-1.3,0.3-1.8,0.7
				C496.9,62.5,496.6,64.3,497.7,65.1L497.7,65.1z"/>
		</g>
	</g>
	<g class="st1">
		<g>
			<path class="st5" d="M608.8,34.9c0.3,2.4,0.6,4.8,1.1,7.1c0.4,2.1,3.6,2.5,4.6,0.6c0.8-1.5,1.4-3,1.9-4.6
				c-1.6-0.4-3.2-0.9-4.8-1.3c-0.4,1.8-0.4,3.4,0.3,5.2c0.8,2,3.3,2.5,4.6,0.6c1.3-1.9,1.1-4.6,1-6.7c-0.1-2.7-4.4-3.5-4.9-0.7
				c-0.5,2.7-0.8,5.1,0.2,7.7c0.7,1.9,3.5,2.7,4.6,0.6c1-1.9,1.3-4.4,2.8-6c-1.4-0.4-2.8-0.7-4.2-1.1c0.4,2.1,1.5,3.9,3.8,4.2
				c2.5,0.3,4-1.9,5.3-3.8c-1.5-0.6-3-1.3-4.6-1.9c-0.2,1.1-0.4,2-0.8,3c1.6,0,3.2,0,4.8,0c-0.2-1,0-2,0.4-3c-1.5,0.2-3,0.4-4.6,0.6
				c0.9,2.1,1.8,5.4,4.7,5.4c2.7,0,3.5-3.1,3.9-5.2c-1.4,0.4-2.8,0.7-4.2,1.1c0.6,0.8,0.9,1.2,1.7,1.7c0.9,0.7,2.2,0.3,3-0.4
				c1.4-1.1,2-3.4,2.5-5.1c-1.6,0-3.2,0-4.8,0c0.4,1.3,0.8,2.7,1.2,4c0.8,2.6,5.1,2.2,4.9-0.7c-0.1-1.1-0.2-2.2-0.3-3.4
				c-0.3-3.3-4.6-3.2-5,0c-0.2,1.4-0.1,1.9,0.1,3.3c1.2-0.9,2.4-1.9,3.7-2.8c-0.3-0.2-0.6-0.3-0.9-0.5c-2.8-1.5-5.3,2.8-2.5,4.3
				c0.3,0.2,0.6,0.3,0.9,0.5c2.1,1.1,4-0.7,3.7-2.8c0-0.7,0-1.3,0-2c-1.7,0-3.3,0-5,0c0.1,1.1,0.2,2.2,0.3,3.4
				c1.6-0.2,3.3-0.4,4.9-0.7c-0.4-1.3-0.8-2.7-1.2-4c-0.7-2.4-4.1-2.3-4.8,0c-0.2,1-0.6,2-1.2,2.9c1-0.1,2-0.3,3-0.4
				c-0.2-0.3-0.4-0.6-0.6-0.9c-1.1-1.4-3.9-0.6-4.2,1.1c-0.1,0.6-0.2,1.3-0.3,1.9c0.8,0,1.7,0,2.5,0c-0.8-0.3-1.3-2.5-1.6-3.3
				c-0.9-2.2-3.9-1.2-4.6,0.6c-0.7,1.9-0.7,3.6-0.4,5.6c0.4,2.7,4,2,4.8,0c0.4-1,0.7-1.9,0.8-3c0.5-2.7-3-4.4-4.6-1.9
				c0,0.3,0.1,0.6,0.1,0.8c-0.4-1.9-2.9-2.4-4.2-1.1c-2,2-2.3,4.5-3.6,7c1.5,0.2,3,0.4,4.6,0.6c-0.7-1.8-0.5-3.2-0.2-5.1
				c-1.6-0.2-3.3-0.4-4.9-0.7c0,1,0.3,3.3-0.3,4.2c1.5,0.2,3,0.4,4.6,0.6c-0.5-0.8-0.6-1.6-0.3-2.5c0.7-3.1-3.9-4.4-4.8-1.3
				c-0.4,1.2-0.8,2.3-1.4,3.4c1.5,0.2,3,0.4,4.6,0.6c-0.4-1.9-0.7-3.8-1-5.8C613.4,31.7,608.4,31.7,608.8,34.9L608.8,34.9z"/>
		</g>
	</g>
	<g class="st1">
		<g>
			<path class="st5" d="M610.2,30.8c0.9,1.8,2.2,4.2,4.2,5c2.1,0.8,3.7-1,4.9-2.5c-1.4-0.4-2.8-0.7-4.2-1.1c0.3,0.9,0.6,1.5,1.2,2.2
				c0.6,0.7,1.6,0.8,2.4,0.6c2.2-0.4,3.1-3.5,3-5.4c-0.2-2.9-3.9-3.3-4.9-0.7c-1.9,5,5.6,6.6,7.5,2.1c-1.5-0.2-3-0.4-4.6-0.6
				c0.2,1,0.6,1.5,1.3,2.3c1.1,1.3,3.1,0.7,3.9-0.5c0.5-0.7,0.8-1.5,1-2.3c-1.6-0.2-3.3-0.4-4.9-0.7c-0.1,1.4,0.1,2.8,0.5,4.2
				c0.9,3.1,5.7,1.8,4.8-1.3c-0.3-1-0.4-1.9-0.3-2.9c0.2-2.8-4.3-3.4-4.9-0.7c0,0.4-0.2,0.8-0.5,1.1c1.3-0.2,2.6-0.3,3.9-0.5
				c0,0,0-0.1,0-0.1c-0.5-1.9-3.7-2.6-4.6-0.6c-0.6,0.9-0.1,1.5,1.6,1.7c-1.6-0.2-3.3-0.4-4.9-0.7c0.1,1.3-0.5,0.7,0.7,0.6
				c0.8,0.2,1.6,0.4,2.4,0.6c0,0,0.1,0,0.1,0c-0.6-1.6-2.9-2.7-4.2-1.1c-0.3,0.4-0.6,0.8-1,1.1c-0.7,0.6-0.7,0.7-0.1,0.2
				c0.6,0.1,1.3,0.2,1.9,0.3c-1-0.6-1.6-2-2.1-3C613.2,25.3,608.8,27.9,610.2,30.8L610.2,30.8z"/>
		</g>
	</g>
	<g class="st1">
		<g>
			<path class="st6" d="M619.6,46.8c1.4,2.2,2.9,4.3,4.5,6.4c0.6,0.8,2,0.6,2.7,0c0.8-0.8,0.6-1.9,0-2.7c-1.4-1.8-2.7-3.7-3.9-5.6
				C621.6,42.9,618.4,44.8,619.6,46.8L619.6,46.8z"/>
		</g>
	</g>
	<g class="st1">
		<g>
			<path class="st6" d="M627.8,51.3c-0.2-2.3-0.3-4.6-0.5-6.9c-0.1-1.8-0.4-3.4-2.1-4.3c-0.7-0.4-1.7-0.3-2.3,0.3
				c-0.1,0.1-0.1,0.2-0.2,0.2c-1.5,1.8,1.1,4.5,2.7,2.7c0.1-0.1,0.1-0.2,0.2-0.2c-0.8,0.1-1.5,0.2-2.3,0.3c0.6,0.3,0.4,3.4,0.5,4
				c0.1,1.3,0.2,2.7,0.3,4C624.2,53.7,627.9,53.7,627.8,51.3L627.8,51.3z"/>
		</g>
	</g>
	<g class="st1">
		<g>
			<path class="st6" d="M621,43.5c0.3,0.9,0.5,1.8,0.7,2.7c0.2,1,1.4,1.6,2.3,1.3c1-0.3,1.5-1.3,1.3-2.3c-0.2-0.9-0.4-1.8-0.7-2.7
				c-0.3-0.9-1.3-1.6-2.3-1.3C621.4,41.5,620.7,42.5,621,43.5L621,43.5z"/>
		</g>
	</g>
	<g class="st1">
		<g>
			<path class="st6" d="M627.5,47.3c0.4-0.9,0.8-1.9,1.2-2.8c0.2-0.5,0.5-1.8,0.9-2.1c2-1.3,0.1-4.6-1.9-3.2c-1.1,0.7-1.5,1.7-2,2.8
				c-0.4,1.1-0.9,2.3-1.4,3.4c-0.4,0.9-0.3,2,0.7,2.6C625.7,48.4,627.1,48.2,627.5,47.3L627.5,47.3z"/>
		</g>
	</g>
	<g class="st1">
		<g>
			<path class="st6" d="M623.9,45.8c-0.5-0.6-1.2-1-1.9-1.4c-0.2-0.1-0.6-0.3-0.8-0.4c-0.2-0.2-0.3-0.2-0.4-0.6
				c-0.4-0.9-1.8-1.1-2.6-0.7c-1,0.6-1.1,1.6-0.7,2.6c0.4,0.9,1.2,1.6,2,2c0.7,0.4,1.2,0.6,1.7,1.1c0.6,0.8,2,0.7,2.7,0
				C624.6,47.7,624.5,46.6,623.9,45.8L623.9,45.8z"/>
		</g>
	</g>
	<g class="st1">
		<g>
			<path class="st7" d="M690.9,21.4c-0.9,2.6-0.8,5.5,0.6,7.9c1,1.7,3.1,4.2,5.3,3.8c1.9-0.3,2.7-2.3,2.2-4
				c-0.5-1.5-1.8-2.4-2.9-3.3c-1.8-1.5-3.5-3.1-4.8-5c-1.4-1.9-4.4-0.3-3.2,1.9c1.2,2.2,2.5,4.1,4.1,6.1c0.7,0.9,2.4,0.6,2.9-0.4
				c1.2-2.3,1.4-4.4,0.7-6.9c-0.6-2.1-3.5-1.6-3.7,0.5c-0.3,4.8,3.8,8.8,7.3,11.6c1.2,1,3.2,0.4,3.2-1.3c0-1.1,0-1.3-0.4-2.4
				c-0.7-1.8-3.9-1.8-3.7,0.5c0.3,3,2.7,6.6,6,7c2.4,0.3,4.1-2.5,2.2-4.2c-1.8-1.6-4.3,0.9-2.7,2.7c0.7,0.8,1.5,1.6,2.2,2.4
				c1.5,1.6,4-0.4,2.9-2.3c-1.7-2.9-4.2-5-7-6.8c-1.7-1.2-3.6-2.2-5.1-3.6c-1.8-1.7-2.2-3.3-3.3-5.3c-2.3-4.1-8.8,0.2-5.9,4.1
				c1.4,1.9,4.7,0.1,3.2-1.9c-1.2-1.7-0.3,0.6-0.2,1c0.4,0.8,0.8,1.6,1.4,2.4c1,1.3,2.1,2.4,3.4,3.4c3.6,2.8,7.9,4.6,10.3,8.7
				c1-0.8,2-1.5,2.9-2.3c-0.7-0.8-1.5-1.6-2.2-2.4c-0.9,0.9-1.8,1.8-2.7,2.7c1.2-1.3,1.3-2.2,0.1-2.8c-1-0.6-1.6-1.5-1.9-2.7
				c-1.2,0.2-2.5,0.3-3.7,0.5c0.1,0.5,0.2,0.9,0.3,1.4c1.1-0.4,2.1-0.9,3.2-1.3c-2.7-2.1-6.5-5.2-6.2-8.9c-1.2,0.2-2.5,0.3-3.7,0.5
				c0.6,1.3,0.5,2.7-0.3,4c1-0.1,2-0.3,2.9-0.4c-1.3-1.7-2.5-3.4-3.5-5.3c-1.1,0.6-2.2,1.3-3.2,1.9c1.6,2.2,3.4,4,5.4,5.7
				c0.4,0.4,0.9,0.7,1.3,1.1c1.1-0.7,1.1-1.4,0-2.2c-0.3-2-1-3-0.2-5C695.4,20.2,691.7,19.2,690.9,21.4L690.9,21.4z"/>
		</g>
	</g>
	<g class="st1">
		<g>
			<path class="st7" d="M693.3,19.1c0.9,3.3,2.7,5.6,5.5,7.5c1.3,0.9,3.3-0.6,2.8-2.1c-0.8-2.2-1.5-4.3-2.3-6.5
				c-0.8-2.3-4-1.4-3.6,1c0.6,3.6,2.2,6.6,4.6,9.3c0.9,1,2.9,0.6,3.1-0.8c0.5-2.6-0.6-5.3-1.3-7.7c-0.6-2.2-1-4.4-3.1-5.6
				c-1.4-0.7-3.3,0.5-2.8,2.1c1,2.8,2.6,6.8,5.5,8.1c0.8,0.4,1.6,0.3,2.3-0.3c2-1.9,0.6-5.9,0.1-8.1c-0.6-2.4-4-1.3-3.6,1
				c0.6,3.5,1.9,6.6,3.8,9.6c1.2,1.9,3.8,0.6,3.4-1.4c-0.5-3.2-1.5-6.1-2.9-8.9c-1-2-3.8-0.5-3.4,1.4c0.7,3.5,3.4,6.4,5.3,9.2
				c1.4,2,4.3,0.3,3.2-1.9c-1.5-3.2-3-6.4-4.5-9.6c-1.1,0.6-2.2,1.3-3.2,1.9c2.1,3.9,4.6,7.5,7.4,10.9c1.3,1.6,3.5-0.2,3.1-1.8
				c-0.2-0.9-0.4-1.3-0.8-2.1c-0.8-1.6-3.6-0.9-3.5,0.9c0.2,2.2,0.6,4.2,1.5,6.3c1.1-0.5,2.3-1,3.4-1.4c-0.6-1.2-1.3-2.3-2.1-3.3
				c-0.8-1-2.5-1.4-3.2,0c-0.8,1.6-1,2.7-0.7,4.5c1.2-0.3,2.4-0.7,3.6-1c-0.7-1.8-1.6-3.3-2.8-4.8c-0.9-1.2-2.8-0.4-3.1,0.8
				c-0.8,2.5-0.4,4.9,1.1,7c1.2,1.7,3.9,0.7,3.4-1.4c-0.6-3-2-5.5-4.2-7.7c-1-1-2.7-0.5-3.1,0.8c-0.9,3.2,1,6.6,2.9,9.1
				c1,1.3,3.7,1.1,3.5-0.9c-0.3-2.2-0.8-4.1-1.7-6.1c-1,0.8-2,1.5-2.9,2.3c1.8,2.2,3.6,4.2,5.7,6.1c1.2,1,3.2,0.4,3.2-1.3
				c0-1.3-0.1-1.7-0.8-2.8c-0.6-0.8-1.6-1.2-2.6-0.7c-0.2,0.1-0.4,0.2-0.5,0.3c0.8,0.1,1.5,0.2,2.3,0.3c-2.4-2.4-4.4-5-6.3-7.8
				c-1.4-2.2-4.7-5.7-3.6-8.4c-1.1,0.1-2.3,0.3-3.4,0.4c0.3,0.4,0.6,0.8,0.9,1.2c0.7,1,2,1.3,2.9,0.4c0.2-0.2,0.3-0.3,0.5-0.5
				c-0.9,0-1.8,0-2.7,0c0.2,0.3,0.3,0.5,0.5,0.8c0.9,2.2,4.5,1.2,3.6-1c-0.4-1-0.8-1.6-1.5-2.5c-0.7-0.8-2-0.7-2.7,0
				c-0.2,0.2-0.3,0.3-0.5,0.5c1,0.1,2,0.3,2.9,0.4c-0.3-0.4-0.6-0.8-0.9-1.2c-1-1.4-2.8-1.1-3.4,0.4c-1.3,3.4,0.8,6.3,2.6,9.1
				c2.4,3.9,5.1,7.5,8.3,10.8c0.6,0.6,1.6,0.7,2.3,0.3c0.2-0.1,0.4-0.2,0.5-0.3c-0.9-0.2-1.7-0.4-2.6-0.7c0.1,0.3,0.2,0.6,0.3,0.9
				c1.1-0.4,2.1-0.9,3.2-1.3c-2.2-1.8-4-3.9-5.7-6.1c-1.4-1.8-3.8,0.5-2.9,2.3c0.7,1.3,1.1,2.7,1.2,4.2c1.2-0.3,2.3-0.6,3.5-0.9
				c-1.1-1.5-3.1-4.1-2.5-6.2c-1,0.3-2.1,0.6-3.1,0.8c1.8,1.7,2.8,3.6,3.3,6c1.1-0.5,2.3-1,3.4-1.4c-1-1.3-1.2-2.6-0.8-4.2
				c-1,0.3-2.1,0.6-3.1,0.8c0.8,0.9,1.4,2,1.9,3.1c0.9,2.2,4,1.4,3.6-1c0.1-0.5,0.2-1.1,0.3-1.6c-1.1,0-2.2,0-3.2,0
				c0.8,1.1,1.5,2.1,2.1,3.3c1,1.8,4.3,0.5,3.4-1.4c-0.7-1.8-1.2-3.4-1.4-5.3c-1.2,0.3-2.3,0.6-3.5,0.9c0.1,0.4,0.3,0.8,0.4,1.2
				c1-0.6,2.1-1.2,3.1-1.8c-2.6-3.2-4.9-6.6-6.8-10.2c-1.2-2.1-4.3-0.3-3.2,1.9c1.5,3.2,3,6.4,4.5,9.6c1.1-0.6,2.2-1.3,3.2-1.9
				c-1.7-2.5-4.4-5.3-4.9-8.3c-1.1,0.5-2.3,1-3.4,1.4c1.3,2.6,2.1,5.2,2.5,8c1.1-0.5,2.3-1,3.4-1.4c-1.7-2.7-2.8-5.5-3.4-8.7
				c-1.2,0.3-2.4,0.7-3.6,1c0.1,0.4,1.2,4.2,0.9,4.5c0.8-0.1,1.5-0.2,2.3-0.3c-1.9-0.9-3.1-4-3.8-5.9c-0.9,0.7-1.8,1.4-2.8,2.1
				c1.4,0.8,3,7.5,2.7,9c1-0.3,2.1-0.6,3.1-0.8c-2.1-2.2-3.2-4.6-3.7-7.6c-1.2,0.3-2.4,0.7-3.6,1c0.8,2.2,1.5,4.3,2.3,6.5
				c0.9-0.7,1.8-1.4,2.8-2.1c-2-1.3-3.1-3-3.8-5.3C696.2,15.8,692.6,16.8,693.3,19.1L693.3,19.1z"/>
		</g>
	</g>
	<g class="st1">
		<g>
			<path class="st7" d="M699.3,11.7c0.1,1.3,0.3,1.8,1.1,2.8c0.8,1,2.9,0.5,3.1-0.8c0-1,0.3-1.9,0.9-2.6c-1.1,0-2.2,0-3.2,0
				c1.1,1.9,2.4,3.5,4.2,4.9c1.1,0.9,2.7,0.6,3.1-0.8c0.4-1.5,0.4-2.6,0-4.1c-0.6-2.1-3.5-1.5-3.7,0.5c-0.2,2.1,0.2,3.7,1.2,5.6
				c0.7,1.3,2.5,1.2,3.2,0c0.6-0.9,0.9-1.8,1.2-2.9c-1.2,0-2.4,0-3.6,0c0.3,1.5,0.9,2.9,1.6,4.3c0.6,1.2,2.1,1.1,2.9,0.4
				c0.6-0.5,0.9-1.1,0.8-1.9c-0.2-1.9-3.3-2.7-3.7-0.5c-0.4,2.4-0.2,4.4,0.8,6.7c0.8,1.7,3.6,0.8,3.5-0.9c0.1-0.6,0.1-1.2,0.2-1.9
				c-1.2-0.2-2.5-0.3-3.7-0.5c-0.3,3,2.2,6.4,3.6,8.9c0.1-0.8,0.2-1.5,0.3-2.3c-0.2,0.1-0.3,0.3-0.5,0.4c1,0.3,2.1,0.6,3.1,0.8
				c-0.7-3-4.2-15.4-9.1-10.8c-1.1,1-0.4,2.7,0.8,3.1c0.2,0.1,0.4,0.1,0.5,0.2c0.9,0.3,2.2-0.4,2.3-1.3c0.6-3.9-2.8-7.8-5-10.7
				c-1.5-1.9-4.1,0.8-2.7,2.7c1,1.3,4.3,5.2,4,7c0.8-0.4,1.5-0.9,2.3-1.3c-0.2-0.1-0.4-0.1-0.5-0.2c0.3,1,0.6,2.1,0.8,3.1
				c-0.7,0.7,2.6,7.8,2.9,9.1c0.3,1.5,2.1,1.7,3.1,0.8c0.2-0.1,0.3-0.3,0.5-0.4c0.6-0.6,0.7-1.6,0.3-2.3c-0.9-1.7-3.3-5-3.1-7
				c0.2-2.1-3.2-2.5-3.7-0.5c-0.3,1.3-0.4,1.5-0.3,2.8c1.2-0.3,2.3-0.6,3.5-0.9c-0.6-1.2-0.8-2.5-0.4-3.8c-1.2-0.2-2.5-0.3-3.7-0.5
				c0.1-0.2,0.2-0.5,0.3-0.7c1,0.1,2,0.3,2.9,0.4c-0.6-1.1-1-2.2-1.2-3.4c-0.4-1.8-3.2-1.8-3.6,0c-0.1,0.7-0.3,1.4-0.8,2
				c1.1,0,2.2,0,3.2,0c-0.7-1.2-0.9-2.4-0.6-3.7c-1.2,0.2-2.5,0.3-3.7,0.5c0,0.7,0,1.4,0,2.1c1-0.3,2.1-0.6,3.1-0.8
				c-1.5-1.2-2.6-2.5-3.6-4.1c-0.7-1.2-2.5-1.2-3.2,0c-0.7,1.2-1.1,2.2-1.3,3.5c1-0.3,2.1-0.6,3.1-0.8c0,0,0-0.1,0-0.1
				C702.8,9.3,699.1,9.3,699.3,11.7L699.3,11.7z"/>
		</g>
	</g>
	<g class="st1">
		<g>
			<path class="st8" d="M792.2,34.3c-0.8,0.7-1.8,1.6-2.1,2.7c-0.4,1.5,0.4,3,1.9,3.5c1.3,0.4,3.1,0.2,3.7-1.2
				c0.5-1.2,0.1-2.7-0.5-3.8c-0.5-0.9-1.7-1.2-2.6-0.7c-0.9,0.5-1.1,1.7-0.7,2.6c0.1,0.2,0.1,0.2,0.1,0.1c0,0.1,0.1,0.3,0.1,0.4
				c0-0.2,0-0.1,0,0.1c0,0.4,0,0.3,0.2-0.3c0.2-0.2,0.4-0.4,0.7-0.7c0.2,0,0.3-0.1,0.5-0.1c-0.1,0-0.2,0-0.2,0c-0.1,0-0.2,0-0.2,0
				c0,0,0.1,0,0.1,0c0.1,0.1,0.3,0.2,0.4,0.2c0.1,0.2,0.2,0.5,0.3,0.7c0,0.1-0.1,0.3-0.1,0.3c-0.1,0.1,0,0.1,0,0
				c0,0,0.1-0.1,0.1-0.1c0.1-0.1,0.2-0.2,0.3-0.3c0.2-0.2,0.5-0.5,0.7-0.7c0.7-0.7,0.7-2,0-2.7C794.1,33.6,792.9,33.6,792.2,34.3
				L792.2,34.3z"/>
		</g>
	</g>
	<g class="st1">
		<g>
			<path class="st5" d="M784.1,38.6c0.1,0.1,0.2,0.2,0.3,0.4c0.4,0.5,1.2,0.6,1.8,0.5c2-0.4,1.5-1.7,2.4-3.1
				c-0.5,0.3-1.1,0.6-1.6,0.9c0.8-0.1,1.8,0.5,2.7,0.5c1.3-0.1,2-1.2,1.8-2.4c-0.2-1.8-0.4-3.5-0.5-5.2c-0.1-1.7-2.6-2.8-3.5-0.9
				c-0.2,0.3-0.3,0.7-0.5,1c1.1,0.1,2.3,0.3,3.4,0.4c-0.1-0.2-0.1-0.4-0.2-0.5c-0.8,0.8-1.5,1.5-2.3,2.3c2.9,0.5,5.3,1.9,7.9-0.1
				c-0.9-0.9-1.7-1.7-2.6-2.6c-0.4,0.3-0.8,0.6-1.2,0.9c-1.4,0.8-1.1,3.1,0.4,3.4c0.3,0.1,3.9,0.7,3.5,1.4c-0.7,1.5,0.9,3.8,2.6,2.6
				c0.6-0.4,1.1-0.8,1.7-1.3c-0.9-0.9-1.7-1.7-2.6-2.6c-1.6,2.4-3.9,5.3-2.5,8.3c0.1-0.8,0.2-1.5,0.3-2.3c-0.3,0.2-0.7,0.4-1,0.6
				c-1.6,1-0.9,3.4,0.9,3.5c2.1,0.1,4.8,0.7,6.4-0.9c0.4-0.4,0.7-1.2,0.5-1.8c-0.6-1.5-1.4-1.3-2.2-2.3c0.2,0.6,0.3,1.2,0.5,1.8
				c0.3-1,0.7-1.9,1.3-2.7c-1.1,0-2.2,0-3.2,0c1.9,2.9,4.5,4.6,6.8,0.8c1.1-1.8-1.6-4-2.9-2.3c-0.7,0.9-1.7,2-1.9,3.2
				c-0.2,1,0.2,2,1.3,2.3c1.2,0.3,3-0.1,3.8-1.3c2.7-4.3-7.2-2.1-8.3-1.6c-2.3,0.8-1.3,4.4,1,3.6c2-0.7,3.9-0.7,5.9-1
				c0.7-0.1,1.2-0.1,1.9-0.4c0.8-0.5,1.6-1.4,1.5-2.5c-0.1-0.9-0.7-1.8-1.6-2c-1.4-0.4-2.7,1.8-3.2,1.7c0.4,0.8,0.9,1.5,1.3,2.3
				c0.3-0.5,0.6-1,1-1.5c-1-0.8-2-1.5-2.9-2.3c0.4-0.1,0.3-0.4-0.3-0.8c-0.7-1.2-2.5-1.2-3.2,0c-0.7,1.2-2.1,3-1.6,4.6
				c0.2,0.8,1.8,1.7,1.7,1.5c0.2-0.6,0.3-1.2,0.5-1.8c0.8-0.2,0.4-0.3-1-0.1c-0.9,0-1.8-0.1-2.7-0.1c0.3,1.2,0.6,2.3,0.9,3.5
				c0.7-0.4,1.2-0.7,1.8-1.2c0.6-0.7,0.7-1.5,0.3-2.3c-0.4-0.8,2.1-3.9,2.5-4.5c1-1.5-1.1-3.7-2.6-2.6c-0.6,0.4-1.1,0.8-1.7,1.3
				c0.9,0.9,1.7,1.7,2.6,2.6c2.4-4.7-1.9-6-5.7-7c0.1,1.1,0.3,2.3,0.4,3.4c1.3-0.7,1.6-1.1,2.5-2.2c1.1-1.5-1.1-3.6-2.6-2.6
				c-1.3,0.9-3.6-0.1-5.1-0.3c-1.3-0.2-2.8,0.8-2.3,2.3c0.1,0.2,0.1,0.4,0.2,0.5c0.5,1.4,2.7,2,3.4,0.4c0.2-0.3,0.3-0.7,0.5-1
				c-1.2-0.3-2.3-0.6-3.5-0.9c0.1,2.1,0.3,4.2,0.6,6.2c0.6-0.8,1.2-1.6,1.8-2.4c-1.3,0.1-2.3-1.1-3.6-0.3c-0.4,0.3-0.7,0.7-1,1.1
				c-0.2,0.3-0.3,0.7-0.3,1c-0.2,0.7,0,0.7,0.4-0.1c0.6,0.2,1.2,0.3,1.8,0.5c-0.1-0.1-0.2-0.2-0.3-0.4
				C785.2,34.1,782.6,36.7,784.1,38.6L784.1,38.6z"/>
		</g>
	</g>
	<g class="st1">
		<g>
			<path class="st5" d="M786,40.9c0.7,0.6,1.7,1.4,2.6,1.6c0.5,0.1,2.4,0,2.3-0.9c0,0.6-2.6-0.1-0.6,0.9c0.6,0.3,1.1,0.4,1.7,0.6
				c1.3,0.4,2.7,0.7,4,1c2.4,0.5,3.4-3.1,1-3.6c-2-0.5-4-1-5.9-1.8c-1.4-0.6-2.7-0.3-3.5,1c0.4-0.3,0.7-0.6,1.1-0.9
				c1.2-0.2-0.4-0.8-0.9-1.2C785.9,36.2,784.1,39.5,786,40.9L786,40.9z"/>
		</g>
	</g>
	<g class="st1">
		<g>
			<path class="st8" d="M771.1,30.6c-0.4,1.4-0.2,2.8,0.5,4.1c0.8,1.5,2.9,1,3.4-0.4c0.3-0.9,0.6-1.8,1-2.7c-1.2,0-2.4,0-3.6,0
				c0.4,1.1,0.7,2.6,1.7,3.4c0.6,0.5,1.5,0.6,2.2,0.2c0.6-0.4,1-1.1,1.5-1.6c-1.1-0.1-2.3-0.3-3.4-0.4c0.6,1.5,0.4,3.1,2.1,3.8
				c1,0.4,2-0.4,2.3-1.3c0.5-1.5,0.8-2.9-0.7-3.9c-0.8-0.6-2.1-0.2-2.6,0.7c-0.5,0.9-0.2,2,0.7,2.6c0.1,0,0.1,0.1,0.2,0.1
				c-0.3-0.4-0.6-0.7-0.9-1.1c-0.1-0.3,0-0.5-0.1,0c-0.1,0.2-0.1,0.4-0.2,0.7c0.8-0.4,1.5-0.9,2.3-1.3c0,0-0.1,0-0.1-0.1
				c0.4,0.3,0.7,0.6,1.1,0.9c0.1,0.3,0.1,0.2,0-0.1c0-0.2-0.1-0.4-0.1-0.6c-0.1-0.4-0.2-0.8-0.4-1.2c-0.6-1.6-2.4-1.8-3.4-0.4
				c-0.2,0.2-0.3,0.4-0.5,0.6c0.6-0.2,1.2-0.3,1.8-0.5c0,0-0.1,0-0.1,0c0.3,0.2,0.6,0.3,0.8,0.5c0.5,0.5,0-0.3-0.1-0.5
				c-0.1-0.4-0.3-0.7-0.4-1.1c-0.7-1.8-3-1.8-3.6,0c-0.3,0.9-0.6,1.8-1,2.7c1.1-0.1,2.3-0.3,3.4-0.4c-0.2-0.4-0.3-0.8-0.1-1.3
				C775.4,29.2,771.8,28.2,771.1,30.6L771.1,30.6z"/>
		</g>
	</g>
	<g class="st1">
		<g>
			<path class="st8" d="M775.5,32C775.7,32.1,775.7,32.1,775.5,32c-0.1-0.1-0.2-0.2-0.2-0.3c-0.1-0.2-0.1-0.4-0.2-0.6
				c0.1-0.3,0.1-0.3,0-0.1c-0.3,0.9,0.4,2.1,1.3,2.3c1.1,0.2,1.9-0.3,2.3-1.3c0.4-1.2-0.2-2.7-1.3-3.2c-0.9-0.4-2.1-0.3-2.6,0.7
				C774.4,30.3,774.6,31.6,775.5,32L775.5,32z"/>
		</g>
	</g>
	<g class="st1">
		<g>
			<path class="st7" d="M777.9,36.8c0.2,0.5,0.5,1,0.7,1.4c0.7,1.4,3.1,1.1,3.4-0.4c0.2-0.9,0.2-1.6,0-2.5c-1,0.6-2.1,1.2-3.1,1.8
				c0.2,0.2,0.5,0.4,0.7,0.6c0.9,0.8,2.3,0.7,2.9-0.4c0.6-1.1,0.5-2.2,0.6-3.4c-1.2,0.3-2.3,0.6-3.5,0.9c0.2,0.4,0.5,0.9,0.7,1.3
				c0.8,1.6,3.7,0.9,3.5-0.9c-0.1-1-0.2-2.2-0.8-3c-0.8-1-2.3-1-3.3-0.1c-0.7,0.7-0.9,1.7-0.7,2.7c0.1,0.4,0.2,0.8,0.4,1.2
				c0,0.1,0.2,0.7,0.2,0.7c-0.2,1,0.3,2,1.3,2.3c0.9,0.3,2.1-0.3,2.3-1.3c0.2-0.8,0.1-1.5-0.1-2.3c-0.1-0.3-0.2-0.6-0.3-0.9
				c-0.1-0.2-0.1-0.3-0.1-0.5c-0.1,0.4-0.4,0.8-0.8,1.1c-0.3,0-0.7,0-1,0c0,0,0.1,0,0.1,0c-0.4-0.3-0.7-0.6-1.1-0.9
				c-0.1-0.2,0.1,0.3,0.1,0.4c0,0.2,0.1,0.3,0.1,0.5c1.2-0.3,2.3-0.6,3.5-0.9c-0.2-0.4-0.5-0.9-0.7-1.3c-0.4-0.7-1.3-1.1-2.1-0.9
				c-0.9,0.2-1.3,1-1.4,1.8c0,0.3,0,0.7-0.1,1c0,0.3,0,0.4,0,0.4c1-0.1,2-0.3,2.9-0.4c-0.2-0.2-0.5-0.4-0.7-0.6
				c-1.4-1.3-3.5,0-3.1,1.8c0,0.1,0,0.4,0,0.5c1.1-0.1,2.3-0.3,3.4-0.4c-0.2-0.5-0.5-1-0.7-1.4c-0.5-0.9-1.7-1.2-2.6-0.7
				C777.7,34.8,777.5,35.9,777.9,36.8L777.9,36.8z"/>
		</g>
	</g>
	<g class="st1">
		<g>
			<path class="st9" d="M774.3,29.6c0.9,0.3,1.7,0.2,2.6,0.1c1-0.2,1.6-1.4,1.3-2.3c-0.3-1-1.3-1.5-2.3-1.3c0.4-0.1-0.3,0-0.3,0
				c-0.1,0-0.1,0,0,0c-0.1,0-0.2-0.1-0.4-0.1c-0.9-0.3-2.1,0.3-2.3,1.3C772.8,28.3,773.3,29.3,774.3,29.6L774.3,29.6z"/>
		</g>
	</g>
	<g class="st1">
		<g>
			<path class="st9" d="M777.3,30.1c0.4,0.9,0.7,1.7,1.4,2.5c0.4,0.5,1.2,0.7,1.8,0.5c1.1-0.3,1.7-1.1,2-2.1
				c-0.9,0.4-1.8,0.7-2.8,1.1c1.1,0.7,2.1,0.6,3.2,0.1c-0.5,0.1-1,0.1-1.4,0.2c-0.3-0.3-0.3-0.3-0.2-0.1c0.1,0.1,0.2,0.3,0.3,0.3
				c0.3,0.3,0.6,0.4,1.1,0.5c0.9,0.2,1.5-0.1,2.1-0.7c-1-0.1-2-0.3-2.9-0.4c0.3,0.5,0.7,1,1.2,1.3c0.3,0.1,0.6,0.2,0.9,0.3
				c0.9,0.2,0.7,0-0.6-0.5c0,0,0.3,1.9,0.4,1.2c-0.1,0.6-0.9,1.4-1.2,1.9c-1.4,2,1.9,3.9,3.2,1.9c1.2-1.7,2-2.9,1.4-5
				c-0.2-0.7-0.3-1.5-0.7-2.1c-0.2-0.4-0.5-0.6-0.9-0.8c-0.1-0.1-0.3-0.1-0.4-0.2c-0.6-0.1-0.7-0.1-0.1,0.1c-0.6-1.1-2-1.2-2.9-0.4
				c-0.1,0.1-0.1,0.1-0.2,0.2c0.4-0.2,0.9-0.4,1.3-0.5c-0.1,0-0.2,0-0.3,0c0.4,0.2,0.9,0.4,1.3,0.5c-0.5-0.5-0.8-0.9-1.5-1.2
				c-0.2-0.1-0.6-0.1-0.8-0.1c-0.3,0-0.5,0-0.7,0.2c-0.4,0.1-0.3,0.2,0.3,0c-1-0.7-2.4,0-2.8,1.1c0.2-0.2,0.4-0.3,0.6-0.5
				c0.6,0.2,1.2,0.3,1.8,0.5c-0.3-0.4-0.6-1.2-0.8-1.7C779.5,26.1,776.3,28,777.3,30.1L777.3,30.1z"/>
		</g>
	</g>
	<g class="st1">
		<g>
			<path class="st8" d="M856.7,71.8c-0.1,3.3,0.2,6.4,1.1,9.6c2.4-1.9,4.9-3.8,7.3-5.6c-2.6-2-4.9-4.2-7.2-6.5c0.3,2,0.5,4,0.8,6.1
				c0.7-1,3.8-2.8,5-4.4c2.4-3.2-0.9-7.4-4.3-7.5c-9.6-0.2-18.9,8.4-13.1,18.1c5.5,9.1,13,12.2,23.3,13.1c4.5,0.4,7.5,0,10.8-3.3
				c3.5-3.5,4.6-7.6,3.3-12.4c-1.2-4.1-3.6-8.2-7.9-9.6c-4-1.3-8.3-3.3-12.3-1.6c-2.1,0.9-2.7,3.6-2.3,5.6
				c1.3,6.9,10.9,5.5,15.8,4.7c3.5-0.6,5.1-6.1,2.2-8.4c-2.4-1.8-4.2-3.1-7.2-3.5c-2.5-0.4-6.2,0.3-8.6-0.4c-3.6-1-7.3,2.5-6.2,6.2
				c1.1,3.6,3.1,6.6,4.7,10c1.3,2.8,1.8,5.5,5.3,6.2c6,1.3,10.9-3.9,9.7-9.7c-1.2-6.3-10.9-3.6-9.6,2.7c0.7-0.9,1.3-1.9,2-2.8
				c1,0.8,2,1.5,3,2.3c-2-3.5-4.2-7.6-5.4-11.4c-2.1,2.1-4.1,4.1-6.2,6.2c3.5,1,8.3-1,11.4,1.4c0.7-2.8,1.5-5.6,2.2-8.4
				c-1.3,0.2-4.4,0.8-5.6,0c0.8,1,1.5,2,2.3,3c0-0.3-0.1-0.5-0.1-0.8c-0.8,1.9-1.5,3.8-2.3,5.6c0.2-0.1,0.4-0.2,0.6-0.3
				c-1.3,0.2-2.6,0.3-3.9,0.5c2.9,0.8,8.3,1.4,8.7,5c0.2,2.2,0.8,1-0.7,2.6c-1.2,1.3-2.5,0.5-4.6,0.3c-3.7-0.4-7.9-0.9-10.7-3.7
				c-0.9-0.8-2.9-3.3-3.2-4.5c-0.7-2.9,1.9-3.1,4.4-3c-1.4-2.5-2.9-5-4.3-7.5c-1.3,1.7-3.6,2.4-5,4.4c-1.3,1.8-0.7,4.6,0.8,6.1
				c2.9,2.9,6,5.5,9.2,8c3.6,2.8,8.4-1.8,7.3-5.6c-0.6-2.4-0.8-4.5-0.7-6.9C866.9,65.4,856.9,65.4,856.7,71.8L856.7,71.8z"/>
		</g>
	</g>
	<g class="st1">
		<g>
			<path class="st5" d="M857.7,62c0,0,0.1,0,0.1,0c-0.3-0.2-0.6-0.3-0.8-0.5c-0.1-0.1-0.1-0.1-0.2-0.2c-0.1-0.3-0.2-0.6-0.3-0.9
				c0,0,0,0.1,0,0.1c0.1,1,0.8,1.9,1.9,1.9c0.9,0,2-0.8,1.9-1.9c-0.1-1.1-0.6-1.8-1.6-2.1c-0.9-0.3-2.1,0.4-2.3,1.3
				C856.1,60.7,856.7,61.6,857.7,62L857.7,62z"/>
		</g>
	</g>
	<g class="st1">
		<g>
			<path class="st5" d="M857.3,61.9c2,1.9,4.2,3.1,6.8,3.9c0.9,0.2,2.2-0.3,2.3-1.3c0.4-2.7-1.8-3.3-3.9-4.3c-2.2-1-3.8,1.8-1.9,3.2
				c1.3,1,2.4,1.9,3.5,3.2c0.6,0.7,1.1,1.2,2.1,1.5c1.7,0.5,3.4-0.3,3.6-2.1c0.2-1.2-0.3-2.3-0.7-3.3c-0.1-0.3-0.8-1.9-0.7-2.1
				c0,0,0.6-0.3,0.7-0.5c1.4-2.5,0.4-3.8-1-6.3c-0.9-1.5-3.7-1-3.5,0.9c0.2,1.9,0.3,3.8,0.5,5.7c0.1,1.5-0.1,3.4,0.6,4.8
				c0.3,0.7,0.8,1.2,1.5,1.4c0.5,0.1,2.5-0.3,2.6,0.4c0.2,1.1,1.9,1.8,2.8,1.1c0.8-0.6,1.5-1.2,2.3-1.8c1.9-1.4,0-4.7-1.9-3.2
				c-0.8,0.6-1.5,1.2-2.3,1.8c0.9,0.4,1.8,0.7,2.8,1.1c-0.2-1.3-1-2.2-2.2-2.7c-1.1-0.5-2.5-0.1-3.3-0.4c0.4,0.4,0.9,0.9,1.3,1.3
				c-0.9-2.9-0.7-6.5-0.9-9.4c-1.2,0.3-2.3,0.6-3.5,0.9c0.4,0.6,0.7,1.3,1.1,1.9c0.8-0.5,0.8-0.6,0.1-0.3c-0.5,0.6-1,1.1-1.2,1.9
				c-0.3,0.9-0.2,1.9,0,2.8c0.2,1.1,1.4,2.7,1.1,3.8c0.4-0.4,0.9-0.9,1.3-1.3c0.5-0.2-4.3-4-4.8-4.3c-0.6,1.1-1.3,2.2-1.9,3.2
				c0.5,0.2,1,0.5,1.5,0.7c0.8,0.6,1.1,0.4,0.6-0.6c0.8-0.4,1.5-0.9,2.3-1.3c-2-0.6-3.7-1.5-5.2-2.9
				C858.2,57.6,855.5,60.2,857.3,61.9L857.3,61.9z"/>
		</g>
	</g>
</g>
<g id="shop_now">
	<g>
		<rect id="XMLID_3_" x="931.6" y="50" class="st10" width="205" height="50"/>
		<g id="XMLID_1_">
			<path class="st11" d="M984,70.3c-0.9-1.1-1.9-1.3-2.4-1.3c-1.5,0-2,1-2,1.7c0,0.4,0.1,0.7,0.5,1c0.4,0.3,0.8,0.5,1.8,0.8
				c1.1,0.4,2.2,0.8,3,1.5c0.7,0.6,1.3,1.6,1.3,3.1c0,2.9-2.1,4.8-5.1,4.8c-2.7,0-4.3-1.7-5.1-2.8l1.9-1.8c0.7,1.4,2,2,3.1,2
				c1.3,0,2.3-0.8,2.3-2c0-0.5-0.2-0.9-0.6-1.3c-0.5-0.5-1.4-0.8-2.3-1.1c-0.8-0.3-1.7-0.6-2.4-1.3c-0.5-0.4-1.2-1.2-1.2-2.7
				c0-2.2,1.5-4.3,4.7-4.3c0.9,0,2.7,0.2,4.2,1.7L984,70.3z"/>
			<path class="st11" d="M991.4,72.7h6.2V67h2.9v14.7h-2.9v-6.6h-6.2v6.6h-2.9V67h2.9V72.7z"/>
			<path class="st11" d="M1018.7,74.3c0,4.5-3.2,7.7-7.8,7.7s-7.8-3.2-7.8-7.7c0-4.5,3.2-7.7,7.8-7.7S1018.7,69.9,1018.7,74.3z
				 M1015.8,74.3c0-3-2-5.1-4.9-5.1s-4.9,2.1-4.9,5.1c0,3,2,5.1,4.9,5.1S1015.8,77.3,1015.8,74.3z"/>
			<path class="st11" d="M1025.6,67c1.6,0,2.8,0.2,3.9,1.1c1.2,1.1,1.5,2.5,1.5,3.6c0,0.6-0.1,2.2-1.2,3.3c-0.8,0.8-2,1.3-3.7,1.3
				h-1.8v5.5h-2.9V67H1025.6z M1024.2,73.8h1.2c0.5,0,1.3,0,1.9-0.5c0.5-0.4,0.8-1.1,0.8-1.7c0-0.8-0.4-1.4-0.8-1.7
				c-0.6-0.4-1.3-0.5-2-0.5h-1V73.8z"/>
			<path class="st11" d="M1038.2,81.7V67h2l8.9,9.8V67h2.9v14.7h-2l-8.9-9.8v9.8H1038.2z"/>
			<path class="st11" d="M1070.3,74.3c0,4.5-3.2,7.7-7.8,7.7s-7.8-3.2-7.8-7.7c0-4.5,3.2-7.7,7.8-7.7S1070.3,69.9,1070.3,74.3z
				 M1067.3,74.3c0-3-2-5.1-4.9-5.1s-4.9,2.1-4.9,5.1c0,3,2,5.1,4.9,5.1S1067.3,77.3,1067.3,74.3z"/>
			<path class="st11" d="M1078.8,81.7h-2.2l-5.1-14.7h3l3.3,10l3.6-10.2h1.6l3.4,10.2l3.5-10h3l-5.4,14.7h-2.2l-3.2-9.3L1078.8,81.7
				z"/>
		</g>
	</g>
</g>
<g id="tekst">
	<g>
		<g>
			<path class="st12" d="M55.7,85.8v6.8h5.8v6.1h-5.8V112h-6.4V79.9h12.8v5.9H55.7z"/>
			<path class="st12" d="M77.7,112l-5.6-14.8V112h-6.4V79.9h6.9c2.4,0,5,0.2,7,1.5c2.6,1.7,3.8,4.8,3.8,7.8c0,3.7-1.4,6.3-4.6,8.2
				l5.6,14.6H77.7z M72.1,93.7c0.3,0,0.7,0,1.1,0c2.7,0,4.1-1.9,4.1-4.5s-1.2-4.4-3.9-4.4h-1.2V93.7z"/>
			<path class="st12" d="M87.8,112V79.9h12.8v6h-6.4v6.9h5.6v6.1h-5.6v7.2h6.5v5.9H87.8z"/>
			<path class="st12" d="M105,112V79.9h12.8v6h-6.4v6.9h5.6v6.1h-5.6v7.2h6.5v5.9H105z"/>
			<path class="st12" d="M146.5,87.2c-1.3-1.1-2.8-2.1-4.6-2.1c-1.9,0-3.2,1.3-3.2,3.1c0,5.5,9.6,5.4,9.6,14.4
				c0,5.5-3.3,9.9-9.1,9.9c-2,0-3.9-0.5-5.5-1.6v-6.1c1.4,1,2.9,1.7,4.7,1.7c2.2,0,3.8-1.3,3.8-3.6c0-0.6-0.1-1.1-0.3-1.6
				c-0.6-1.2-2.4-2.3-3.4-3c-3.6-2.5-5.9-4.8-5.9-9.5c0-5.1,2.9-9.5,8.4-9.5c2.2,0,3.8,0.5,5.6,1.5V87.2z"/>
			<path class="st12" d="M164.7,112V97.8h-6.4V112h-6.4V79.9h6.4v11.9h6.4V79.9h6.4V112H164.7z"/>
			<path class="st12" d="M176,112V79.9h6.4V112H176z"/>
			<path class="st12" d="M195,79.9c2,0,3.6,0,5.4,1.1c3,1.7,4.4,5.2,4.4,8.5c0,6.7-4.8,9.9-11.1,9.4V112h-6.4V79.9H195z M194,93.5
				c2.9,0,4.4-1,4.4-4.1c0-2.6-0.9-4.3-3.7-4.3h-1.1v8.4H194z"/>
			<path class="st12" d="M215.5,79.9c2,0,3.6,0,5.4,1.1c3,1.7,4.4,5.2,4.4,8.5c0,6.7-4.8,9.9-11.1,9.4V112h-6.4V79.9H215.5z
				 M214.5,93.5c2.9,0,4.4-1,4.4-4.1c0-2.6-0.9-4.3-3.7-4.3h-1.1v8.4H214.5z"/>
			<path class="st12" d="M228.2,112V79.9h6.4V112H228.2z"/>
			<path class="st12" d="M253.4,112l-7.9-19.4c0.2,1.2,0.3,2.5,0.3,3.7V112h-6.4V79.9h6l7.9,19.4c-0.3-1.4-0.5-2.9-0.5-4.3V79.9h6.5
				V112H253.4z"/>
			<path class="st12" d="M285,94.1c0,0.8,0,1.6,0,2.5c0,2.3-0.1,4.6-0.6,6.8c-1.1,5-4.3,9.1-9.7,9.1c-8.7,0-11.4-9.3-11.4-16.5
				c0-7.4,2.4-16.7,11.4-16.7c4.9,0,8.1,3.1,9.4,7.6l-6.2,2.4c-0.3-1.9-0.8-4.4-3.2-4.4c-4.3,0-4.7,7.9-4.7,11
				c0,3.2,0.1,10.8,4.7,10.8c3.5,0,3.9-4.3,3.9-6.9h-4v-5.7H285z"/>
			<path class="st12" d="M319.5,108c-1.9,2.6-5.1,4.5-8.4,4.5s-6.5-1.9-8.4-4.5c-2.5-3.4-2.9-8-2.9-12c0-4.1,0.4-8.6,2.9-12.1
				c1.9-2.7,5.1-4.5,8.4-4.5c3.3,0,6.5,1.8,8.4,4.5c2.5,3.4,2.9,8,2.9,12.1C322.4,100.1,321.9,104.5,319.5,108z M311.1,85.2
				c-4.2,0-4.5,7.7-4.5,10.6s0.3,10.6,4.5,10.6s4.5-7.7,4.5-10.6S315.3,85.2,311.1,85.2z"/>
			<path class="st12" d="M337.5,112h-5.2L323,79.9h6.8l3.4,12.4c0.8,2.8,1.3,5.8,1.6,8.7c0.2-2.9,0.6-5.9,1.4-8.7l3.5-12.4h6.6
				L337.5,112z"/>
			<path class="st12" d="M349,112V79.9h12.8v6h-6.4v6.9h5.6v6.1h-5.6v7.2h6.5v5.9H349z"/>
			<path class="st12" d="M378.1,112l-5.6-14.8V112h-6.4V79.9h6.9c2.4,0,5,0.2,7,1.5c2.6,1.7,3.8,4.8,3.8,7.8c0,3.7-1.4,6.3-4.6,8.2
				l5.6,14.6H378.1z M372.5,93.7c0.3,0,0.7,0,1.1,0c2.7,0,4.1-1.9,4.1-4.5s-1.2-4.4-3.9-4.4h-1.2V93.7z"/>
			<path class="st12" d="M406.8,90.6c1.5,0.1,3.1,0.3,4.5,1c3.8,1.7,5.1,5.7,5.1,9.6c0,6.8-3.5,11.3-10.6,11.3
				c-2.2,0-4.2-0.6-6.2-1.5l1.1-5.5c1.2,0.9,2.5,1.5,3.9,1.5c3.4,0,5-2.8,5-5.9c0-4-2.7-5.7-6.4-5.7c-0.8,0-1.7,0.1-2.5,0.2
				l2.5-15.8h12.3v5.5h-7.8L406.8,90.6z"/>
			<path class="st12" d="M428.2,112.5c-7.8,0-8.9-11-8.9-16.8c0-5.8,1.4-16.3,9.1-16.3c7.6,0,8.9,10.8,8.9,16.4
				C437.3,101.7,436.1,112.5,428.2,112.5z M431.2,94.7c0-2,0-9.6-2.9-9.6c-2.8,0-2.8,7.4-2.8,9.3v3.4c0,1.9,0.1,8.9,2.8,8.9
				c2.8,0,2.9-7.2,2.9-9.1V94.7z"/>
			<path class="st12" d="M444,112.6c-2.2,0-4-1.9-4-4.1c0-2.2,1.8-4,4-4c2.2,0,4,1.8,4,4C448,110.7,446.2,112.6,444,112.6z"/>
			<path class="st12" d="M449.9,98.3v-5.2h8.1v5.2H449.9z"/>
		</g>
	</g>
	<g>
		<g>
			<path class="st13" d="M83.9,41.1c1.1,0.2,1.6,0.3,1.7,0.4c0.2,0.2,0.2,0.3,0.2,0.5l0.3,0.2c0.4,0.2,0.5,0.8,0.2,1.7
				c0,0.2-0.2,0.4-0.4,0.4c-0.2,0-0.8,0-1.8,0c-1.7-0.2-4-0.2-6.7,0.2c-1.3,0.1-2.1,0.3-2.4,0.6c-0.4,0.5-1.1,1.9-2,4
				c-0.9,2.2-1.3,3.3-1.4,3.4c0.8,0.2,3.1,0.2,6.9-0.2c1-0.2,1.7-0.3,2.1-0.2c0.5,0.1,0.7,0.4,0.8,1.2c0.1,0.7-0.1,1.2-0.6,1.5
				c-0.5,0.3-1.4,0.5-2.7,0.6c-1.3,0.1-2.7,0.2-4.1,0.2c-1.5,0-2.5,0-3.2-0.1c-0.2,0.2-0.4,0.4-0.4,0.7c-0.5,0.9-1.1,2.4-2,4.6
				c-0.8,2.2-1.3,3.5-1.3,4c-0.2,0.5-0.4,1-0.4,1.5c-0.1,0.5-0.2,0.8-0.3,0.8c-0.1,0.4-0.3,0.6-0.7,0.6c-0.4,0-0.7-0.1-0.9-0.4
				c-1.2-0.5-1.6-1.4-1.2-2.7c0.2-0.9,0.6-2.3,1.2-4c0.6-1.7,1-2.9,1.3-3.6c0.3-0.6,0.6-1.2,0.7-1.8c0.2-0.6,0.3-0.9,0.3-1
				c-0.1-0.3-0.1-0.5,0-0.6c0-0.1,0.1-0.3,0.3-0.5c0.4-0.3,0.8-0.9,1.2-1.8l2-5.6c0.2-0.8,0.3-1.3,0.2-1.3c0,0-0.4,0-1.2,0.1
				c-0.7,0.1-1.1,0.1-1.2,0.1c-0.7,0.1-1-0.1-1-0.5c0.1-0.5,0.2-0.9,0.5-1.3c0.2-0.4,0.6-0.6,0.9-0.7l1.5-0.4c0.7-0.2,1.4-0.1,2.1,0
				c0.3-0.2,0.5-0.4,0.5-0.5c0.2-0.8,0.7-1.3,1.4-1.4c0.7-0.2,1.2,0,1.4,0.6c0.1,0.2,0.1,0.4,0.1,0.6c0,0.2,0,0.3,0.2,0.3
				c0.3,0,1.1-0.1,2.3-0.4c1.9-0.2,3-0.2,3.5,0c0.2-0.1,0.5-0.1,0.8-0.1C83.5,41.2,83.8,41.2,83.9,41.1z"/>
			<path class="st13" d="M85.3,53.9c1.3-1.1,2.5-1.8,3.5-2c1.6-0.4,2.7-0.2,3.3,0.4c1,0.4,1.6,1.4,1.8,2.8c0.2,2.2-0.5,4.4-2.2,6.8
				c-1,1.4-2.3,2.6-4,3.6c-0.7,0.5-1.9,0.8-3.6,0.9c-0.4,0-1-0.2-1.5-0.7c-1.2-1.2-1.7-2.3-1.5-3.2l0.1-0.9
				c-0.1-0.1-0.2-0.2-0.1-0.3c0.1-0.1,0.1-0.1,0.1-0.2c0.2,0,0.2-0.1,0.2-0.4s0-0.7,0.3-1.4c0.2-0.7,0.5-1.4,0.9-2
				C83.5,55.8,84.4,54.7,85.3,53.9z M89.8,59c0-0.1,0.1-0.3,0.2-0.6c0.1-0.3,0.2-0.5,0.3-0.7c0.1-0.2,0.1-0.6,0.2-1.2
				c0-0.6-0.1-1-0.3-1.2c-0.3-0.1-0.5-0.2-0.7-0.1c-0.2,0.1-0.5,0.2-0.9,0.5c-2,1.7-3.2,3.5-3.6,5.4c-0.1,0.7,0,1.1,0.2,1.5
				c0.2,0.3,0.6,0.4,1.1,0.3c0.5-0.2,1-0.4,1.4-0.8c0.4-0.4,0.7-0.7,0.8-0.8c0.1-0.1,0.2-0.2,0.3-0.4s0.2-0.3,0.3-0.5
				c0.1-0.2,0.2-0.3,0.2-0.4c0.1-0.1,0.1-0.3,0.2-0.5C89.7,59.3,89.7,59.1,89.8,59z"/>
			<path class="st13" d="M98.3,53.9c1.3-1.1,2.5-1.8,3.5-2c1.6-0.4,2.7-0.2,3.3,0.4c1,0.4,1.6,1.4,1.8,2.8c0.2,2.2-0.5,4.4-2.2,6.8
				c-1,1.4-2.3,2.6-4,3.6c-0.7,0.5-1.9,0.8-3.6,0.9c-0.4,0-1-0.2-1.5-0.7c-1.2-1.2-1.7-2.3-1.5-3.2l0.1-0.9C94,61.4,94,61.3,94,61.2
				c0.1-0.1,0.1-0.1,0.1-0.2c0.2,0,0.2-0.1,0.2-0.4s0-0.7,0.3-1.4c0.2-0.7,0.5-1.4,0.9-2C96.4,55.8,97.3,54.7,98.3,53.9z M102.7,59
				c0-0.1,0.1-0.3,0.2-0.6c0.1-0.3,0.2-0.5,0.3-0.7c0.1-0.2,0.1-0.6,0.2-1.2c0-0.6-0.1-1-0.3-1.2c-0.3-0.1-0.5-0.2-0.7-0.1
				c-0.2,0.1-0.5,0.2-0.9,0.5c-2,1.7-3.2,3.5-3.6,5.4c-0.1,0.7,0,1.1,0.2,1.5c0.2,0.3,0.6,0.4,1.1,0.3c0.5-0.2,1-0.4,1.4-0.8
				c0.4-0.4,0.7-0.7,0.8-0.8c0.1-0.1,0.2-0.2,0.3-0.4s0.2-0.3,0.3-0.5c0.1-0.2,0.2-0.3,0.2-0.4c0.1-0.1,0.1-0.3,0.2-0.5
				C102.6,59.3,102.7,59.1,102.7,59z"/>
			<path class="st13" d="M119.3,67c-0.2,0.1-0.4,0.2-0.6,0.3c-0.2,0-0.4,0.1-0.7,0.1c-0.3,0.1-0.6,0-0.9-0.3
				c-0.3-0.2-0.5-0.5-0.7-0.8c-0.2-0.6-0.4-1.9-0.4-3.8l-1.6,1.4c-1.6,1.5-3.2,2.3-4.6,2.3c-0.4-0.1-0.9-0.4-1.6-1.1
				c-0.6-0.6-1-1.2-1.2-1.6c-0.3-0.8-0.2-2,0.4-3.7c0.5-1.7,1.3-3.1,2.2-4.2c0.8-1.3,1.9-2.1,3.2-2.4c1.3-0.4,2.4-0.3,3.4,0.3
				c0.8,0.4,1.3,0.3,1.4-0.2c0-0.1,0.4-1.2,1.1-3.4c0.7-2.1,1.6-4.5,2.8-7c0.5-1.1,1.1-1.6,1.6-1.6c0.3,0,0.7,0.1,1.1,0.3
				c0.4,0.2,0.7,0.5,0.9,1c0.2,0.4,0.1,0.9-0.2,1.4c-0.7,1.2-1.5,3.1-2.5,5.7c-1,2.7-1.7,4.7-2.1,6.3s-0.7,3.4-0.8,5.6
				c-0.1,2.2-0.1,3.5,0.1,3.8c0.1,0.4,0.1,0.7,0.1,1C119.7,66.7,119.6,66.9,119.3,67z M110.6,62.8c0.2,0.1,0.6,0,1.2-0.2
				s1.2-0.6,2-1.2c0.8-0.6,1.3-1.1,1.7-1.5c0.4-0.4,0.6-1,0.8-1.7c0.2-0.7,0-1.3-0.6-1.8c-0.7-0.6-1.6-0.4-2.6,0.5
				c-1.3,1.2-2.2,2.9-2.7,5.2C110.2,62.5,110.3,62.7,110.6,62.8z"/>
			<path class="st13" d="M132.2,53.5l-0.1-0.9c0-0.4,0.2-0.7,0.6-1c0.4-0.3,0.9-0.4,1.4-0.4c0.6,0,1,0.2,1.4,0.7
				c0.3,0.5,0.5,1,0.5,1.4s-0.1,0.9-0.3,1.3l-1.4,3.4c0,0.1,0,0.1,0.1,0.1c0.1,0.1,0.4-0.2,1-0.7c0.6-0.6,1.5-1.3,2.7-2.1
				c1.2-0.8,2-1.3,2.6-1.5c0.4,0,0.8,0.2,1.3,0.7c0.5,0.5,0.8,1,0.8,1.6c-0.4,1.8-0.7,2.8-0.8,3c0.5-0.6,1.4-1.3,2.6-2.2
				c1.2-0.8,2.1-1.3,2.7-1.3c0.8,0,1.4,0.4,1.7,1.2c0.3,0.8,0.5,1.8,0.6,3s0.2,2.1,0.4,2.5c0,0.2,0.2,0.3,0.4,0.4s0.5,0.2,0.8,0.4
				c0.2,0.2,0.4,0.5,0.4,0.9c0,1-0.9,1.6-2.6,1.6c-0.8,0-1.4-0.4-2-1.2c-0.6-0.8-0.8-1.7-0.8-2.8c0-0.4,0-0.9,0.1-1.3
				c0.1-0.4,0.1-0.7,0.1-0.8s0-0.1-0.1-0.1c-0.7,0-2.2,1.2-4.4,3.7c-0.1,0.1-0.1,0.1-0.2,0.2c-0.2,0.2-0.5,0.4-0.8,0.7
				c-0.8,0.7-1.3,1.1-1.6,1.1c-0.3,0-0.6-0.1-0.7-0.2l-0.4-0.4c-0.3-0.2-0.5-0.6-0.5-1v-0.2l0.9-2.6c0.7-1.4,1-2.2,1-2.4
				s0-0.2,0-0.2c-0.4,0-1.1,0.6-2.2,1.8c-1.1,1.3-1.9,2.1-2.3,2.5c-0.4,0.4-0.8,0.9-1.2,1.3c-0.4,0.5-0.8,0.9-1.1,1.3
				c-0.3,0.4-0.5,0.5-0.5,0.5c-0.6,0-1.1-0.2-1.5-0.7c-0.5-0.4-0.7-0.9-0.7-1.4c0-0.5,0-0.9,0.1-1.3c0.1-0.4,0.2-1,0.4-1.7
				c0.2-0.8,0.3-1.3,0.4-1.5c0.1-0.3,0.1-0.5,0.2-0.8c0.1-0.3,0.1-0.4,0.1-0.5c0-0.1,0.1-0.2,0.2-0.5c0.1-0.3,0.2-0.6,0.4-0.9
				c0.1-0.3,0.4-0.9,0.7-1.6C132.2,54.3,132.2,53.9,132.2,53.5z"/>
			<path class="st13" d="M150.9,64.7c0-0.2-0.2-0.6-0.5-1c-0.4-0.4,0.4-2.4,2.4-6.1c0.2-0.2,0.4-0.4,0.6-0.8
				c0.2-0.4,0.4-0.6,0.5-0.7c0-0.1,0-0.2,0.1-0.3c0.1-0.1,0.2-0.1,0.3-0.1l0.3-0.6c0.1-0.2,0.6-0.8,1.5-1.7c0.9-0.9,1.6-1.5,2.2-1.8
				s1.1-0.5,1.7-0.5c0.6,0,1.1,0.2,1.5,0.5c0.1,0.1,0.2,0.2,0.5,0.4c0.5,0.4,1.6,1.4,3.3,2.9l-0.7,2c-0.6,1.7-0.4,3.3,0.5,4.8
				c0.3,0.5,0.7,0.9,1.3,1c0.6,0.1,0.9,0.4,0.9,0.9c0,1.1-0.4,1.7-1.1,1.8c-2,0.3-3.6-0.5-4.6-2.5c-0.4-0.5-0.6-1.1-0.7-1.7
				c-0.2,0.3-0.5,0.6-0.9,1c-3.5,3.6-6.2,4.8-8.1,3.6c-0.1-0.2-0.3-0.4-0.7-0.6C151.1,64.9,150.9,64.8,150.9,64.7z M160.1,54.5
				c-1,0-2.6,1.9-4.8,5.6c-0.4,0.6-0.7,1.4-1.1,2.5c0.4,0.1,1.2-0.4,2.4-1.4c0.2-0.2,0.6-0.5,1-0.8c0.4-0.3,0.7-0.6,0.9-0.7
				c0.2-0.2,0.4-0.4,0.7-0.6c0.5-0.5,0.9-1,1.3-1.6l0.9-1.4C161,55,160.5,54.5,160.1,54.5z"/>
			<path class="st13" d="M168.1,52.4c-0.1-0.2-0.2-0.3-0.2-0.5c0-0.2,0.1-0.4,0.3-0.8c0.2-0.4,0.4-0.6,0.6-0.6c0.2,0,0.6,0,1.2,0
				c0.6,0,1-0.1,1.2-0.1c0.2-0.1,0.4-0.2,0.5-0.5c0.1-0.3,0.4-0.8,0.8-1.4c0.9-1.8,1.6-2.8,1.9-3.1c0.4-0.3,0.8-0.5,1.3-0.5
				c0.5-0.1,0.9,0.1,1.4,0.4c0.4,0.5,0.4,1.1,0,1.6c-0.2,0.3-0.4,0.7-0.7,1.2c-0.3,0.5-0.6,0.9-0.7,1.2c-0.4,0.6-0.5,1-0.2,1
				c0.3,0.1,1.1,0,2.3-0.2c1.2-0.2,1.9,0.3,2.1,1.3c0.1,0.6,0,1-0.2,1.1c-0.2,0.1-0.8,0.2-1.8,0.2c-0.8,0.1-1.6,0.2-2.4,0.2
				c-0.7,0-1.2,0-1.3,0.1c-0.3,0.1-0.6,0.3-0.7,0.7c-0.1,0.1-0.2,0.2-0.3,0.4c-0.2,0.3-0.5,0.9-1,1.8c-0.7,2-1.2,4-1.6,6.1
				c-0.1,0.5-0.1,0.9,0.1,1.1c0.1,0.2,0.5,0.4,1.3,0.4c1.3,0.1,2.6-0.2,4.1-1.1l1.1-0.6c0.2-0.3,0.5-0.1,0.9,0.5
				c0.1,0.2,0.2,0.3,0.2,0.5c0,1-0.5,1.8-1.6,2.5c-1.1,0.7-2.2,1.1-3.4,1.3c-1.2,0.2-2.1,0.2-2.7,0.1c-0.6-0.1-1.2-0.5-1.7-1.1
				s-0.8-1.1-1-1.5l-0.2-0.3c-0.2-0.1-0.2-0.8-0.2-2c0.1-1.2,0.1-2.1,0.3-2.6c0.2-0.6,0.6-1.9,1.3-3.9l1.1-2.3l-1.6-0.4
				C168.4,52.6,168.2,52.5,168.1,52.4z"/>
			<path class="st13" d="M179.8,52.4c-0.1-0.2-0.2-0.3-0.2-0.5c0-0.2,0.1-0.4,0.3-0.8c0.2-0.4,0.4-0.6,0.6-0.6c0.2,0,0.6,0,1.2,0
				c0.6,0,1-0.1,1.2-0.1c0.2-0.1,0.4-0.2,0.5-0.5c0.1-0.3,0.4-0.8,0.8-1.4c0.9-1.8,1.6-2.8,1.9-3.1c0.4-0.3,0.8-0.5,1.3-0.5
				c0.5-0.1,0.9,0.1,1.4,0.4c0.4,0.5,0.4,1.1,0,1.6c-0.2,0.3-0.4,0.7-0.7,1.2c-0.3,0.5-0.6,0.9-0.7,1.2c-0.4,0.6-0.5,1-0.2,1
				c0.3,0.1,1.1,0,2.3-0.2c1.2-0.2,1.9,0.3,2.1,1.3c0.1,0.6,0,1-0.2,1.1c-0.2,0.1-0.8,0.2-1.8,0.2c-0.8,0.1-1.6,0.2-2.4,0.2
				c-0.7,0-1.2,0-1.3,0.1c-0.3,0.1-0.6,0.3-0.7,0.7c-0.1,0.1-0.2,0.2-0.3,0.4c-0.2,0.3-0.5,0.9-1,1.8c-0.7,2-1.2,4-1.6,6.1
				c-0.1,0.5-0.1,0.9,0.1,1.1c0.1,0.2,0.5,0.4,1.3,0.4c1.3,0.1,2.6-0.2,4.1-1.1l1.1-0.6c0.2-0.3,0.5-0.1,0.9,0.5
				c0.1,0.2,0.2,0.3,0.2,0.5c0,1-0.5,1.8-1.6,2.5c-1.1,0.7-2.2,1.1-3.4,1.3c-1.2,0.2-2.1,0.2-2.7,0.1c-0.6-0.1-1.2-0.5-1.7-1.1
				s-0.8-1.1-1-1.5l-0.2-0.3c-0.2-0.1-0.2-0.8-0.2-2c0.1-1.2,0.1-2.1,0.3-2.6c0.2-0.6,0.6-1.9,1.3-3.9l1.1-2.3l-1.6-0.4
				C180.1,52.6,180,52.5,179.8,52.4z"/>
			<path class="st13" d="M198.7,51.1c1.5,0,2.7,0.4,3.4,1.1c0.7,0.7,1.1,1.4,1.1,2.1v0.3c0,0.5-0.4,1.4-1.1,2.7
				c-0.4,0.7-0.9,1.2-1.7,1.7c-0.8,0.5-1.5,0.8-2.3,0.8c-0.8,0-1.5,0-2.2-0.1c-0.7-0.1-1.1-0.2-1.3-0.2c-0.2,0-0.3,0.1-0.4,0.3
				c-0.2,0.3-0.3,0.8-0.3,1.6c0.1,0.7,0.3,1.2,0.6,1.5c0.3,0.3,0.7,0.4,1.2,0.4s0.9-0.1,1.3-0.3c0.4-0.2,0.9-0.5,1.5-1
				c0.6-0.5,1-0.7,1.3-0.7c0.3,0,0.6,0.2,0.9,0.5c0.3,0.3,0.5,0.6,0.5,0.9c-0.1,0.6-0.7,1.4-1.8,2.4s-2.4,1.5-3.9,1.5
				c-1.4,0-2.6-0.4-3.5-1.3c-0.9-0.8-1.4-2-1.4-3.6c0-0.6,0-1.2,0.1-1.9c0.1-0.7,0.3-1.5,0.7-2.5c0.4-1,1-2.1,1.9-3.2
				s1.8-1.9,2.8-2.4C197.1,51.4,198,51.1,198.7,51.1z M198.4,54c-0.3,0-0.8,0.3-1.5,0.8c-0.6,0.6-1.2,1.2-1.7,1.9
				c0.1,0.3,0.5,0.5,1.3,0.5c0.8,0,1.3-0.1,1.5-0.2c0.2-0.1,0.6-0.4,1.1-1c0.5-0.5,0.8-0.9,0.8-1.1c0-0.6-0.4-0.9-1.3-1H198.4z"/>
			<path class="st13" d="M207.5,51c0.6,0,1,0.1,1.2,0.3c0.6,0.5,0.2,2.1-1.2,4.8c-0.4,0.9-0.6,1.3-0.4,1.3c0.3-0.5,1-1.2,2.1-2
				c1.1-0.9,1.8-1.4,2.1-1.5c0.3-0.1,0.6-0.3,0.9-0.4c0.3-0.1,0.5-0.2,0.6-0.2c0.6-0.3,1.2-0.4,2-0.3c0.7,0.1,1.2,0.3,1.3,0.7
				c0,0.3,0.2,0.5,0.5,0.6l0.2,0.2c0,0.2-0.2,0.5-0.5,0.8c-0.4,0.3-0.7,0.5-1.1,0.5c-0.4,0-0.9,0.2-1.4,0.4c-0.5,0.2-1,0.5-1.5,0.8
				c-0.5,0.3-0.9,0.5-1.1,0.6c-0.2,0.1-0.6,0.3-1,0.6c-0.7,0.5-1.4,1.1-2,1.8c-0.7,0.7-1.1,1.2-1.2,1.4c-0.2,0.2-0.4,0.7-0.6,1.4
				c-0.2,0.8-0.3,1.2-0.3,1.4c-0.1,0.4-0.3,0.8-0.6,1.2c-0.3,0.4-0.6,0.6-0.8,0.7c-0.3,0.1-0.6-0.1-1.1-0.5
				c-0.8-0.6-1.2-1.2-1.1-1.9c0.1-0.7,0.4-2,0.8-3.9c0.1-0.7,0.5-2.1,1.2-4.2c0.7-2.1,1.4-3.5,1.9-4.2C206.5,51.2,207,51,207.5,51z"
				/>
			<path class="st13" d="M223.5,50.4c0.4-0.2,0.9-0.3,1.5-0.3s1,0.1,1.2,0.2c0.2-0.1,0.3-0.1,0.3-0.1c0.3,0,0.7,0.3,1.2,0.8
				c0.5,0.5,0.8,0.9,0.9,1.3c0,1.9-0.2,2.9-0.5,2.9c-0.1,0-0.2,0.1-0.2,0.2c0,0.4-0.3,0.8-1,1.2c-0.6,0.4-1.2,0.7-1.7,0.7
				c-0.3-0.1-0.6-0.3-0.9-0.5c-0.3-0.3-0.4-0.6-0.4-0.8c0,0,0.3-0.4,0.8-1c0.5-0.6,0.8-1.2,0.8-1.7c0-0.2-0.2-0.3-0.7-0.3
				c-1.4,0.7-2.5,1.3-3.1,1.8c-0.2,0.3-0.3,0.5-0.5,0.5c0,0,0,0-0.1,0s-0.2,0.1-0.4,0.4c-0.3,0.3-0.5,0.6-0.8,1
				c-0.3,0.4-0.4,0.8-0.5,1.2l-0.1,0.1V58c0,0.1,0,0.2,0,0.3c0,0.4,0.6,1,1.7,1.9c1.1,0.8,1.9,1.4,2.3,1.9c0.4,0.4,0.7,0.8,0.8,1.2
				c0.2,0.5,0.4,0.9,0.4,1.3c0,0.9-0.5,1.6-1.4,2.1c-0.9,0.5-2,0.7-3.3,0.7c-1.3,0-2.4-0.3-3.3-0.8c-0.9-0.5-1.4-1-1.4-1.4
				c0-0.4,0.1-0.6,0.4-0.7c0.3-0.2,0.6-0.3,1.1-0.2c0.5,0.1,1.2,0.2,2,0.3c0.5,0,1-0.1,1.5-0.2c0.5-0.1,0.7-0.2,0.7-0.3
				c0-0.1-0.1-0.2-0.3-0.4c-0.2-0.2-0.4-0.3-0.7-0.3c0-0.1-0.5-0.5-1.5-1.3c-1-0.8-1.5-1.3-1.5-1.5c0,0,0-0.1,0-0.1v-0.2
				c-0.2,0-0.4-0.2-0.5-0.7c-0.2-0.5-0.2-1-0.2-1.4c0-1.4,0.8-2.8,2.4-4.4C220.2,51.9,221.9,50.9,223.5,50.4z"/>
			<path class="st13" d="M228.8,61.2c0.5-0.3,0.9-0.5,1.1-0.5c0.3,0,0.6,0.1,1.1,0.3c0.9,0.5,1.3,1.2,1.2,1.8
				c-0.1,0.7-0.7,1.3-1.7,1.8c-1,0.4-1.9,0.3-2.6-0.2C226.9,63.4,227.2,62.3,228.8,61.2z"/>
			<path class="st13" d="M263.3,43.8c0,0.4-0.2,0.8-0.7,1.3c-0.5,0.4-0.9,0.6-1.3,0.6s-0.6-0.1-0.8-0.2c-1-1.4-2-2.1-3.2-2.1
				c-1.2,0-2.3,0.5-3.4,1.5c-1.1,1-2,2.3-2.8,3.8s-1.5,3.2-2.1,5.1c-1.1,3.4-1.8,6.5-2,9.4c0,0.8,0.1,1.4,0.4,1.8
				c0.2,0.4,0.7,0.6,1.5,0.6c0.8,0,1.9-0.4,3.2-1.2c1.3-0.8,2.5-1.8,3.3-3.2c1.1-2.1,1.7-3.5,1.7-4.3c0-0.4-0.2-0.6-0.6-0.6
				c-1.3,0-2.2-0.1-2.8-0.2c-0.6-0.1-1-0.4-1.1-0.7c-0.3-0.1-0.5-0.4-0.5-0.9c0-1.1,1.2-1.6,3.5-1.6c1.6,0.1,2.9,0.3,3.7,0.9
				c0.8,0.5,1.3,1.6,1.3,3.2c0,0.5,0,0.9-0.1,1.3c-0.4,1.7-1.1,3.3-2.1,4.8c-1,1.4-2.2,2.6-3.4,3.5c-2.6,1.8-5,2.7-7.1,2.7
				c-1.1,0-2.2-0.5-3-1.6c-0.9-1.1-1.3-2.4-1.3-4.2c0-3.4,0.5-6.7,1.6-9.8c2.2-6.6,4.8-10.8,7.8-12.7c1.1-0.7,2.5-1.1,4.1-1.1
				c0.4,0,0.9,0,1.4,0.1c1.1,0.3,2.2,0.8,3.2,1.5S263.3,43,263.3,43.8z"/>
			<path class="st13" d="M266.3,51c0.6,0,1,0.1,1.2,0.3c0.6,0.5,0.2,2.1-1.2,4.8c-0.4,0.9-0.6,1.3-0.4,1.3c0.3-0.5,1-1.2,2.1-2
				c1.1-0.9,1.8-1.4,2.1-1.5c0.3-0.1,0.6-0.3,0.9-0.4c0.3-0.1,0.5-0.2,0.6-0.2c0.6-0.3,1.2-0.4,2-0.3c0.7,0.1,1.2,0.3,1.3,0.7
				c0,0.3,0.2,0.5,0.5,0.6l0.2,0.2c0,0.2-0.2,0.5-0.5,0.8c-0.4,0.3-0.7,0.5-1.1,0.5c-0.4,0-0.9,0.2-1.4,0.4c-0.5,0.2-1,0.5-1.5,0.8
				c-0.5,0.3-0.9,0.5-1.1,0.6c-0.2,0.1-0.6,0.3-1,0.6c-0.7,0.5-1.4,1.1-2,1.8c-0.7,0.7-1.1,1.2-1.2,1.4c-0.2,0.2-0.4,0.7-0.6,1.4
				c-0.2,0.8-0.3,1.2-0.3,1.4c-0.1,0.4-0.3,0.8-0.6,1.2c-0.3,0.4-0.6,0.6-0.8,0.7c-0.3,0.1-0.6-0.1-1.1-0.5
				c-0.8-0.6-1.2-1.2-1.1-1.9c0.1-0.7,0.4-2,0.8-3.9c0.1-0.7,0.5-2.1,1.2-4.2c0.7-2.1,1.4-3.5,1.9-4.2C265.3,51.2,265.7,51,266.3,51
				z"/>
			<path class="st13" d="M278.2,53.9c1.3-1.1,2.5-1.8,3.5-2c1.6-0.4,2.7-0.2,3.3,0.4c1,0.4,1.6,1.4,1.8,2.8c0.2,2.2-0.5,4.4-2.2,6.8
				c-1,1.4-2.3,2.6-4,3.6c-0.7,0.5-1.9,0.8-3.6,0.9c-0.4,0-1-0.2-1.5-0.7c-1.2-1.2-1.7-2.3-1.5-3.2l0.1-0.9
				c-0.1-0.1-0.2-0.2-0.1-0.3c0.1-0.1,0.1-0.1,0.1-0.2c0.2,0,0.2-0.1,0.2-0.4s0-0.7,0.3-1.4c0.2-0.7,0.5-1.4,0.9-2
				C276.3,55.8,277.2,54.7,278.2,53.9z M282.6,59c0-0.1,0.1-0.3,0.2-0.6c0.1-0.3,0.2-0.5,0.3-0.7c0.1-0.2,0.1-0.6,0.2-1.2
				c0-0.6-0.1-1-0.3-1.2c-0.3-0.1-0.5-0.2-0.7-0.1c-0.2,0.1-0.5,0.2-0.9,0.5c-2,1.7-3.2,3.5-3.6,5.4c-0.1,0.7,0,1.1,0.2,1.5
				c0.2,0.3,0.6,0.4,1.1,0.3c0.5-0.2,1-0.4,1.4-0.8c0.4-0.4,0.7-0.7,0.8-0.8c0.1-0.1,0.2-0.2,0.3-0.4s0.2-0.3,0.3-0.5
				c0.1-0.2,0.2-0.3,0.2-0.4c0.1-0.1,0.1-0.3,0.2-0.5C282.5,59.3,282.6,59.1,282.6,59z"/>
			<path class="st13" d="M297.7,60.6c0,0.6,0.1,0.9,0.4,1c0.1,0,0.2,0,0.5,0c0.2,0,0.5-0.1,0.8-0.3c0.3-0.2,0.7-0.6,1.2-1.1
				c0.5-0.5,1.2-1.4,2-2.6c0.8-1.2,1.2-1.9,1.2-2.1s0.1-0.4,0.4-0.7c0.8-1.1,1.5-1.3,2.3-0.5c0.3,0.3,0.4,0.9,0.4,1.8
				c-0.5,2-1,3.2-1.3,3.6c-0.5,0.4-0.9,0.9-1.3,1.4c-0.7,0.9-1.3,1.4-1.6,1.7c-0.3,0.3-0.5,0.4-0.6,0.5c-0.8,0.8-1.8,1.4-2.9,1.7
				c-1.1,0.3-1.9,0.3-2.5-0.2c-0.8-0.4-1.2-1.1-1.2-2.1l-0.2-0.8c-0.4,0-0.7,0.3-1,0.8c-0.3,0.5-0.9,1.1-1.9,1.8c-1,0.7-1.7,1-2.2,1
				c-0.6,0-1.2-0.6-1.7-1.9c-0.5-1.2-0.8-2.5-0.6-3.7c0-0.9,0.1-1.7,0.3-2.5c0.2-0.8,0.3-1.3,0.3-1.4c0.2-1.6,0.5-2.7,1-3.4
				c0.4-0.6,1-0.9,1.6-0.8c0.6,0.1,1,0.4,1.1,1c0.2,0.2,0.3,0.8,0.2,1.6c-0.1,0.8-0.2,1.4-0.4,1.7c-0.1,0.1-0.2,0.8-0.3,2
				c-0.1,1.2-0.2,1.9-0.3,2.2c-0.1,0.8,0,1.1,0.4,0.9c0.4-0.2,1-0.8,1.7-1.8c0.7-1,1.2-1.8,1.5-2.3c0.3-0.5,0.6-1.3,0.9-2.2
				c0.3-1,0.6-1.6,0.9-1.9c0.3-0.3,0.6-0.4,1.1-0.4s0.8,0.2,1.2,0.4c0.8,0.8,0.8,1.8,0.2,3C298.1,57.6,297.7,59.2,297.7,60.6z"/>
			<path class="st13" d="M308.3,71.8c0.3-0.4,0.7-0.5,1.1-0.5s0.7,0.1,0.9,0.2c1,0.7,1.9,0.9,2.8,0.8c0.9-0.2,1.8-0.9,2.8-2.2
				c1.1-1.7,1.9-3.1,2.5-4.2c-0.5-0.3-1.1-0.8-1.6-1.6c-0.5-0.7-0.7-1.3-0.6-1.5v-0.4c-0.3,0-0.5-0.8-0.6-2.4
				c-0.1-1.6-0.1-2.8,0-3.4c0.1-0.7,0.2-1.9,0.3-3.6c0-0.7,0.2-1.2,0.7-1.5c0.9-0.4,1.6-0.2,2.1,0.6c0.5,0.8,0.6,2.2,0.5,4.1
				c-0.2,3.5,0,5.7,0.7,6.6c0.2-0.6,0.4-1,0.6-1.2c0.4-0.8,0.6-1.2,0.6-1.3s0.1-0.3,0.2-0.5c0.1-0.2,0.4-0.7,0.8-1.5
				c0.7-2,1.1-3.1,1.3-3.3c0.2-0.3,0.3-0.5,0.4-0.7c0.1-0.2,0.2-0.3,0.2-0.4s0.1-0.2,0.2-0.4c0.1-0.1,0.1-0.3,0.2-0.3
				s0.1-0.2,0.2-0.2c0.1-0.1,0.2-0.2,0.4-0.3c0.4-0.3,0.9-0.3,1.4,0c0.4,0.4,0.7,0.7,0.8,0.9c0.4,0.6,0.2,1.6-0.5,2.8
				c-0.5,1.4-0.9,2.3-1.3,2.7c-0.9,2-1.6,3.7-2.3,5c-0.7,1.4-1.2,2.5-1.5,3.3c-1.7,2.7-2.8,4.4-3.5,5.2c-1.7,1.6-3,2.4-3.9,2.6
				c-1.4,0.3-2.6,0.2-3.9-0.1c-1.2-0.4-1.9-0.9-2.1-1.6C307.9,72.5,308,72.1,308.3,71.8z"/>
			<path class="st13" d="M330.5,53.9c1.3-1.1,2.5-1.8,3.5-2c1.6-0.4,2.7-0.2,3.3,0.4c1,0.4,1.6,1.4,1.8,2.8c0.2,2.2-0.5,4.4-2.2,6.8
				c-1,1.4-2.3,2.6-4,3.6c-0.7,0.5-1.9,0.8-3.6,0.9c-0.4,0-1-0.2-1.5-0.7c-1.2-1.2-1.7-2.3-1.5-3.2l0.1-0.9
				c-0.1-0.1-0.2-0.2-0.1-0.3c0.1-0.1,0.1-0.1,0.1-0.2c0.2,0,0.2-0.1,0.2-0.4s0-0.7,0.3-1.4c0.2-0.7,0.5-1.4,0.9-2
				C328.6,55.8,329.5,54.7,330.5,53.9z M334.9,59c0-0.1,0.1-0.3,0.2-0.6c0.1-0.3,0.2-0.5,0.3-0.7c0.1-0.2,0.1-0.6,0.2-1.2
				c0-0.6-0.1-1-0.3-1.2c-0.3-0.1-0.5-0.2-0.7-0.1c-0.2,0.1-0.5,0.2-0.9,0.5c-2,1.7-3.2,3.5-3.6,5.4c-0.1,0.7,0,1.1,0.2,1.5
				c0.2,0.3,0.6,0.4,1.1,0.3c0.5-0.2,1-0.4,1.4-0.8c0.4-0.4,0.7-0.7,0.8-0.8c0.1-0.1,0.2-0.2,0.3-0.4s0.2-0.3,0.3-0.5
				c0.1-0.2,0.2-0.3,0.2-0.4c0.1-0.1,0.1-0.3,0.2-0.5C334.8,59.3,334.9,59.1,334.9,59z"/>
			<path class="st13" d="M347.6,63.2v-0.6c-0.3,0.7-0.5,1.1-0.9,1.3c-0.6,0.6-1.2,1-1.8,1.3c-1.7,1.1-3.1,1-4-0.2
				c-1-0.9-1.4-1.9-1.2-3.2c0.1-1.8,0.6-3.9,1.7-6.2c1.1-2.3,1.7-3.5,1.8-3.6c0.4-0.2,0.9-0.1,1.5,0c0.6,0.2,0.9,0.4,0.9,0.8
				c0.2,0.3,0.1,0.8,0,1.5s-0.5,1.5-0.9,2.4c-1,2.6-1.6,4.1-1.6,4.7c0,0.6,0.1,0.9,0.4,1c0.3,0.2,0.6,0.2,1,0
				c0.4-0.2,0.9-0.7,1.6-1.5c0.7-0.9,1.3-1.9,1.8-3.1c0.5-1.2,0.8-2.3,0.9-3.2c-0.1-0.3,0-0.6,0.2-0.9c0.2-0.3,0.5-0.6,0.8-0.8
				c0.1-0.2,0.2-0.3,0.4-0.4c0.2-0.1,0.3-0.1,0.4,0l0.6,0c0.1,0,0.2,0.1,0.4,0.4c0.2,0.2,0.3,0.4,0.4,0.5c0.7,0.6,0.5,2.2-0.5,4.8
				c-1.5,3.1-1.6,5.2-0.5,6.2c0.4,0.3,0.6,1,0.5,2c-0.1,0.4-0.5,0.6-1.2,0.6c-0.7,0-1.2-0.1-1.6-0.4c-0.4-0.3-0.7-1.2-1.1-2.7
				C347.7,63.8,347.6,63.5,347.6,63.2z"/>
			<path class="st13" d="M357.7,51c0.6,0,1,0.1,1.2,0.3c0.6,0.5,0.2,2.1-1.2,4.8c-0.4,0.9-0.6,1.3-0.4,1.3c0.3-0.5,1-1.2,2.1-2
				c1.1-0.9,1.8-1.4,2.1-1.5c0.3-0.1,0.6-0.3,0.9-0.4c0.3-0.1,0.5-0.2,0.6-0.2c0.6-0.3,1.2-0.4,2-0.3c0.7,0.1,1.2,0.3,1.3,0.7
				c0,0.3,0.2,0.5,0.5,0.6l0.2,0.2c0,0.2-0.2,0.5-0.5,0.8c-0.4,0.3-0.7,0.5-1.1,0.5c-0.4,0-0.9,0.2-1.4,0.4c-0.5,0.2-1,0.5-1.5,0.8
				c-0.5,0.3-0.9,0.5-1.1,0.6c-0.2,0.1-0.6,0.3-1,0.6c-0.7,0.5-1.4,1.1-2,1.8c-0.7,0.7-1.1,1.2-1.2,1.4c-0.2,0.2-0.4,0.7-0.6,1.4
				c-0.2,0.8-0.3,1.2-0.3,1.4c-0.1,0.4-0.3,0.8-0.6,1.2c-0.3,0.4-0.6,0.6-0.8,0.7c-0.3,0.1-0.6-0.1-1.1-0.5
				c-0.8-0.6-1.2-1.2-1.1-1.9c0.1-0.7,0.4-2,0.8-3.9c0.1-0.7,0.5-2.1,1.2-4.2c0.7-2.1,1.4-3.5,1.9-4.2C356.7,51.2,357.1,51,357.7,51
				z"/>
			<path class="st13" d="M377.8,53.9c1.3-1.1,2.5-1.8,3.5-2c1.6-0.4,2.7-0.2,3.3,0.4c1,0.4,1.6,1.4,1.8,2.8c0.2,2.2-0.5,4.4-2.2,6.8
				c-1,1.4-2.3,2.6-4,3.6c-0.7,0.5-1.9,0.8-3.6,0.9c-0.4,0-1-0.2-1.5-0.7c-1.2-1.2-1.7-2.3-1.5-3.2l0.1-0.9
				c-0.1-0.1-0.2-0.2-0.1-0.3c0.1-0.1,0.1-0.1,0.1-0.2c0.2,0,0.2-0.1,0.2-0.4s0-0.7,0.3-1.4c0.2-0.7,0.5-1.4,0.9-2
				C375.9,55.8,376.8,54.7,377.8,53.9z M382.2,59c0-0.1,0.1-0.3,0.2-0.6c0.1-0.3,0.2-0.5,0.3-0.7c0.1-0.2,0.1-0.6,0.2-1.2
				c0-0.6-0.1-1-0.3-1.2c-0.3-0.1-0.5-0.2-0.7-0.1c-0.2,0.1-0.5,0.2-0.9,0.5c-2,1.7-3.2,3.5-3.6,5.4c-0.1,0.7,0,1.1,0.2,1.5
				c0.2,0.3,0.6,0.4,1.1,0.3c0.5-0.2,1-0.4,1.4-0.8c0.4-0.4,0.7-0.7,0.8-0.8c0.1-0.1,0.2-0.2,0.3-0.4s0.2-0.3,0.3-0.5
				c0.1-0.2,0.2-0.3,0.2-0.4c0.1-0.1,0.1-0.3,0.2-0.5C382.1,59.3,382.2,59.1,382.2,59z"/>
			<path class="st13" d="M397.3,60.6c0,0.6,0.1,0.9,0.4,1c0.1,0,0.2,0,0.5,0c0.2,0,0.5-0.1,0.8-0.3c0.3-0.2,0.7-0.6,1.2-1.1
				c0.5-0.5,1.2-1.4,2-2.6c0.8-1.2,1.2-1.9,1.2-2.1s0.1-0.4,0.4-0.7c0.8-1.1,1.5-1.3,2.3-0.5c0.3,0.3,0.4,0.9,0.4,1.8
				c-0.5,2-1,3.2-1.3,3.6c-0.5,0.4-0.9,0.9-1.3,1.4c-0.7,0.9-1.3,1.4-1.6,1.7c-0.3,0.3-0.5,0.4-0.6,0.5c-0.8,0.8-1.8,1.4-2.9,1.7
				c-1.1,0.3-1.9,0.3-2.5-0.2c-0.8-0.4-1.2-1.1-1.2-2.1l-0.2-0.8c-0.4,0-0.7,0.3-1,0.8c-0.3,0.5-0.9,1.1-1.9,1.8c-1,0.7-1.7,1-2.2,1
				c-0.6,0-1.2-0.6-1.7-1.9c-0.5-1.2-0.8-2.5-0.6-3.7c0-0.9,0.1-1.7,0.3-2.5c0.2-0.8,0.3-1.3,0.3-1.4c0.2-1.6,0.5-2.7,1-3.4
				c0.4-0.6,1-0.9,1.6-0.8c0.6,0.1,1,0.4,1.1,1c0.2,0.2,0.3,0.8,0.2,1.6c-0.1,0.8-0.2,1.4-0.4,1.7c-0.1,0.1-0.2,0.8-0.3,2
				c-0.1,1.2-0.2,1.9-0.3,2.2c-0.1,0.8,0,1.1,0.4,0.9c0.4-0.2,1-0.8,1.7-1.8c0.7-1,1.2-1.8,1.5-2.3c0.3-0.5,0.6-1.3,0.9-2.2
				c0.3-1,0.6-1.6,0.9-1.9c0.3-0.3,0.6-0.4,1.1-0.4s0.8,0.2,1.2,0.4c0.8,0.8,0.8,1.8,0.2,3C397.8,57.6,397.3,59.2,397.3,60.6z"/>
			<path class="st13" d="M416.8,62.9l0.2-2.7v-0.6c-0.1-0.5-0.2-0.8-0.5-0.8c-0.5,0-1.3,0.5-2.6,1.4c-2.3,1.6-4,3.2-5.2,4.7
				c-0.2,0.3-0.4,0.4-0.6,0.5c-0.1,0-0.4,0-0.6,0s-0.6-0.3-1.1-0.8s-0.8-0.9-0.9-1.3c0-1,0.5-2.6,1.6-4.6c0.1-0.4,0.5-1.3,1.1-2.7
				c0.6-1.4,0.9-2.5,1-3.2l0,0c0-0.3,0.1-0.4,0.4-0.4c0.1-0.1,0.3-0.1,0.8-0.1s1,0.2,1.4,0.5c0.5,0.4,0.7,0.9,0.7,1.5s-0.3,1.7-1,3
				c-0.7,1.4-1,2.1-1,2.1c0.4-0.3,1.2-0.9,2.4-1.8c2.7-2.2,4.3-3.2,5-3.2c0.3,0,0.8,0.2,1.4,0.6c0.6,0.4,1,0.7,1.1,1l-0.2,1.8
				l0.1,2.2c0,0.8-0.1,1.4-0.2,1.8l0.1,0.2c-0.1,0.1,0,0.5,0.3,1.2c0.3,0.7,0.5,1.1,0.5,1.3c0,0.2-0.2,0.4-0.6,0.8
				c-0.4,0.4-0.7,0.6-1.1,0.6C417.6,65.7,416.8,64.7,416.8,62.9z"/>
			<path class="st13" d="M423.3,61.2c0.5-0.3,0.9-0.5,1.1-0.5c0.3,0,0.6,0.1,1.1,0.3c0.9,0.5,1.3,1.2,1.2,1.8
				c-0.1,0.7-0.7,1.3-1.7,1.8c-1,0.4-1.9,0.3-2.6-0.2C421.4,63.4,421.7,62.3,423.3,61.2z"/>
		</g>
	</g>
	<g>
		<defs>
			<rect id="SVGID_1_" x="491.7" y="7.4" width="431.9" height="143"/>
		</defs>
		<clipPath id="SVGID_2_">
			<use xlink:href="#SVGID_1_"  style="overflow:visible;"/>
		</clipPath>
		<g class="st14">
			<g id="XMLID_213_">
				<path id="XMLID_264_" class="st15" d="M612.9,91.6c3.9-1.6,8.2-2.4,12.4-3.1c4.4-0.8,8.7-1.6,13.1-2.4
					c-4.2-5.9-8.4-11.7-12.6-17.6c0,0-2.9,1.6-3.2,1.8c-1.9,0.9-3.9,1.5-6,1.9c-0.3,0-3.7,0.7-3.7,0.6c0.1,1.6,0.5,3.3,0.6,4.9
					c0.2,2.2,0.2,4.4,0.2,6.5C613.5,86.7,613.3,89.2,612.9,91.6z"/>
				<path id="XMLID_263_" class="st15" d="M613.4,75.9c5-0.7,9.8-2.3,14.2-4.8"/>
				<path id="XMLID_262_" class="st15" d="M613.5,79.3c5.6-0.6,11.1-2.3,16-5"/>
				<path id="XMLID_261_" class="st15" d="M613.6,82.8c4.8-0.7,9.5-2,14-3.8c1.4-0.6,2.8-1.2,3.9-2.2"/>
				<path id="XMLID_260_" class="st15" d="M636.5,83.5c-8,0.6-15.9,2.7-23.1,6.2"/>
				<path id="XMLID_259_" class="st15" d="M613.8,86.2c6.7-2,13.3-4,20-6"/>
				<path id="XMLID_258_" class="st15" d="M616.1,90.8c0,1.6,0.1,3.1,0.1,4.7c2.9-0.6,5.8-1.2,8.7-1.8c0.3-0.8,0.6-1.9,1-2.6
					c0.6,0.4,1.2,1.2,1.7,1.8c0.1,0.1,0.3,0.3,0.4,0.4c0.2,0.1,0.4,0,0.6,0c2.9-0.5,5.8-1.4,8.7-2c-1-1.3-1.9-2.8-2.5-4.4"/>
				<path id="XMLID_257_" class="st15" d="M620.9,94.8c0.3,1.8,0.6,3.6,0.9,5.4"/>
				<path id="XMLID_256_" class="st15" d="M633,92.5c0.5,1.6,1,3.2,1.5,4.8"/>
				<path id="XMLID_255_" class="st15" d="M635.2,96.8c1.2-0.8,3.1-1,4.4-1c0.3,0,0.5,0,0.8,0.1c0.2,0.1,0.4,0.3,0.5,0.6
					c0,0.3-0.1,0.5-0.3,0.7c-0.2,0.2-0.5,0.2-0.7,0.3c-0.8,0.2-1.7,0.3-2.6,0.4c-0.7,0-2.1,0.1-2.6-0.3
					C634.7,97.2,634.9,97,635.2,96.8z"/>
				<path id="XMLID_254_" class="st15" d="M618.7,100.4c-0.3,0.1-0.7,0.1-1,0.2c-0.4,0.1-0.8,0.1-1,0.4c-0.4,0.4-0.3,1,0,1.4
					s0.8,0.6,1.3,0.5c0.5,0,1-0.2,1.4-0.5c0.8-0.4,1.9-1.2,2.3-1.9c0.4-0.7-1-0.3-1.6-0.3C619.7,100.3,619.2,100.4,618.7,100.4z"/>
				<path id="XMLID_253_" class="st15" d="M625.7,68.3c2.7-0.3,5.4-0.7,8.1-1c0.3,0,0.5-0.1,0.8-0.2c0.3-0.2,0.4-0.5,0.5-0.9
					c0.8-2.2,1.6-4.3,2.4-6.5"/>
				<path id="XMLID_252_" class="st15" d="M612.5,72.9c-1.9,2-3.8,4.4-5.1,6.9c2.2,0.5,4.3,1.6,6,3.1"/>
				<path id="XMLID_251_" class="st15" d="M610.1,83.8c-0.2,0.2-0.3,0.4-0.3,0.7c0,0.4,0.5,0.7,0.9,0.6c0.4-0.1,0.8-0.4,1.1-0.6
					c0.6-0.5,1.2-0.9,1.7-1.5C612.4,82.3,610.8,83.1,610.1,83.8z"/>
				<path id="XMLID_250_" class="st15" d="M609.2,56.6c4-3.1,10.5-3.7,14,0.5c0.4,0.6,1.1,1.9,2,1.5c0.3-0.1,0.5-0.4,0.8-0.6
					c0.6-0.3,1.3,0.2,1.3,0.9c0,0.5-0.3,1-0.7,1.2c-0.4,0.3-0.9,0.4-1.4,0.4c0.7,0,0.9,3.2,0.9,3.7c-0.1,1.6-0.6,3.2-1.7,4.4
					c-1.8,2-4.9,3-7.4,3.5c-1.5,0.3-3.2,0.3-4.6-0.2c-0.8-0.3-1.5-0.7-2.1-1.2c-0.7-0.6-1-1.5-1.7-2.1c-0.4-0.4-0.9-0.6-1.5-0.6
					c-0.6,0-1.2,0.2-1.7-0.1c-0.5-0.3-0.7-1-0.4-1.5c0.3-0.6,0.8-0.4,1.3-0.5c0.5-0.1,0.5-0.8,0.4-1.3c-0.4-1.6-0.7-2.9-0.2-4.5
					C607,58.8,608,57.6,609.2,56.6z"/>
				<path id="XMLID_249_" class="st15" d="M610.6,62.6c-0.1-0.2-0.1-0.4,0-0.5c0.1-0.2,0.3-0.2,0.5-0.1c0.1,0.1,0.2,0.3,0.1,0.4
					c-0.1,0.1-0.2,0.3-0.4,0.3s-0.3-0.2-0.2-0.3"/>
				<path id="XMLID_248_" class="st15" d="M620.3,60.9c-0.1,0-0.3,0-0.3-0.1s-0.1-0.2,0-0.4c0.1-0.2,0.4-0.3,0.6-0.1
					c0.2,0.1,0.2,0.5,0,0.6c-0.1,0.1-0.4,0.1-0.5,0"/>
				<path id="XMLID_247_" class="st15" d="M637.6,59.6c0.7-0.2,1.5,0,2.3-0.3c0.6-0.2,1.1-0.8,1.2-1.4"/>
				<path id="XMLID_246_" class="st15" d="M637.4,59.6c-0.4-0.1-0.6-0.5-0.6-0.9"/>
				<path id="XMLID_245_" class="st15" d="M637.5,59.6c0.7,0,1.3-0.3,1.7-0.9"/>
				<path id="XMLID_244_" class="st15" d="M609.4,56.1c-1.5,0.5-3,1.3-4.2,2.4"/>
				<path id="XMLID_243_" class="st15" d="M608,57.6c-0.8,0-1.7,0.5-2.2,1.1c-0.5,0.7-0.8,1.6-0.6,2.4"/>
				<path id="XMLID_242_" class="st15" d="M611,55.1c-0.6,0-1.2,0.1-1.8,0.3c-0.6,0.2-1.2,0.5-1.5,0.9c-0.5,0.6-0.6,1.4-0.4,2.1"/>
				<path id="XMLID_241_" class="st15" d="M611.5,54.6c0-0.1,0-0.2,0-0.2c-0.8-0.2-1.6,0-2.3,0.5s-1,1.3-1.1,2.1"/>
				<path id="XMLID_240_" class="st15" d="M608.3,55.4c-1.4,0.2-2.6,1.6-2.6,3.1"/>
				<path id="XMLID_239_" class="st15" d="M607.1,58.2c-0.6,0.1-1,0.8-1,1.4c0,0.6,0.3,1.2,0.6,1.7"/>
				<path id="XMLID_238_" class="st15" d="M611.2,54.7c1-1.1,1.2-2.6,2.4-3.5"/>
				<path id="XMLID_237_" class="st15" d="M613.1,53.9c1.4-0.3,2.5-1.5,3.9-1.6"/>
				<path id="XMLID_236_" class="st15" d="M612.8,54.6c2-1.1,4.2-1.8,6.5-1.8"/>
				<path id="XMLID_235_" class="st15" d="M616.2,54c0.8-0.6,1.9-0.8,2.8-0.5s1.8,0.9,2.2,1.8"/>
				<path id="XMLID_234_" class="st15" d="M619.3,53.5c0.1,0.1,0.2,0.2,0.3,0.3"/>
				<path id="XMLID_233_" class="st15" d="M619.9,53.9c0.7-0.4,1.6-0.3,2.2,0.1c0.6,0.4,1,1.2,1,2"/>
				<path id="XMLID_232_" class="st15" d="M621,54.6c1.2,0.8,2,2.1,2.2,3.5"/>
				<path id="XMLID_231_" class="st15" d="M622.1,55.3c1.1,0.1,2,0.7,2.4,2.3"/>
				<path id="XMLID_230_" class="st15" d="M612.1,54.6c-0.3-0.5-0.8-0.9-1.4-1c-0.6-0.1-1.2,0-1.7,0.3"/>
				<path id="XMLID_229_" class="st15" d="M610.1,55.9c-0.5-0.3-1.2-0.4-1.7-0.2s-1.1,0.6-1.4,1.1"/>
				<path id="XMLID_228_" class="st15" d="M608.4,55.3c-0.4-0.3-1-0.3-1.4-0.1s-0.8,0.6-1,1.1"/>
				<path id="XMLID_227_" class="st15" d="M613,54.6c0.3-1.1,1-1.8,2-2.3c1-0.5,2.2-0.5,3.2-0.1"/>
				<path id="XMLID_226_" class="st15" d="M606.3,60.1c-0.7,0.4-1.2,1.2-1.1,2c0.2,1.3,1.3,1.4,2.1,1.6"/>
				<path id="XMLID_225_" class="st15" d="M612.3,54.3c1.4-1.8,4.1-3.6,6.4-3.2"/>
				<path id="XMLID_224_" class="st15" d="M615.9,53.5c0.9-1,2.4-1.4,3.7-1"/>
				<path id="XMLID_223_" class="st15" d="M610,56.2c-0.5,0.1-0.9,0.5-1,1s0,1,0.4,1.3"/>
				<path id="XMLID_222_" class="st15" d="M616.2,54.1c0.6-0.2,1.5,0.1,1.9,0.7c0.4,0.6,0.7,1.3,0.6,2"/>
				<path id="XMLID_221_" class="st15" d="M608.3,56.7c-0.9,0.9-1.1,2.5-0.4,3.6"/>
				<path id="XMLID_220_" class="st15" d="M612,65.5c1.5,1.4,3.6,1.9,5.6,1.4c1.9-0.5,3.6-2.1,4.1-4"/>
				<g id="XMLID_214_">
					<path id="XMLID_219_" class="st15" d="M621.8,41.3c0.3-0.9,1-1.7,1.9-2c0.9-0.3,2,0,2.6,0.7c-0.1-0.4-0.1-0.8,0.1-1.2
						s0.4-0.7,0.8-0.9c0.6-0.2,1.3,0.2,1.6,0.8c0.3,0.6,0.3,1.3,0.3,1.9c-0.2-0.5,0.1-1.1,0.5-1.3s1-0.1,1.5,0.2
						c0.4,0.3,0.8,0.7,1.1,1.1c-0.3-0.4-0.5-0.8-0.7-1.2s-0.1-1,0.2-1.3c0.3-0.3,0.7-0.4,1.1-0.4c0.6,0,1.2,0.4,1.5,0.9
						c0.3,0.5,0.4,1.2,0.2,1.8c0.2-0.8,0.9-1.4,1.7-1.3c0.8,0,1.5,0.7,1.6,1.5c0.1,0.8-0.6,1.6-1.4,1.7c0.5,0.1,1.1,0.3,1.5,0.7
						c0.4,0.4,0.7,1,0.5,1.5c-0.3,0.6-1.1,0.8-1.7,0.5s-1-1-1.1-1.6c0.2,0.6,0.3,1.1,0.4,1.7c0,0.6-0.1,1.2-0.5,1.6
						c-0.6,0.6-1.6,0.7-2.3,0.3c-0.7-0.4-1.2-1.1-1.5-1.9c0.1,0.7,0.2,1.5,0.3,2.2c0,0.3,0.1,0.6,0,0.8c-0.2,0.5-1,0.6-1.5,0.3
						s-0.7-0.8-1-1.3c0.1,0.5,0.3,1.1,0.2,1.6c-0.1,0.6-0.4,1.1-0.9,1.3c-0.6,0.2-1.3-0.2-1.6-0.7s-0.4-1.2-0.5-1.8
						c-0.1,0.5-0.3,1-0.7,1.4c-0.4,0.4-0.9,0.7-1.4,0.6c-0.7-0.1-1.2-0.7-1.3-1.3c-0.1-0.7,0.1-1.4,0.4-2c0.5-0.7,0.3-0.8-0.5-1.1
						C622,44.4,621.5,42.7,621.8,41.3z"/>
					<path id="XMLID_218_" class="st15" d="M626.4,38.8c-0.9-0.3-1.6-1.3-1.5-2.2c0.1-1,0.8-1.8,1.8-2s2,0.3,2.4,1.2
						c-0.2-0.4-0.2-0.9,0-1.3s0.7-0.6,1.1-0.6c0.9,0,1.4,0.8,1.9,1.6c0.3-0.9,0.8-1.8,1.6-2.4c0.8-0.6,1.9-0.8,2.7-0.3
						c0.8,0.5,1.2,1.7,0.7,2.5c0.5-0.5,1.4-0.5,2,0c0.5,0.5,0.5,1.4,0,2"/>
					<path id="XMLID_217_" class="st15" d="M635.1,39.5c-0.2-1.1,0.6-2.3,1.8-2.6c1.1-0.2,2.4,0.5,2.7,1.6c-0.4-1.1,0.2-2.5,1.3-2.9
						c1.1-0.4,2.5,0.3,2.8,1.4s-0.5,2.5-1.7,2.7c0.9-0.4,1.9-0.3,2.7,0.2c0.7,0.5,1.6,1.5,0.9,2.3c-1,1-3.4,0.1-4.4-0.5
						c0.4,0.4,0.8,0.8,1,1.3c0.2,0.5,0.2,1.1-0.2,1.5c-0.3,0.3-0.7,0.4-1,0.5c-0.8,0.1-1.7-0.1-2.4-0.5"/>
					<path id="XMLID_216_" class="st15" d="M625.7,44.1c-0.2-0.2-0.3-0.6-0.2-0.9c0.1-0.3,0.4-0.5,0.7-0.5c0.1,0,0.3,0,0.4,0
						c0.1,0,0.3,0,0.4-0.1c0.1-0.1,0.2-0.2,0.1-0.4"/>
					<path id="XMLID_215_" class="st15" d="M636.6,57.5c1.4-0.2,2.9-0.4,4.3-0.6c-0.6-3.1-0.4-6.4,0.5-9.5c0.1-0.3,0.2-0.6,0.3-1
						c0.1-0.4,0.2-0.9,0.2-1.3c0,0-0.8,0.1-0.9,0.1c-0.3,0-0.6,0-0.8,0c-0.5,2-0.9,4-1.4,6c-0.4-1.7-0.8-3.4-1.2-5.2
						c-0.1-0.3-0.1-0.6-0.3-0.8c-0.2-0.2-0.5-0.3-0.7-0.2c-0.3,0.1-0.3,0.5-0.4,0.8c-0.3,0.8-1,1.4-1.9,1.5c0.7,1.2,1.5,2.5,2.2,3.7
						c-1.4-1-2.8-2-4.2-3c-0.3,0.3-0.6,0.4-1,0.4c-0.3,0-0.6,0-0.9,0.1c0.7,0.4,1.5,0.8,2.1,1.4c0.7,0.7,1.4,1.4,1.9,2.2
						C635.4,53.8,636.2,55.6,636.6,57.5z"/>
				</g>
			</g>
			<g id="XMLID_201_">
				<path id="XMLID_212_" class="st16" d="M623.3,112.8c-3.4,0.5-7.4,1.3-9.8,2.8c-1,0.6-1.5,1.2-2.4,1.8c-2.9,2-8.4,3.2-12.6,3.8
					c-4.1,0.6-8.4,1-12.8,2.8c-1.7,0.7-3.3,1.5-4.9,2.3c-6.4,2.9-13.2,4.4-19.6,7.6c-2.6,1.3-4.9,2.8-7.1,4.3
					c-4.5,2.9-8.9,6-13.3,9.1c-1.3,0.9-2.6,1.9-3.6,2.8c-1,0.9-1.5,1.8-1.1,2.1c1.8-0.7,3.7-2.1,5.4-3.3c3.9-2.7,8.4-5.1,12.9-7.4
					c1.5-0.7,3-1.5,4.4-1.9c2.7-0.8,3.8,0.1,3,1.4c-0.2,0.4-0.6,0.8-0.7,1.2c-0.2,0.8,0.9,1,1.1,1.5c0.5,1.1-1.9,3.3-3.9,5.2
					c-2,1.9-3.6,4.2-1.7,4.4c1.4,0.2,4.4-0.7,5.5-0.4c1.2,0.4-0.1,2.1,0.6,2.8c0.7,0.7,3.4,0.3,5.2,0.4c2.4,0.1,3.8,1,7.2,0.3
					c1.8-0.4,3.8-1.1,5.7-1.6c2.3-0.6,4.2-0.8,6.2-1c1.2-0.1,2.5-0.2,3.4-0.1c0.8,0.1,1.4,0.3,2.4,0.3c1.3,0,3-0.4,4.7-0.7
					c3.2-0.6,4.3,0.5,2,2.1c-1.4,0.9-3.4,1.8-4.6,2.8c-1.9,1.4-1.8,2.7,0.2,2.9c1,0.1,2.3,0,3.2,0.1c2.8,0.4,1.5,2.8,4.6,3.1
					c1.1,0.1,2.7-0.1,3.9,0c1.8,0.1,2.5,0.8,2.6,1.6c0.2,0.8-0.1,1.7,0.1,2.6c0.2,1,1.1,1.7,1.8,2.6c1.5,1.7,2.6,3.6,3.2,5.6
					c0.1,0.5,0.3,1.1,0.9,1.4c0.5,0.3,1.4,0.5,2.3,0.7c2.9,0.6,6.4,1.2,10.9,0.3c-2.7-1-4.6-2.3-5.4-3.9c-0.1-0.2,0.2-0.5,0.8-0.7
					c0.2-0.1,0.5-0.2,0.7-0.3c0.5-0.2,0.4-0.5-0.1-0.5c-1.4,0-1.9-0.7-0.5-1.4c1.3-0.6,3.3-0.9,4.7-1.5c1.7-0.7,2.1-1.6,1.6-2.2
					c-0.2-0.2-0.5-0.4-0.8-0.6c-0.5-0.3,0.7-0.9,1.7-0.8c0.6,0,1.3,0,2.1-0.2c0.9-0.2,1.7-0.6,2-1c0.9-0.9,0.2-1.5,0.6-2.3
					c1-1.9,7.2-3.5,10.3-5.3c1.4-0.8,2.2-1.7,2.9-2.6c0.9-1.2,1.8-2.3,2.5-3.4c0.5-0.8,1-1.7,0.7-2.4c-0.3-0.7-1.6-1.3-3.6-1.3
					c-1,0-2.1,0.1-3.2,0.3c-5.8,0.6-11.3,0.6-14.4-0.6c-2.1-0.8-3-2.1-5.4-2.8c-0.4-0.1-0.8-0.2-1.4-0.2c-1.6,0.1-3.3,1-5,1.2
					c-1.4,0.2-2.2,0-3.3-0.1c-2.9-0.2-7.8,1-10.5,2.8c-0.9,0.6-1.6,1.2-2.8,1.7c-0.9,0.4-2,0.6-2.7,0.6c-0.4,0-0.9,0-1.5,0.2
					c-1.5,0.4-3.4,0.6-4.1,0.4c-0.9-0.2-1.2-0.8-1.2-1.4c0-0.4,0-0.8-0.6-0.9c-0.6-0.1-2.1,0.6-2.5,0.9c-1.3,0.5-1.8-0.3-1.5-0.9
					c0.4-0.7,1.1-1.4,0.7-1.8c-2.2,0.9-4.5,1.9-6.7,2.9c-1,0.4-2.1,0.9-2.8,0.9c-0.3,0-0.4-0.1-0.5-0.2c-0.4-0.3-0.7-0.7-0.7-1.2
					c0-2.6,6.1-4.9,11.1-6.4c1.3-0.4,2.7-0.8,3.8-0.9c2.2-0.1,2.2,1.2,4.8,0.9c0.7-0.1,1.5-0.3,2.1-0.6c1.7-0.8,1.4-1.5,1-2.1
					c-0.4-0.6-0.6-1.3-0.5-2c0-0.4,0.1-0.8,0.8-1.3c1.2-0.8,3.2-1.2,4.9-1.8c1.3-0.5,2.5-1.1,3.1-1.7c0.7-0.7,0.7-1.3,1.5-2
					c1-0.8,3-1.6,4.9-2.1c1.9-0.5,3.9-1,5.7-1.6c3.8-1.3,6.1-3.4,4.7-4.5c-0.2-0.2-0.6-0.4-0.3-0.7c0.2-0.2,0.7-0.5,1.3-0.7
					c1.7-0.6,3.5-1,5.2-1.6c1.7-0.6,3.3-1.3,3.4-2c0-0.3-0.2-0.5-0.4-0.7c-0.6-0.6-1.3-1.2-1.9-1.8c-0.2-0.2-0.8-0.3-1.6-0.2
					c-1.4,0.2-1.7,0.8-2.8,1.2c-1,0.3-1.9,0.2-2.3-0.1c-0.6-0.3-1.1-0.6-2.6-0.3c-0.5,0.1-1.1,0.3-1.5,0.5
					c-5.1,2.4-6.6,5.4-12.1,7.8c-1.4,0.2-1.7-0.4-2.5-0.6c-1.1-0.3-3.6,0-5.5,0.8c-0.7-0.1-0.6-0.6-0.1-1.1c0.5-0.5,1.4-1,2.2-1.5
					c2.4-1.4,4.9-2.8,7.3-4.1c0.6-0.3,1.4-0.5,1.8-0.3c0.2,0.1,0.5,0.1,0.8,0.1c0.8,0,1.9-0.2,2.9-0.5c1.4-0.4,3-1.1,2.6-1.5
					c-0.1-0.1-0.4-0.2-0.4-0.3c-0.1-0.3,1-0.7,1.8-1c2.3-0.8,4-1.4,6.4-2.2c0.1,0.1,0.6,0.5,0.1,0.9c-0.5,0.4-1.4,0.9-1,1.1
					c0.4,0.2,1.5,0,2,0.1c1.2,0.1,2.7-0.1,4.1-0.4c4.6-1.2,4-2.4,3.3-3.3c-0.1-0.2-0.3-0.3-0.7-0.4c-0.6-0.1-1.6,0.1-2.4,0.2
					c-1.9,0.2-3.6,0.1-5.4,0.3C626,111.9,625.5,111.7,623.3,112.8C623.3,112.8,623.3,112.8,623.3,112.8z"/>
				<path id="XMLID_211_" class="st16" d="M664.7,102.6c-3.1,0.3-6.2,0.7-9.2,1.1c-2.5,0.3-5.1,0.7-7.3,0.5c-0.7,0-1.3-0.2-2-0.1
					c-0.7,0-1.5,0.1-2.2,0.3c-1.7,0.3-3.3,0.6-5,0.9c-1.3,0.2-2.7,0.4-4,0.7c-1.2,0.3-2.3,0.7-3.4,1.1c-1.8,0.7-3.5,1.4-5.3,2.1
					c-1.2,0.5-2.4,1-2.4,1.6c0,0.4,0.7,0.5,1.7,0.5c1.7-0.1,3.5-0.6,5.1-1.2c1.8-0.5,3.5-1.1,5.3-1.6c1-0.3,2-0.6,3-0.8
					c1.9-0.4,3.7-0.4,5-0.1c0.9,0.2,1.5,0.5,2.4,0.6c0.6,0.1,1.3,0,2-0.1c0.9-0.2,1.7,0,1.8,0.3c0.2,0.6,0,1.4-0.7,2.1
					c-1,1.1-2.9,2.4-0.7,3.1c0.6,0.2,1.4,0.2,2.3,0.2c0.5,0,1.2,0,1.8-0.1c1-0.2,1.7-0.6,2.2-0.9c0.5-0.4,0.8-0.8,1.6-1.1
					c0.6-0.3,1.4-0.5,2.2-0.7c2.5-0.7,4.5-1.7,7.2-2.1c1.6-0.2,3.2-0.3,4.8-0.5c2.5-0.4,4.5-1.2,6-2c1.5-0.8,2.7-1.7,4.5-2.5
					c0.8-0.3,1.8-0.6,2.5-1c0.5-0.2,0.8-0.5,1.1-0.8c0.5-0.5-0.2-1-1.6-1c-2.7-0.1-5.3-0.3-8,0c-0.9,0.1-1.8,0.3-2.7,0.5
					C669.8,102.2,668.3,102.2,664.7,102.6"/>
				<path id="XMLID_210_" class="st17" d="M589.4,145.3c-0.6,0.2-1.2,0.4-1.7,0.7c-0.5,0.3-0.9,0.6-0.9,0.8c0,0.1,0.2,0.2,0.3,0.2
					c0.4,0.1,1.3,0.2,2-0.1c0.4-0.2,0.7-0.4,1-0.6c0.6-0.3,1.5-0.7,1.6-1C591.8,145,590.7,144.9,589.4,145.3"/>
				<path id="XMLID_209_" class="st16" d="M599,147.1c1.2-0.3,2-0.5,2.9-0.5c0.9,0,1.7-0.2,2.6-0.2c2.1,0,5.6-1.2,7.5-2.3
					c0.1,0,0.1-0.1,0.2-0.1c0.1-0.1-0.1-0.4-0.3-0.3c-0.2,0-0.4,0-0.6,0.1c-0.6,0.1-1.1,0.2-1.6,0.2c-2.3,0.1-5.7,1.4-7.8,1.4
					c-0.3,0-0.6,0-1.1,0c-0.4,0.1-0.8,0.2-1.1,0.4c-0.7,0.3-1.3,0.7-1.7,1.1C597.5,147.1,598.7,147.2,599,147.1"/>
				<path id="XMLID_208_" class="st16" d="M606.1,142.7c-0.1,0.4,2.9,0.1,4.4-0.5c0.8-0.3,1.4-0.7,1.5-1c0-0.1,0-0.2-0.2-0.2
					c-0.2-0.1-0.6,0-1,0c-1.5,0.3-3.1,0.8-4.4,1.4c-0.1,0-0.2,0.1-0.2,0.1C606.2,142.6,606.1,142.6,606.1,142.7"/>
				<path id="XMLID_207_" class="st16" d="M714.7,125.6c0,0-0.1,0-0.1,0c-0.5,0-1.1-0.1-1.7-0.1c-0.6,0-1.3-0.1-1.9-0.2
					c-1.3-0.2-2.3-0.4-3-0.8c-0.7-0.4-0.8-0.9-1.2-1.3c-0.5-0.4-1.6-0.9-2.9-0.8c-1.2,0.1-2,0.5-3.2,0.5c-1.4,0-2.3-0.6-3.6-0.7
					c-1,0-1.8,0.2-2.6,0.4c-1,0.3-2,0.6-3.2,0.8c-1.2,0.2-2.6,0.3-3.7,0.2c-0.4-0.1-0.8-0.1-1.3-0.2c-0.5,0-1,0-1.3,0.2
					c-0.2,0.1-0.2,0.2-0.2,0.3c0,0.9-1.1,1.7-2.7,2.5c-1.5,0.8-3.5,1.4-5.4,2.1c-1.4,0.5-2.9,1.1-3.1,1.7c-0.2,0.4,0.3,0.9-0.4,1.3
					c-0.3,0.2-0.7,0.3-1,0.5c-0.5,0.3-0.3,0.7,0.1,0.9c0.4,0.3,0.9,0.5,1.3,0.7c1,0.8,0.2,1.8,0.3,2.6c0.1,0.9,1.2,1.7,3.1,2.2
					c0.6,0.2,1.2,0.3,1.7,0.5c1.2,0.4,2.1,0.9,3.6,1c1.1,0.1,2.4,0.1,3.7,0c1.3,0,2.6-0.1,3.9-0.2c0.8-0.1,1.5-0.2,2.2-0.3
					c4.1-0.6,9-0.2,12,0.9c4.4,1.7,4.2,4.5,6.1,6.7c0.4,0.5,0.8,1,0.8,1.5c-0.1,1.2-2.7,2.1-3.1,3.3c-0.4,1.3,1.9,2.5,2.6,3.8
					c0.2,0.4,0.3,0.9,0.7,1.3c0.4,0.5,1.1,1,1.9,1.4c1.2,0.7,2.3,1.4,3.5,2.2c0.4,0.2,0.8,0.5,1.4,0.7c0.7,0.2,1.5,0.2,2.2,0.3
					c4.7,0.1,8.3-1.1,10-2.5c0.4-0.3,0.7-0.6,1.5-0.8c1.4-0.4,4-0.1,5.1-0.6c1.5-0.6-0.7-1.9-0.1-2.7c0.7-1,4.5-0.8,6.6-1.3
					c2.1-0.4,2.6-1.5,2.6-2.5c0-1-0.4-2.1,0.1-3c0.9-1.4,3.9-2.3,6.7-3.1c2.4-0.7,4.7-1.5,5.2-2.7c0.2-0.6-1-1.4-2.8-1.8
					c-1.3-0.3-2.7-0.3-4-0.5c-4.3-0.6-8.1-2.2-10.3-3.7c-2.1-1.5-3.3-3-4.4-4.6c-0.7-1-1.5-2.1-0.8-3c2.1,0.5,3.9,1.2,4.9,2.1
					c0.5,0.4,0.9,0.8,1.2,1.2c0.7,0.8,1.4,1.7,2.1,2.5c1,1.2,2,2.4,4.1,3.5c1.4,0.7,3.4,1.4,5.4,1.6c1,0.1,2,0,2.8,0
					c2.2-0.1,4.5-0.2,6.2-0.6c1.3-0.3,2.3-0.8,1.8-1.6c-0.6-0.9-2.9-1.8-3.1-2.6c-0.1-0.2,0-0.3-0.1-0.5c-0.3-0.5-1.7-0.9-2.9-1.1
					c-1.2-0.2-2.5-0.3-3.7-0.5c-0.3-0.1-0.6-0.1-0.9-0.2c-0.2-0.1-0.3-0.2-0.3-0.3c-0.3-0.5-0.7-1-1-1.5c-0.2-0.3-0.3-0.5,0.2-0.7
					c0.8,0.2,1.3,0.5,2,0.8c0.6,0.2,1.3,0.4,2,0.6c0.9,0.2,1.9,0.5,2.8,0.7c1.1,0.3,2.2,0.6,3.2,1c0.8,0.3,1.5,0.6,2.3,0.9
					c1.7,0.7,3.6,1.3,5.5,1.9c1.2,0.4,2.4,0.8,3.7,1.1c1.1,0.3,1.9,0.4,2.7,0.9c1.7,1,2.8,1.9,3.6,2.9c0.8,1,1.2,2,1.8,3.1
					c1,1.7,2.8,3.5,5.2,5.4c0.2,0.2,0.6,0.4,1,0.5c0.3,0.1,0.5,0.1,0.8,0.1c2.6,0,5.3-0.1,6.2-0.9c0.2-0.2,0.3-0.4,0.6-0.6
					c0.2-0.2,0.5-0.3,0.8-0.5c1.3-0.6,2.6-1.2,4.6-1.5c0.2,0,0.5,0,0.8,0c0.3,0.1,0.6,0.2,0.8,0.3c4.7,2.4,8.8,5.1,12.2,7.8
					c0.9,0.7,2.7,1.4,3.8,2.1c0.7,0.4,1.1,0.9,1.8,1.3c1.4,0.8,3.5,1.3,4.4,1.2c1-0.1,1.1-0.7,1.2-1.4c0.1-0.7,0-1.4-0.5-2.2
					c-0.6-0.9-1.7-1.9-3.4-2.8c-0.5-0.3-1-0.5-1.5-0.8c-0.4-0.3-0.7-0.6-0.5-0.7c0.1-0.1,0.3,0,0.6,0c1.7,0.2,3.9,1,5.8,1.7
					c2.7,0.9,5.3,1.6,7.5,1.8c0.8,0.1,1.7,0.1,1.9-0.2c0.3-0.4-0.6-1.2-1.2-1.9c-1-1.1-1.8-2.1-2.6-3.1c-0.6-0.9-1.3-1.7-1.6-2.5
					c-0.2-0.5-0.2-1-0.1-1.3c0.2-0.4,2,0.2,2.5,0.9c0.4,0.5,0.7,1,1.1,1.4c0.8,0.9,2.2,2.2,4.1,2.9c0.8,0.3,1.4,0.4,1.9,0.4
					c1.2-0.1,0.6-1.2-0.8-2.2c-0.5-0.4-1.2-0.8-1.7-1.1c-0.5-0.4-0.9-0.8-0.6-0.9c0.1-0.1,0.3-0.1,0.5-0.1c1.4,0,3,0.4,4.6,0.5
					c1.3,0.2,1.4-0.5,1.4-1c0-0.5,0-0.9,0-1.4c0-0.3,0-0.5-0.2-0.9c-0.3-0.5-1-1.1-1.8-1.6c-1.2-0.8-2.6-1.7-4.1-2.3
					c-1.2-0.5-2.4-0.7-3.5-1.7c-0.5-0.4-0.8-0.8-0.7-1.1c0.1-0.4,0.6-0.6,1.2-0.7c0.4-0.1,1,0.1,1.7,0.4c1.7,0.8,3.6,1.2,5.4,2.1
					c0.8,0.4,1.5,0.9,2.3,1.3c0.9,0.4,1.8,0.6,2.4,0.7c0.6,0,1-0.1,1.5-0.2c0.3-0.1,0.7-0.1,1.3,0.2c0.6,0.3,0.7,0.6,0.7,0.8
					c0,0.5,0,0.9,0,1.4c0,0.5,0,1.1,0.7,1.9c0.2,0.3,0.6,0.6,0.9,0.8c0.5,0.4,1,0.9,1.5,1.3c0.8,0.7,1.7,1.6,3,2.3
					c0.3,0.2,0.6,0.3,0.9,0.4c0.6,0.1,0.5-0.2,0.4-0.5c-0.3-0.8-1-1.6-1.4-2.4c-0.4-0.8-0.6-1.5,0-1.9c0.2-0.1,0.6-0.2,1.1,0
					c0.4,0.1,0.9,0.4,1.4,0.6c1.2,0.6,2.5,1.2,3.6,1.6c1.9,0.6,2.7,0.1,3.4-0.3c0.2-0.1,0.3-0.3,0.1-0.6c-0.4-0.7-1.7-1.5-3-2.2
					c0,0,0,0,0,0c-10.5-7.5-23.6-10.8-35.5-16.7c-1.8-0.9-3.6-1.9-5.6-2.6c-4.8-1.9-9.5-2.3-14.3-4c-3.2-1.2-6.1-2.8-9.4-3.6
					c-1.8-0.5-3.6-0.6-5.4-1c-1.8-0.4-4.1-1.3-4.3-2c-0.1-0.3,0.2-0.5,0-0.7c-0.3-0.6-1.9-1.1-3.3-1.5c-10-2.9-20.8-3.2-26.5-1.1
					c-0.3-0.7-2.2-1.5-4-1.6c-1.7-0.1-3,0.3-4.9,0c-0.7-0.1-1.4-0.3-1.7-0.6c-1.6-1.2,5.2-0.8,4.5-2c-2.2-0.8-5.5-1.6-6.8-0.9
					c-0.6,0.3-0.3,0.8-0.5,1.3c-0.4,1.1-3.9,1.4-7,1.6c-1.5,0.1-3-0.3-4.3-0.6c-8.4-2.2-19-3.3-26.6-1.5c-3.1,0.7-5.4,2.4-2.6,3.4
					c0.6,0.2,1.5,0.4,1.9,0.6c0.8,0.5,0,1.2,1.6,1.5c1.1,0.3,2.4,0.2,3.3-0.1c1.8-0.6,1.5-1.5,1.7-2.3c0.2-0.7,1-1.4,2.9-1.5
					c1.9,0,1,1.3,2.5,1.8c0.7,0.2,1.6,0.2,2.5,0.4c0.8,0.1,1.7,0.5,1.1,0.7c-3.2,1.4-7.5,2.9-12.9,2.5c-2.1-0.1-4.4-0.5-6-0.1
					c-0.8,0.2-1.1,0.6-1.7,0.9c-0.6,0.3-1.9,0.5-2.6,0.3c-0.5-0.2-0.9-0.5-1.4-0.7c-1.1,0.9-3.1,1.6-5.5,2.1c-0.5,0.1-1,0.3-1.3,0.5
					c-1,0.8,2.9,1.1,3.5,1.8c0.7,0.9-3.2,1.5-5.6,1.4c-0.6,0-1.3,0-1.9,0c-6.5,0.6-4.4,2.4-1.1,2.6c2.3,0.1,4.7-0.2,6.9-0.6
					c3.6-0.7,7.3-1.5,8.8-2.8c0.2-0.2,0.6-0.4,1.1-0.5c1.4-0.3,3.6,0.1,4.4,0.4c1.8,0.7,4.1,2.1,5.7,3c-1.9,0.2-4.2,0.5-3,1
					c0.8,0.3,1.9,0.2,3.1,0.1c0.9-0.1,3.8-0.6,3.5-0.9c-1.6-1.1-2.5-1.8-3.8-2.8c-0.4-0.3,0.6-0.6,1.3-0.4c2.6,0.7,4.7,1.8,5.7,2.9
					c0.4,0.4,0.8,0.9,2.1,1.1c0.9,0.1,1.8,0,2.3-0.2c0.6-0.3,0.7-0.6,0.6-1c0-0.1,0.3-0.1,0.5,0c0.9,0.7,1.9,1.3,3.4,1.9
					c1.8,0.7,4.3,1.2,6.6,1.2c1.1,0.9,1.6,2.1-1.6,2c-1.3,0-2.5-0.3-3.6-0.6c-1.3-0.4-3.7-0.6-4.8-0.3c-0.7,0.2-1.8,0.1-2.7-0.1
					c-0.9-0.2-1.7-0.4-2.6-0.6c-0.5-0.1-1-0.2-1.5-0.2c-0.5,0-1,0.1-1.5,0.2C715.5,125.4,715.2,125.6,714.7,125.6z"/>
				<path id="XMLID_202_" class="st17" d="M681.3,107.7c-2.4,0.3-4.7,0.8-6.4,1.6c-0.4,0.2-0.9,0.5-0.7,0.6c0.1,0.1,0.4,0.2,0.7,0.2
					c1.6,0.3,3.8,0.1,5.5-0.3c1.7-0.4,2.8-1.1,2.8-1.8c0,0,0-0.1-0.1-0.1C683,107.9,682.6,107.6,681.3,107.7"/>
			</g>
			<g id="XMLID_144_">
				<g id="XMLID_169_">
					<path id="XMLID_200_" class="st15" d="M798.6,48.4c-1.4-0.4-2.7-0.9-4-1.5c-3.5-1.4-7-2.8-10.5-4.3c-3-1.3-6.2-2.4-8.6-4.7
						c0.1,0.6,0.1,1.1,0.2,1.5c1.5,6.9,6.3,13.8,13.2,16.2c3.5,1.2,7.4,1.2,10.8,0c3.7-1.3,6-3.8,8.4-6.7c-0.6,0.8-2.3,0.7-3.2,0.7
						C802.8,49.5,800.7,49,798.6,48.4z"/>
					<path id="XMLID_199_" class="st15" d="M776.6,38.7c0.3-1.6,1-2.9,2.7-3.2c1.3-0.3,2.8-0.1,3.9,0.7c1,0.7,1.3,2.1,1,3.2
						c-0.2,1-0.7,1.9-1.2,2.8"/>
					<path id="XMLID_198_" class="st15" d="M777.4,39.1c0.3-0.6,0.7-1.2,1.1-1.7c0.2-0.2,0.5-0.5,0.8-0.4c0.3,0.1,0.4,0.4,0.5,0.7
						c0.1,0.8-0.2,1.6-0.4,2.4"/>
					<path id="XMLID_197_" class="st15" d="M780.8,39.2c-0.1,0.1-0.1,0.3,0,0.4c0.1,0.1,0.2,0.1,0.4,0.1c0.4,0,0.8,0,1.2,0
						c0.2,0,0.5,0,0.7-0.1c0.3-0.2,0.4-0.6,0.4-0.9c0-0.5-0.3-0.9-0.6-1.2c-0.4-0.3-0.9-0.6-1.2-0.1C781.2,37.9,781,38.6,780.8,39.2
						z"/>
					<path id="XMLID_196_" class="st15" d="M780.5,40.9c0.3,0,0.5-0.1,0.8-0.2c0.3-0.1,0.6-0.1,0.8,0c0.3,0.2,0.3,0.6,0.1,0.8"/>
					<path id="XMLID_195_" class="st15" d="M782.2,38.3c0,0.2,0.1,0.3,0.1,0.5"/>
					<path id="XMLID_194_" class="st15" d="M778.6,39c0.1-0.2,0.1-0.3,0.2-0.5"/>
					<path id="XMLID_193_" class="st15" d="M779.1,35.4c-0.4-0.6-0.3-1.5,0.2-2.1s1.3-0.8,2-0.8s1.5,0.3,2.2,0.6"/>
					<path id="XMLID_192_" class="st15" d="M782.8,35.6c0-0.4-0.1-0.9,0-1.3c0.1-0.4,0.3-0.8,0.7-1c0.4-0.2,0.9-0.1,1.1,0.3
						c0.2,0.4,0.1,0.9,0.4,1.1c0.3,0.2,0.6,0,0.9-0.2c0.3-0.2,0.6-0.4,0.9-0.2c0.4,0.2,0.4,0.7,0.7,1c0.3,0.2,0.6,0.2,1,0
						c0.3-0.1,0.6-0.4,0.9-0.5c0.3-0.1,0.7-0.1,0.9,0.1c0.2,0.2,0.2,0.6,0.2,0.9c0,0.3,0,0.7,0.3,0.9c0.3,0.2,0.7,0,1.1,0.1
						c0.5,0.1,0.8,0.6,0.5,1.1c-0.2,0.4-0.8,0.6-0.8,1.1c0,0.4,0.4,0.6,0.8,0.7c0.4,0.1,0.8,0.1,1,0.4c0.3,0.3,0.2,0.8-0.1,1.2
						c-0.3,0.3-0.7,0.5-1.1,0.6c-0.4,0.1-0.8,0.1-1.2,0.3c-1,0.4-1.7,1.4-1.7,2.4"/>
					<path id="XMLID_191_" class="st15" d="M780.9,34c0.3,0.1,0.6,0.1,0.8-0.1"/>
					<path id="XMLID_190_" class="st15" d="M784.3,38.1c0.7-0.5,1.7-0.4,2.5-0.2c0.6,0.2,1.2,0.5,1.6,1c0.6,0.7,0.7,1.7,0.6,2.5
						c-0.1,0.9-0.5,1.7-0.9,2.5"/>
					<path id="XMLID_189_" class="st15" d="M784.6,39c0.8-0.1,1.4,0.1,1.9,0.6c0.5,0.5,0.7,1.1,0.8,1.8c0,0.7-0.1,1.3-0.4,2"/>
					<path id="XMLID_188_" class="st15" d="M784,40.2c0.4-0.1,1.3,0,1.5,0.4c0.3,0.3,0.4,0.6,0.5,1c0.1,0.5,0,1-0.2,1.4"/>
					<path id="XMLID_187_" class="st15" d="M783.9,41.2c0.3,0,0.8,0.2,0.9,0.5s0.2,0.6,0.2,0.9"/>
					<path id="XMLID_186_" class="st15" d="M787.8,38.1C787.9,37.8,787.8,38.4,787.8,38.1c0.1-0.5,0.9-1.3,1.3-1.6"/>
					<path id="XMLID_185_" class="st15" d="M785.7,37.7c0.3-0.4,0.5-0.8,0.7-1.7"/>
					<path id="XMLID_184_" class="st15" d="M791.7,36.7c0-0.4-0.1-0.8,0-1.2c0.1-0.4,0.2-0.8,0.6-1s0.8-0.3,1.1,0
						c0.3,0.3,0.5,0.8,0.9,0.9c0.4,0.1,0.7-0.3,0.9-0.6s0.5-0.6,0.9-0.6c0.6,0.1,0.5,1.1,1,1.4c0.3,0.2,0.7,0.1,1-0.1
						s0.6-0.4,0.9-0.6s0.7-0.2,1,0.1c0.3,0.3,0.1,0.9,0.3,1.3c0.2,0.4,0.8,0.4,1.2,0.3c-0.1,0.5-0.2,1-0.3,1.5"/>
					<path id="XMLID_183_" class="st15" d="M797,40.3c0-0.7-0.7-2.7,0.8-2.4c0.3,0.1,0.6,0.4,1,0.3c0.4-0.1,0.6-0.6,1.1-0.6
						c0.4,0,0.6,0.6,1,0.7c0.5,0.2,1-0.5,1.5-0.3c0.5,0.1,0.6,0.7,1.1,0.8c0.6,0.1,1.1-0.7,1.6-0.4c0.4,0.2,0.3,0.7,0.5,1
						c0.3,0.5,0.8,0.5,1.1,1c0.7,1.1-0.9,1.9-1.6,2.4c-1.1,0.7-1.6,1.9-2.2,3.1s-1.3,2.3-2.5,2.8"/>
					<path id="XMLID_182_" class="st15" d="M791.5,42.3c0,0.3,0,0.6,0.1,0.9c0.1,0.3,0.3,0.6,0.7,0.6c0.3,0.1,0.6-0.1,0.9-0.3
						c0.3-0.2,0.5-0.4,0.8-0.5c0.3-0.1,0.7,0,0.8,0.3c0.2,0.3,0,0.8,0.2,1c0.2,0.3,0.7,0.1,1-0.1s0.7-0.5,1-0.3
						c0.4,0.2,0.4,0.8,0.7,1.1c0.3,0.3,0.9,0.2,1.3,0c0.4-0.1,1-0.2,1.3,0.1c0.2,0.2,0.2,0.5,0.1,0.8s-0.3,0.5-0.5,0.7
						c-0.5,0.5-1.1,1-1.8,1.3"/>
					<path id="XMLID_181_" class="st15" d="M807.7,49.2c0.1-0.7,0.8-1.1,1.4-1.4c0.6-0.2,1.3-0.3,2-0.6c0.6-0.3,1.2-0.9,1.1-1.6
						c0-0.5-0.4-0.9-0.8-1c-0.5-0.1-1,0-1.3,0.4c0.3-0.4,0.5-0.8,0.6-1.2s-0.1-1-0.5-1.2c-0.4-0.2-0.8-0.1-1.2,0.2
						c-0.3,0.2-0.6,0.6-0.8,1c0-0.6-0.3-1.1-0.8-1.4c-1-0.5-2.3,0.3-2.7,1.2c-0.3,0.6-0.2,1.4-0.1,2s0.2,1.4,0.1,2.1
						c-0.2,1-1.3,1.5-2.2,1.7"/>
					<path id="XMLID_180_" class="st15" d="M781.2,32.8c0.4-0.9,1.2-1.5,2.2-1.6"/>
					<path id="XMLID_179_" class="st15" d="M796.2,44.2c-0.5-0.7-0.7-2.1-0.1-2.8c0.6-0.8,1.7-1.2,2.7-1c0.9,0.2,1.7,1,2,1.9
						c0.3,0.9,0,2-0.6,2.7"/>
					<path id="XMLID_178_" class="st15" d="M799.9,40.9c-0.1-0.5-0.3-0.9-0.5-1.4"/>
					<path id="XMLID_177_" class="st15" d="M800.4,41.5c0.5,0,1,0.2,1.4,0.5"/>
					<path id="XMLID_176_" class="st15" d="M800.2,40.9c0.1-0.2,0.2-0.3,0.4-0.4c0.4-0.2,0.8-0.3,1.2-0.4"/>
					<path id="XMLID_175_" class="st15" d="M799.6,40.2c0.2,0.5,0.3,1.1,0.4,1.6"/>
					<path id="XMLID_174_" class="st15" d="M800.1,41.2c-0.3-0.1-0.7-0.2-1-0.2"/>
					<path id="XMLID_173_" class="st15" d="M806.5,46.8c-0.1-0.3-0.1-0.6-0.2-0.9c-0.1-0.4-0.2-0.8-0.1-1.3c0.1-0.4,0.4-0.8,0.9-0.8
						"/>
					<path id="XMLID_172_" class="st15" d="M794.7,38.9c0-0.2,0-0.5-0.1-0.7c-0.1-0.2-0.2-0.4-0.3-0.7c-0.1-0.2-0.1-0.5,0-0.7
						c0.1-0.2,0.4-0.4,0.6-0.3"/>
					<path id="XMLID_171_" class="st15" d="M803.6,40.4c0.3,0.6,0,1.4-0.6,1.8"/>
					<path id="XMLID_170_" class="st15" d="M778.7,42.5c1,2.9,3.4,5.3,6.3,6.3"/>
				</g>
				<path id="XMLID_168_" class="st15" d="M788.3,80.3c2.3-1.5,3.5-3.5,4-6.1c-0.1,0.5,0.5,0.8,1,0.7c0.9-0.3,1.2-1.8,0.4-2.4
					c-0.4-0.3-1-0.2-1.3,0.1c-0.9-3.3-3.7-6.3-6.8-7.4c-3.3-1.2-6.5-1-9.3,1.2c-1.5,1.2-2.2,2.8-3,4.3c-0.5-0.3-1.2-0.1-1.6,0.3
					c-0.3,0.5-0.3,1.2,0.2,1.6c0.4,0.4,1.6,0.5,1.6,0c0.1,2.3,1.1,4.5,2.8,6.1c1.8,1.7,3.8,2.3,6.1,2.7
					C784.4,81.6,786.6,81.4,788.3,80.3z"/>
				<path id="XMLID_167_" class="st15" d="M778,80c-3.5,5-8.1,9.3-13.5,12.2c5.1,1.6,10.3,3,15.5,4.3c4.8,1.1,10.1,2.9,15,2.2
					c-1.9-1.5-3.5-3.7-4.4-6c-1.5-3.7-2.8-7.5-3.9-11.3"/>
				<path id="XMLID_166_" class="st15" d="M774,95.1c-1.5,2.7-2.9,5.4-4.4,8.1c-1.7-1.5-5.1-2.4-6.1-0.1c1.9,1,4.2,1.2,6.1,0.2"/>
				<path id="XMLID_165_" class="st15" d="M783,97.3c-0.7,3.2-0.9,6.3-0.7,9.5c1.4-0.7,3.4-0.9,4.6,0.1c0.2,0.2,0.5,0.4,0.6,0.7
					c0.1,0.3-0.1,1-0.3,1.2c-0.3,0.2-0.7,0.1-1.1-0.1c-1.3-0.5-2.6-1.2-3.9-1.8"/>
				<path id="XMLID_164_" class="st15" d="M773.6,69.9c-0.4-1.8,0-3.8,1.2-5.1c1.5-1.6,3.6-2.4,5.5-2.7c1.4-0.2,2.9,0,4.3,0.5
					c4.5,1.5,7.2,5,8.3,9.6"/>
				<path id="XMLID_163_" class="st15" d="M800,66.5c3.2,0.2,6.4,1.5,8.8,3.7c-0.4-0.4-1.6-0.5-2.1-0.6c-0.7-0.2-1.4-0.3-2.2-0.5
					c-1.5-0.3-3-0.5-4.5-0.6c-3.1-0.2-5.5-0.1-8.5,0.1c0.9-1,2.4-1.3,3.7-1.6C796.8,66.6,798.4,66.4,800,66.5z"/>
				<path id="XMLID_162_" class="st15" d="M766.2,61c-3.4-1.2-7.5-1.2-11-0.2c4.9,0.7,10,1.9,14.5,3.8c1.2,0.5,2.4,1,3.5,1.7
					c0.3,0.2,0.4,0.6,0.4-0.1c0-0.4-0.7-1-1-1.2C770.7,63.3,768.6,61.9,766.2,61z"/>
				<path id="XMLID_161_" class="st15" d="M755.1,60.9c5.8,2.6,11.8,4.6,18,5.8"/>
				<path id="XMLID_160_" class="st15" d="M791.9,69.1c5.4,1.3,11.4,1.9,16.9,1.1"/>
				<path id="XMLID_159_" class="st15" d="M777.3,74c1,2.4,3.7,4.1,6.3,3.7c2.6-0.3,4.8-2.6,5.2-5.2"/>
				<path id="XMLID_158_" class="st15" d="M787.5,83.6c6.1-1.3,10.2-5.5,11.2-11.9"/>
				<path id="XMLID_157_" class="st15" d="M798.8,64.8c0-1.5-0.5-3.9-1.7-6.2"/>
				<path id="XMLID_156_" class="st15" d="M776.2,82.1c-4.5-3.7-6.7-9.3-6.5-14.8"/>
				<path id="XMLID_155_" class="st15" d="M770.8,61.2c1.3-3.9,5.1-7.3,8.7-8.7"/>
				<circle id="XMLID_154_" class="st15" cx="786.8" cy="69.4" r="0.3"/>
				<circle id="XMLID_153_" class="st15" cx="778.5" cy="68.7" r="0.3"/>
				<g id="XMLID_149_">
					<path id="XMLID_152_" class="st15" d="M780,52.5c0.6,0.4,1,1.1,1.7,1.5c0.6,0.3,1.3,0.3,1.8,0"/>
					<path id="XMLID_151_" class="st15" d="M779.9,52.3c-0.1-0.3,0-0.8,0.3-1"/>
					<path id="XMLID_150_" class="st15" d="M780,52.4c0.4,0.5,1.1,0.8,1.8,0.7"/>
				</g>
				<g id="XMLID_145_">
					<path id="XMLID_148_" class="st15" d="M797.1,58.2c-0.8,0-1.6,0.3-2.3,0.3c-0.6-0.1-1.4-0.6-1.6-1.2"/>
					<path id="XMLID_147_" class="st15" d="M797.1,58.2c0.3-0.2,0.7-0.8,0.6-1.2"/>
					<path id="XMLID_146_" class="st15" d="M797.1,58.2c-0.6,0.2-1.1,0.1-1.6-0.4"/>
				</g>
			</g>
			<g id="XMLID_120_">
				<g id="XMLID_139_">
					<path id="XMLID_143_" class="st18" d="M716.3,40.4c-0.1,1.5-1.5,2.6-2.9,2.5c-0.8-0.1-1.6-0.5-2.3-1c-0.7-0.5-1.2-1.1-1.9-1.7
						c-1.4-1.2-3-1.9-4.7-2.8c-1.7-0.9-3.3-1.9-4.5-3.3c-1.2-1.4-2-3.4-1.6-5.2c0.4-2.1,2.4-4,4.4-4.1c-0.3,1.6,0,3.6,0.8,5
						c0.8,1.4,2,2.6,3.1,3.7c2.1,1.9,4.3,3.7,6.5,5.4c1,0.8,2.2,1.6,3.5,1.5c0.8,0,1.4-0.3,2.1-0.7c0.7-0.5,1.3-1,1.8-1.7
						c0.6-1,0.7-2,0.6-3.2c-0.1-1-0.4-2-0.9-2.9c-0.4-0.8-0.9-1.5-1.4-2.2c-0.8-1-1.9-2.7-2.6-3.7c-0.7-1-1.7-2.6-2.6-3.5
						c-1.3-1.3-3.4-3-5.9-2.4"/>
					<path id="XMLID_142_" class="st18" d="M721.6,35.9c0.9,0.2,1.8-0.5,2.1-1.4s0.1-1.9-0.1-2.8c-0.4-1.3-0.9-2.6-1.4-3.8
						c-0.6-1.4-1.2-2.8-1.8-4.2c-0.7-1.7-1.5-3.5-2.6-5c-0.9-1.2-2.1-2.2-3.5-2.7c-0.8-0.3-1.7-0.5-2.6-0.3c-1,0.2-1.8,0.8-2.4,1.6
						s-1.1,1.9-1.5,2.8"/>
					<path id="XMLID_141_" class="st18" d="M708.2,19.1c-1.3-0.6-2.8,0.6-3.7,1.4c-0.9,0.8-1.7,1.6-2.3,2.6
						c-0.4,0.6-0.7,1.3-0.6,2.1"/>
					<path id="XMLID_140_" d="M699.3,19.5c0,0-0.3,0.7,0.2,0.9s2.8-0.2,3.7,1.2s0.9,0.9,0.1,1.7c-0.8,0.8-1.2,1.5-0.6,1.6
						c0.6,0.1,1.7-0.5,3-1.9c1.3-1.3,3.4-3.9,1.6-3.1c0,0-0.8,0.4-1.3,0.8s-0.8,0.8-2.5-0.5S699.6,18.4,699.3,19.5z"/>
				</g>
				<g id="XMLID_121_">
					<path id="XMLID_138_" class="st16" d="M694.5,76.4c-1.7-0.7-3.7-0.5-5.5-0.5c-0.6,0-1.3,0-1.9-0.1c-0.2,1,0,2.1,0.1,3.1
						c0.1,1,0.5,2,1.3,2.7c1.1,0.9,2.6,0.8,4,0.8c2.3-0.1,4.6-0.1,6.8,0.5c3.4,0.8,6.6,2.9,8.6,5.8c0.6,0.9,1.1,1.8,1.8,2.6
						s1.6,1.5,2.6,1.7c1,0.2,2.1-0.2,3-0.5c1.4-0.5,2.8-1,4.3-1.5c-2-3.2-4-6.4-5.9-9.6c-3.3,1.1-6.9,0.7-10.2-0.4
						C700.2,79.7,697.4,78.2,694.5,76.4"/>
					<path id="XMLID_137_" class="st16" d="M686.9,77.7c-0.6,0-1.2,0.1-1.8,0.1c-0.7,0-1.3,0.1-1.9-0.2c-0.7-0.4-1.1-1.1-1.4-1.9
						c-0.3-0.6-0.6-1.2-0.8-1.9c-0.2-0.7-0.2-1.4-0.1-2c0.1-0.4,0.4-0.8,0.7-0.7c0.6,0.1,1,0.4,1.2,0.6c1.2,1.2,1,3.9,0.6,6"/>
					<path id="XMLID_136_" class="st16" d="M715.4,92.7c0.1,0.8,0.2,1.7,0.6,2.4c0.3,0,0.5,0,0.8,0c1.6,0,3.3,0,4.8-0.7
						c0.2-0.1,0.5-0.3,0.5-0.6c0-0.3-0.3-0.3-0.5-0.4c-0.7-0.3-1.2-0.4-2.5-0.3c-1.1,0.1-2.1,0.5-3,1.1c0,0-0.1,0.1-0.1,0.1"/>
					<path id="XMLID_135_" class="st16" d="M699.2,66.5c-0.2,1.3-0.4,2.6-0.8,3.9c-0.4,1.3-0.9,1.8-1.9,3c-0.7,0.9-1.4,2-2,2.9"/>
					<path id="XMLID_134_" class="st16" d="M711.9,68.3c-0.3,2.6,0,5.2,0.8,7.7c0.3,0.9,0.6,1.8,0.8,2.7c0.2,0.9,0.2,1.9,0,2.7"/>
					<path id="XMLID_133_" class="st16" d="M712.1,68.6c0.8-0.3,1.5-0.6,2.3-0.9c0.7-0.3,4.2-1.2,6.5-4.8c2.7-4.1,1.2-11.5,2.3-12
						c0.3-0.1,1.8-2.1,1.3-4.2"/>
					<path id="XMLID_132_" class="st16" d="M699.1,66.9c-3.3-1.6-6.9-4.6-7.9-8.8c-0.6-2.4-0.1-8.9,0.7-13.1
						c0.3-1.4-1.3-1.7,0.4-5.2"/>
					<path id="XMLID_131_" class="st19" d="M708.2,50.6c-2.5-0.2-5.1,0.2-7.2,1.5c-2.4,1.5-3.7,4.1-4.3,6.8c-0.4,2,0.4,5.2,1.7,6.5
						c1.3,1.3,2.5,2,4.2,2.7c1.5,0.6,3.2,0.7,4.8,0.7c1.5,0,3-0.1,4.3-0.9c1-0.6,1.8-1.5,2.5-2.5c0.6-0.8,1.1-1.7,1.3-2.8
						c0.2-1.1,0-2.1-0.2-3.2c-0.3-1.8-0.9-3.2-1.7-4.8C712.6,53.2,710.7,51.1,708.2,50.6"/>
					<path id="XMLID_130_" class="st19" d="M697.1,57.3c-0.4,0.1-0.9,0.1-1.2-0.1s-0.7-0.6-0.7-1c0-0.4,0.3-0.7,0.7-0.9
						c0.6-0.3,1.3-0.4,1.9-0.1c0,0.1-0.1,0.2-0.1,0.2"/>
					<path id="XMLID_129_" class="st19" d="M715.7,61c0.5-0.1,1.1-0.3,1.6-0.2c0.1,0,0.3,0.1,0.4,0.2c0.2,0.2,0.3,0.4,0.3,0.7
						c0,0.3-0.1,0.5-0.3,0.7c-0.2,0.2-0.4,0.4-0.7,0.5c-0.6,0.3-1.1,0.5-1.6,0.1"/>
					<path id="XMLID_128_" class="st18" d="M696.7,55.1c-0.7-0.1-1.2,0.6-1.5,1c-0.9-1.1-1.6-2-1.2-3.3c0.5-1.5,1.4-2.7,2.8-3.4
						c1.2-0.5,2.8-1.2,4.1-1.5c1.4-0.4,3.6-0.9,6-0.8c0.6,0,1.6,0.2,2.2,0.5c0.6,0.3,0.5,0.7,0.5,1.6"/>
					
						<ellipse id="XMLID_127_" transform="matrix(0.3 -0.9539 0.9539 0.3 440.9504 708.9556)" class="st20" cx="703.6" cy="54" rx="0.6" ry="0.7"/>
					
						<ellipse id="XMLID_126_" transform="matrix(0.3 -0.9539 0.9539 0.3 443.4567 717.5922)" class="st20" cx="710.7" cy="56.6" rx="0.6" ry="0.7"/>
					<path id="XMLID_125_" class="st21" d="M701.3,60.1c0.2,1.2,0.7,2.1,1.7,2.8c1.4,1,3.2,1,4.7,0.4c0.5-0.2,1-0.5,1.3-1"/>
					<path id="XMLID_124_" class="st16" d="M692.4,39.8c0.1-0.3,0.3-0.5,0.5-0.6s0.5-0.1,0.7,0c0.2,0.1,0.4,0.3,0.5,0.6
						c0.5,0.9,0.5,2,0.2,2.9c-0.3,0.9-1.2,1.5-2.2,1.9"/>
					<path id="XMLID_123_" class="st16" d="M724.5,46.5c0-0.4-0.4-0.6-0.7-0.7c-0.3-0.1-0.7,0.1-1,0.2c-0.4,0.3-0.7,0.7-0.8,1.1
						c-0.1,0.5-0.1,1,0,1.5c0.1,0.4,0.1,0.9,0.3,1.3c0.2,0.4,0.5,0.8,0.9,0.9"/>
					<path id="XMLID_122_" class="st18" d="M696.8,55c0,0,2.2-5.5,8.1-5.9s9.2,1.6,11.2,4.7c2.6,4.1,1.8,6.3,1.7,7.3"/>
				</g>
			</g>
			<g id="XMLID_85_">
				<g id="XMLID_100_">
					<path id="XMLID_119_" class="st19" d="M846.8,108.3c-1.4,0.8-2.3,1.8-3.4,3.1c-0.8,0.9-1.5,2-2.1,3.1c-0.5,0.9-1.1,2.2-1,3.1
						c0,0.6,0.6,1.1,1.1,1.6c2.7,2.4,6.2,3.7,9.6,4.9c1.1,0.4,2.3,0.8,3.5,1c0.6,0.1,1.2,0.2,1.7,0.2c0.4,0,1.3,0.1,1.5-0.2
						c0.1-0.2,0.2-0.4,0.2-0.6c0.3-2.1,0.6-3.9,0.6-6c0.1-1.7,0-3.5-0.1-5.5"/>
					<path id="XMLID_118_" class="st19" d="M844.8,121.4c-0.1,1.2-0.3,2.3-0.2,3.5s0.1,1.9,0.7,3.4c0.2,0.5,0.5,1,0.5,1.5
						c0,0.5-0.2,0.9-0.6,1.2c-0.3,0.3-0.7,0.6-1.1,0.9c-0.2,0.2-0.5,0.3-0.8,0.3c-0.3,0-0.5-0.3-0.5-0.5c-0.2-0.7,0.2-1.4,0.8-1.8
						c0.6-0.4,1.3-0.5,2-0.6"/>
					<path id="XMLID_117_" class="st19" d="M852.1,124.4c0,0.7,0.4,1.3,0.9,1.7c0.6,0.4,1.3,0.5,2,0.5c0.3,0,0.5,0,0.8,0.1
						c0.3,0.2,0.4,0.7,0.3,1.1c-0.2,0.7-0.6,1.4-1.3,1.7c-0.3,0.2-0.7,0.3-1,0.2c-0.3-0.2-0.4-0.9-0.3-1.2c0.2-0.4,0.5-0.6,0.8-0.8
						c0.3-0.2,0.9-0.6,1-0.9"/>
					<g id="XMLID_108_">
						<path id="XMLID_116_" class="st18" d="M853.1,99c-2.4,0.8-4.6,1.2-5.9,3.7c-1,2-1.3,4.4,0.2,6.1c0.9,0.9,2.3,1.8,3.5,2.4
							c1.8,0.9,3.2,1.3,5.2,1.8c0.7,0.2,1.9,0.3,2.6,0c1.4-0.4,2.4-2,2.7-3.3c0.1-0.6,0.2-1.2,0-1.8c-0.3-0.9-1.1-1.6-1.9-2.1
							c-0.9-0.5-1.8-0.8-2.6-1.2C854.8,103.5,853.3,101.5,853.1,99"/>
						<path id="XMLID_115_" class="st18" d="M862,101.9c0-0.5,0.2-0.9,0.6-1.2c0.4-0.3,0.8-0.4,1.3-0.5c0.8-0.1,1.6,0,2.5,0
							c0.8,0,1.7-0.1,2.4-0.5c-0.2,0.7-0.5,1.3-0.9,1.9c-0.4,0.6-0.8,1.2-1.4,1.5c-0.7,0.4-1.7,0.5-2.5,0.2
							c-0.8-0.3-1.5-0.9-1.8-1.7c0.4,0.3,1.1,0.3,1.7,0.3c1.6-0.1,3.1-0.6,4.5-1.4"/>
						<path id="XMLID_114_" class="st18" d="M849.4,96.8c-1,0.1-2-0.5-2.5-1.3c-0.5-0.8-0.7-1.9-0.5-2.9c0.1-1,0.5-1.9,0.8-2.9
							c-0.1,0.8,0.3,1.5,0.8,2.1s1.1,1.1,1.5,1.8c0.4,0.7,0.6,1.5,0.3,2.2c-0.2,0.4-0.5,0.7-0.6,1.1"/>
						<path id="XMLID_113_" class="st18" d="M847,90.7c-0.1,2,0.7,3.9,1.8,5.6c0.1,0.1,0.2,0.3,0.3,0.4"/>
						<path id="XMLID_112_" class="st18" d="M846.5,103.9c-0.4-0.1-0.8-0.4-1-0.8c-0.1-0.2-0.2-0.6-0.2-0.8c0-0.2,0.1-0.4,0.2-0.6
							c0.2-0.3,0.5-0.5,0.8-0.6c0.3-0.1,0.7,0,1,0.2c0.3,0.2,0.4,0.5,0.5,0.8"/>
						<path id="XMLID_111_" class="st18" d="M861.7,109.6c0.3,0,0.6-0.1,0.8-0.2c0.2-0.2,0.4-0.3,0.5-0.7c0.1-0.3,0-0.6-0.1-0.8
							c-0.1-0.2-0.4-0.4-0.6-0.5s-0.8,0.1-0.8,0.3c0,0,0-0.5,0.1-0.4c0.4-0.2,1,0.1,1.1-0.3c0.1-0.4,0.1-0.9,0.1-1.4
							c-0.3-2.8-1.8-5.5-4.1-7.2c-0.7-0.5-1.5-0.9-2.3-1.2c-1.7-0.7-3.7-1-5.5-0.5c-1.1,0.3-2,0.9-2.8,1.7s-1.2,1.6-1.2,2.6"/>
						<path id="XMLID_110_" class="st18" d="M854.3,96.8c-0.2,0.3-0.5,0.5-0.9,0.7c-0.8,0.4-1.6,0.5-2.5,0.7
							c-0.8,0.2-1.7,0.4-2.4,0.8c-0.7,0.5-1.3,1.2-1.3,2.1"/>
						<path id="XMLID_109_" class="st18" d="M854.5,96.8c-0.2,0.3-0.1,0.8,0.1,1.1c0.2,0.3,0.5,0.5,0.8,0.8c3.1,2.4,5.1,4.9,6.5,8.6
							"/>
					</g>
					
						<ellipse id="XMLID_107_" transform="matrix(0.4149 -0.9099 0.9099 0.4149 403.1058 834.7523)" class="st22" cx="850.6" cy="103.9" rx="0.6" ry="0.7"/>
					
						<ellipse id="XMLID_106_" transform="matrix(0.4149 -0.9099 0.9099 0.4149 403.6447 843.8925)" class="st22" cx="858" cy="108.1" rx="0.6" ry="0.7"/>
					
						<ellipse id="XMLID_105_" transform="matrix(0.4149 -0.9099 0.9099 0.4149 394.0657 840.7431)" class="st22" cx="850.8" cy="114" rx="0.6" ry="0.7"/>
					
						<ellipse id="XMLID_104_" transform="matrix(0.4149 -0.9099 0.9099 0.4149 390.9104 840.9542)" class="st22" cx="849.4" cy="116.5" rx="0.6" ry="0.7"/>
					<path id="XMLID_103_" class="st15" d="M850.3,107.9c0.4,0.8,0.9,1.6,1.8,1.8c1.2,0.4,1.8,0.2,2.4,0c0.1,0,0.4-0.1,0.5-0.2"/>
					<path id="XMLID_102_" class="st16" d="M858.8,114.1c2.6-0.2,5-1.3,7-3s3.5-3.8,4.8-6c1-1.7,1.8-3.4,2.6-5.2"/>
					<path id="XMLID_101_" class="st16" d="M845.6,109c-3.7-3.9-3.5-8-3.1-11.3c0.6-5,2.1-9.1,3.9-11.5"/>
				</g>
				<g id="XMLID_94_">
					<path id="XMLID_99_" class="st18" d="M865.6,69.6c0,0-5.6-4.5-14.1,0.9c-8,5.1-4.1,15.6,1.9,21c4.8,4.3,15.4,8.7,24.7,3.3
						c8.9-5.1,5.7-16.7,0.8-20.6s-6.7-2.7-9.3-2.7c-2.5,0-3.2-1.1-4.1-1.8"/>
					<path id="XMLID_98_" class="st18" d="M860.5,67.9c0,0-3-2.5-2.9-6.4c0,0,1.4,3.1,4.9,3.5c3.5,0.5,3.9-1,5.6,3.4
						c0,0,0.3,0.1,0.9-0.4c0.6-0.4,2.6-1.4,3.3,0.4c0.8,1.8,5.1-2.6,5.1-2.6s-0.1,2.8-2.7,5.5"/>
					<path id="XMLID_97_" class="st18" d="M867.6,67.2c0,0,0.4-1.2-0.4-4.4c-0.8-3.2-1-3.3-0.8-3.7c0.4-0.6,3.5-0.8,3.7,0.5
						s0.6,5.1-1.7,8.4"/>
					<path id="XMLID_96_" class="st18" d="M853.4,72.9c0,0-8.4,4.8,1.8,16"/>
					<path id="XMLID_95_" class="st18" d="M855,85.8c0,0,1.3,2.5,3.7,4.3"/>
				</g>
				<g id="XMLID_90_">
					<path id="XMLID_93_" class="st16" d="M873.4,99.7c0.7-0.3,1.3-0.2,2.2-0.7c0.6-0.3,1.2-1.1,1.2-1.8"/>
					<path id="XMLID_92_" class="st16" d="M873.4,99.5c-0.4-0.1-0.8-0.5-1-0.9"/>
					<path id="XMLID_91_" class="st16" d="M873.4,99.5c0.6-0.1,1.5-0.6,1.6-1.9"/>
				</g>
				<g id="XMLID_86_">
					<path id="XMLID_89_" class="st16" d="M846.6,86.1c-0.3-0.7-0.8-0.9-1.1-1.9c-0.2-0.6,0-1.7,0.7-2.3"/>
					<path id="XMLID_88_" class="st16" d="M846.8,85.9c0.3,0.2,0.8,0.4,1.3,0.2"/>
					<path id="XMLID_87_" class="st16" d="M846.8,85.9c-0.4-0.5-0.8-1.4,0-2.4"/>
				</g>
			</g>
			<g id="XMLID_2_">
				<g id="XMLID_40_">
					<g id="XMLID_61_">
						<path id="XMLID_84_" class="st15" d="M527.1,64c1.4-1.3,3.6-1.5,5.3-0.8c1.8,0.7,3.2,2.1,4.5,3.5c2.5,2.7,4.7,5.6,6.7,8.8
							c0.7,1.1,1.4,2.5,0.9,3.8c-0.5,1.2-1.8,1.7-3,2.1c-0.9,0.3-1.9,0.6-2.8,1c-2.1,0.7-4.2,1.4-6.4,1.7c-2.2,0.3-4.5,0.1-6.5-1
							s-3.5-3.1-3.5-5.3"/>
						<path id="XMLID_83_" class="st15" d="M523.8,71.1c-0.5-0.2-1.1-0.7-1-1.4c0.1-0.7,0.6-1.1,1.2-1.3c0.5-0.2,1.1-0.3,1.7-0.2
							c1.2,0.1,2.4,0.6,3.3,1.4c0.9,0.8,1.6,1.9,1.9,3.1c-1.5-0.6-3.2-1-4.8-1.1C525.4,71.4,524.5,71.4,523.8,71.1z"/>
						<path id="XMLID_82_" class="st15" d="M523.6,68.5c-0.1-1.5-0.2-3.1,0.6-4.4c0.8-1.3,2.3-2.2,2.7-3.6c0.2,1.4,0.3,2.8,0,4.2
							s-1,2.7-2.2,3.5"/>
						<path id="XMLID_81_" class="st15" d="M528.2,68.7c0.9-1.6,1.4-3.1,1.5-4.9c-1,0.7-2,1.1-3,1.8"/>
						<path id="XMLID_80_" class="st15" d="M525.6,71.6c0.4,0.7,0.7,1.3,1.1,1.9c1,1.4,1.8,3.2,1.2,4.9c-0.2,0.6-0.4,1.4-0.3,2
							c-1.4-1.6-2.7-3.3-3.7-5.1"/>
						<path id="XMLID_79_" class="st15" d="M522.7,70c-1-0.7-2.4-1.2-3.7-1.2c-0.3,0-0.6,0-0.9,0c-0.3,0-0.6-0.2-0.7-0.4
							c-0.2-0.2-0.2-0.5-0.1-0.8c0.1-0.3,0.2-0.5,0.3-0.8c0.3-0.5,0.7-1,1.2-0.9c0.3,0,0.6,0.2,0.8,0.5c0.2,0.3,0.3,0.6,0.5,0.9
							c0.6,1,2.1,1.1,3.2,1.3"/>
						<path id="XMLID_78_" class="st15" d="M519.6,66.5c0.4,0.8,0.2,1.1,0,1.5c-0.3,0.6-0.5,0.9-1.3,0.9"/>
						<path id="XMLID_77_" class="st15" d="M522.1,68.3c0.3-0.6,0-0.8-0.1-1.5c-0.1-0.7-0.3-1.3-0.5-2c-0.2-1.2,0-2.5,0.5-3.6
							c0.1-0.2,0.4-0.5,0.6-0.4c0.2,0.1,0.2,0.4,0.2,0.6c0,0.9,0.4,1.8,1,2.5"/>
						<path id="XMLID_76_" class="st15" d="M521.9,69.6c-0.4,0.4-0.5,0.5-0.9,0.8s-0.8,0.5-1.2,0.7c-1.9,1.1-3.2,3.1-3.5,5.2
							c0.2-0.6,0.7-1,1.2-1.3c0.6-0.3,1.2-0.4,1.8-0.6c1.8-0.6,3.1-2,3.9-3.7"/>
						<path id="XMLID_75_" class="st15" d="M520.1,74.3c-0.6,1.3-0.7,2.9-0.7,4.2c0,0.8,0.1,1.5,0.2,2.3c0.9-1.3,1.9-2.6,2.8-3.9
							c0.6-0.8,1.2-1.7,1.6-2.6c0.4-1,0.5-2.1,0.1-3"/>
						<path id="XMLID_74_" class="st15" d="M532.6,65.9c0.4,0.3,1.2,1.2,0.9,1.7c-0.3,0.4-1.5,0.1-1.9-0.2c-0.4-0.3-0.5-0.8-0.3-1.2
							C531.6,65.8,532.2,65.7,532.6,65.9z"/>
						<path id="XMLID_73_" class="st15" d="M533.4,69.7c0.5,0.2,1.4,1,1.2,1.4c-0.2,0.5-1.4,0.4-1.9,0.3c-0.5-0.2-0.7-0.7-0.5-1.2
							C532.4,69.8,532.9,69.6,533.4,69.7z"/>
						<path id="XMLID_72_" class="st15" d="M534.3,77.1c0.5,0.1,1.5,0.6,1.5,1c-0.1,0.5-1.2,0.7-1.7,0.7c-0.5-0.1-0.8-0.5-0.8-0.9
							C533.5,77.4,533.9,77,534.3,77.1z"/>
						<path id="XMLID_71_" class="st15" d="M537.3,79.1c0.5-0.1,1.7,0.2,1.8,0.7s-1,1-1.5,1.1c-0.5,0.1-0.9-0.3-1-0.8
							C536.5,79.6,536.8,79.1,537.3,79.1z"/>
						<path id="XMLID_70_" class="st15" d="M541.7,77.2c0.4,0.2,1.3,1.1,1,1.6c-0.2,0.4-1.4,0.2-1.9,0c-0.4-0.2-0.6-0.8-0.4-1.2
							C540.8,77.1,541.3,76.9,541.7,77.2z"/>
						<path id="XMLID_69_" class="st15" d="M540.2,73.6c0.4,0.3,1,1.4,0.6,1.8c-0.3,0.4-1.5-0.1-1.8-0.4s-0.4-0.9-0.1-1.3
							C539.2,73.3,539.8,73.3,540.2,73.6z"/>
						<path id="XMLID_68_" class="st15" d="M535.6,73.5c0.5,0.2,1.7,1,1.5,1.6c-0.2,0.5-1.6,0.6-2.1,0.4c-0.5-0.2-0.8-0.7-0.7-1.3
							C534.5,73.6,535.1,73.3,535.6,73.5z"/>
						<path id="XMLID_67_" class="st15" d="M537.6,69.9c0.4,0.3,1,1.4,0.7,1.8s-1.5-0.1-1.8-0.4c-0.4-0.3-0.4-0.9-0.1-1.3
							C536.7,69.6,537.2,69.6,537.6,69.9z"/>
						<path id="XMLID_66_" class="st15" d="M530.6,74.2c0.5,0.1,1.5,0.8,1.4,1.3c-0.1,0.5-1.3,0.6-1.8,0.5c-0.5-0.1-0.8-0.6-0.7-1.1
							S530.1,74.1,530.6,74.2z"/>
						<path id="XMLID_65_" class="st15" d="M524.9,79.5c0.3,0.1,0.9,0.5,0.9,0.8c-0.1,0.3-0.8,0.4-1.1,0.3s-0.5-0.4-0.4-0.7
							C524.3,79.6,524.6,79.4,524.9,79.5z"/>
						<path id="XMLID_64_" class="st15" d="M528.9,81.3c0.4,0,1.3,0.3,1.3,0.7c0,0.4-0.9,0.7-1.3,0.7c-0.4,0-0.7-0.3-0.7-0.7
							C528.2,81.6,528.5,81.3,528.9,81.3z"/>
						<path id="XMLID_63_" class="st15" d="M530,78.3c0.4,0,1.3,0.3,1.3,0.7c0,0.4-0.9,0.7-1.3,0.7s-0.7-0.3-0.7-0.7
							C529.3,78.6,529.6,78.3,530,78.3z"/>
						<path id="XMLID_62_" class="st15" d="M532.8,80.9c0.4,0.1,1.4,0.6,1.4,1c-0.1,0.4-1.2,0.6-1.6,0.6s-0.7-0.5-0.7-0.9
							C532,81.2,532.4,80.9,532.8,80.9z"/>
					</g>
					<path id="XMLID_60_" class="st15" d="M545.2,115.1c1.5,4.6,3,9.1,4.5,13.8c2.2-1.1,4.3-2.2,6.5-3.3c-1.7-3.8-2.6-8-2.8-12.2
						c2.8,3.5,6,6.5,9.7,9c1.8-1.1,3.6-2.3,5.5-3.3c-0.3-0.1-0.5-0.2-0.8-0.5c-1.7-2-3.4-4-5-6c-1.2-1.5-2.2-3.1-3.4-4.7"/>
					<path id="XMLID_59_" class="st15" d="M540.1,104.8c0.7,1.4,1.2,3.2,1.6,4.7c0.6,2.4,0.9,4.4,1.2,6.7
						c6.7-3.4,13.4-6.9,20.1-10.3c-0.1,0.1-1.2-0.7-1.4-0.8c-0.5-0.3-1-0.6-1.5-1c-3.2-2.1-5.8-4.3-8.5-7"/>
					<path id="XMLID_58_" class="st15" d="M533.2,90.5c3.1-4,9.3-6.3,13.7-3c0.6,0.4,1.2,1.3,2,0.6c0.2-0.2,0.6-0.4,0.9-0.6
						c0.4-0.2,1.4,0,1.6,0.6c0.2,0.5,0,1-0.4,1.4c-0.2,0.3-0.6,0.5-0.9,0.6c-0.2,0.1-0.2,0.3-0.1,0.4c0.5,0.8,1.5,2.7,1.6,3
						c0.3,1.5,0.2,3.3-0.5,4.7c-1.3,2.4-3.9,4.2-6.3,5.3c-1.5,0.7-3.2,1.2-4.9,0.9c-0.7-0.1-1.8-0.5-2.5-0.9
						c-0.3-0.2-0.5-0.3-0.8-0.5c-0.6-0.4-1.2-1-1.8-1.4c-0.4,0.4-0.9,0.9-1.4,1.1c-0.5,0.2-1.1,0.1-1.5-0.3
						c-0.3-0.4-0.5-0.8-0.3-1.3c0.1-0.3,0.4-0.5,0.7-0.7c0.3-0.1,0.6-0.3,1-0.3c-0.4-1-0.8-1.9-1.3-2.9c-0.4-0.9-0.6-2-0.5-3
						C531.7,92.9,532.4,91.6,533.2,90.5z"/>
					<path id="XMLID_57_" class="st15" d="M537,98.1c1,0.7,2.2,1,3.4,0.8c1.1-0.1,2.3-0.7,3.2-1.3c1-0.6,1.9-1.5,2.6-2.4"/>
					<path id="XMLID_56_" class="st15" d="M534.4,94c-0.1-0.1-0.2-0.3-0.1-0.5c0-0.2,0.2-0.3,0.4-0.3c0.1,0.1,0.2,0.2,0.2,0.4
						c0,0.2-0.1,0.3-0.3,0.3s-0.3-0.1-0.3-0.3"/>
					<path id="XMLID_55_" class="st15" d="M542.3,89.6c-0.1,0.1-0.3,0-0.3,0c-0.1-0.1-0.1-0.2-0.1-0.3c0-0.2,0.3-0.4,0.6-0.3
						s0.3,0.4,0.2,0.6c-0.1,0.2-0.3,0.2-0.5,0.2"/>
					<path id="XMLID_54_" class="st15" d="M553,127.4c0.4,1.2,0.8,2.3,1.2,3.5c-1,0.4-2,1-2.7,1.9c-0.1,0.2-0.3,0.3-0.3,0.5
						c-0.1,0.2,0,0.4,0.1,0.6c0.2,0.3,0.7,0.2,1,0.1c1.2-0.5,1.9-1.7,1.9-3"/>
					<path id="XMLID_53_" class="st15" d="M565.5,121c0.6,1,1.1,1.8,1.7,2.9c0.2,0.3,0.4,0.8,0.7,0.9c0.3,0.2,0.7,0.1,1.1,0
						c0.7-0.1,1.5-0.4,2.2-0.6c0.3-0.1,0.6-0.3,0.9-0.5c0.2-0.3,0.3-0.6,0.2-0.9c-0.1-0.2-0.4-0.4-0.7-0.4c-0.3,0-0.5,0-0.8,0.1
						c-1.2,0.4-2.3,1.2-2.9,2.2"/>
					<path id="XMLID_52_" class="st15" d="M547.1,120.7c0.9-0.3,1.6-0.8,2.3-1.5c0.5,0.9,1,1.8,1.3,2.8c0.3,1,0.3,2.1-0.1,3
						c-0.3,0.7-0.9,1.2-1.5,1.5"/>
					<path id="XMLID_51_" class="st15" d="M562.5,112.4c-0.5,1.1-1.8,1.6-2.6,2c0.8,1,1.8,2.4,2.8,3.2c1.1,0.8,2.6,0.5,3.7-0.4"/>
					<path id="XMLID_50_" class="st15" d="M556.4,109.4c1.2,1,3,1.2,4.5,0.6"/>
					<path id="XMLID_49_" class="st15" d="M546.2,117.9c0.7-0.4,1.2-1,1.5-1.7c0.3-0.7,0.4-1.5,0.2-2.3"/>
					<path id="XMLID_48_" class="st15" d="M547.9,123.1c1.3-0.3,2.1-1.3,2.2-2.7"/>
					<path id="XMLID_47_" class="st15" d="M551.7,102.2c0.2-0.2,0.3-0.5,0.6-0.6c0.3,0,0.5,0.2,0.7,0.5c0.2,0.3,0.5,0.7,0.7,1
						c0.3,0.4,0.6,0.9,0.6,1.4c-0.1,0.7-0.8,1.2-1.4,1.6c-0.5,0.3-1,0.6-1.5,0.4c-0.4-0.1-0.6-0.4-0.8-0.7c-0.4-0.5-1.6-1.5-0.9-2.1
						c0.3-0.3,0.8-0.3,1.2-0.6C551.2,102.9,551.5,102.5,551.7,102.2z"/>
					<path id="XMLID_44_" class="st15" d="M535.6,87.8c-0.3-0.4-0.7-0.8-1-1.2c0.5,0.3,1,0.7,1.5,1c-0.3-0.6-0.4-1.2-0.4-1.8
						c0.4,0.5,0.7,0.9,1.1,1.4c0-0.6,0-1.3,0.2-1.9c0.1,0.5,0.2,1.1,0.4,1.6c0.3-0.4,0.6-0.9,0.9-1.3"/>
					<path id="XMLID_43_" class="st15" d="M535.3,87.8c-0.5-0.1-0.9-0.1-1.4-0.2"/>
					<path id="XMLID_42_" class="st15" d="M546.6,75.7c3.7,2.6,4.9,6.4,6.4,10.8c1.4,4.3,1.1,6.9-0.3,11.2"/>
					<path id="XMLID_41_" class="st15" d="M525.1,85.6c-0.1,4.6,0.3,9.1,2.2,13.3c2.4,5.7,8.4,8.2,13,7"/>
				</g>
				<g id="XMLID_36_">
					<path id="XMLID_39_" class="st16" d="M546.5,75.7c-0.4-0.7-0.3-1.3-0.9-2.1c-0.4-0.6-1-1.2-2.3-0.9"/>
					<path id="XMLID_38_" class="st16" d="M546.3,75.8c0,0.4-0.4,0.9-0.8,1.1"/>
					<path id="XMLID_37_" class="st16" d="M546.3,75.8c-0.2-0.6-0.6-1.4-1.9-1.4"/>
				</g>
				<g id="XMLID_5_">
					<path id="XMLID_35_" class="st16" d="M525.1,85.5c-0.6-0.4-1.1-0.2-2-1c-0.6-0.5-0.8-1.6-0.3-2.5"/>
					<path id="XMLID_34_" class="st16" d="M525.2,85.3c0.4,0,0.9-0.3,1.2-0.7"/>
					<path id="XMLID_6_" class="st16" d="M525.2,85.3c-0.6-0.2-1.2-0.8-1.2-1.7"/>
				</g>
			</g>
		</g>
	</g>
</g>
</svg>
